%TF.GenerationSoftware,KiCad,Pcbnew,8.0.7*%
%TF.CreationDate,2025-03-03T11:15:17+09:00*%
%TF.ProjectId,dot_for1,646f745f-666f-4723-912e-6b696361645f,rev?*%
%TF.SameCoordinates,Original*%
%TF.FileFunction,Soldermask,Top*%
%TF.FilePolarity,Negative*%
%FSLAX46Y46*%
G04 Gerber Fmt 4.6, Leading zero omitted, Abs format (unit mm)*
G04 Created by KiCad (PCBNEW 8.0.7) date 2025-03-03 11:15:17*
%MOMM*%
%LPD*%
G01*
G04 APERTURE LIST*
G04 Aperture macros list*
%AMRoundRect*
0 Rectangle with rounded corners*
0 $1 Rounding radius*
0 $2 $3 $4 $5 $6 $7 $8 $9 X,Y pos of 4 corners*
0 Add a 4 corners polygon primitive as box body*
4,1,4,$2,$3,$4,$5,$6,$7,$8,$9,$2,$3,0*
0 Add four circle primitives for the rounded corners*
1,1,$1+$1,$2,$3*
1,1,$1+$1,$4,$5*
1,1,$1+$1,$6,$7*
1,1,$1+$1,$8,$9*
0 Add four rect primitives between the rounded corners*
20,1,$1+$1,$2,$3,$4,$5,0*
20,1,$1+$1,$4,$5,$6,$7,0*
20,1,$1+$1,$6,$7,$8,$9,0*
20,1,$1+$1,$8,$9,$2,$3,0*%
G04 Aperture macros list end*
%ADD10RoundRect,0.135000X-0.185000X0.135000X-0.185000X-0.135000X0.185000X-0.135000X0.185000X0.135000X0*%
%ADD11C,1.450000*%
%ADD12RoundRect,0.250001X-1.099999X-1.099999X1.099999X-1.099999X1.099999X1.099999X-1.099999X1.099999X0*%
%ADD13C,2.700000*%
%ADD14R,2.000000X2.500000*%
%ADD15R,6.000000X6.000000*%
%ADD16RoundRect,0.225000X-0.225000X-0.250000X0.225000X-0.250000X0.225000X0.250000X-0.225000X0.250000X0*%
%ADD17R,1.370000X0.930000*%
%ADD18R,9.000000X10.000000*%
%ADD19RoundRect,0.225000X-0.250000X0.225000X-0.250000X-0.225000X0.250000X-0.225000X0.250000X0.225000X0*%
%ADD20RoundRect,0.250001X-1.099999X1.099999X-1.099999X-1.099999X1.099999X-1.099999X1.099999X1.099999X0*%
%ADD21RoundRect,0.250001X1.099999X1.099999X-1.099999X1.099999X-1.099999X-1.099999X1.099999X-1.099999X0*%
%ADD22RoundRect,0.135000X-0.135000X-0.185000X0.135000X-0.185000X0.135000X0.185000X-0.135000X0.185000X0*%
%ADD23O,1.800000X1.800000*%
%ADD24O,1.500000X1.500000*%
%ADD25O,1.700000X1.700000*%
%ADD26R,3.500000X1.700000*%
%ADD27R,1.700000X1.700000*%
%ADD28R,1.700000X3.500000*%
G04 APERTURE END LIST*
D10*
%TO.C,R2*%
X100200000Y-54890000D03*
X100200000Y-55910000D03*
%TD*%
D11*
%TO.C,IN1*%
X113542500Y-34050000D03*
D12*
X115042500Y-37450000D03*
D13*
X119002500Y-37450000D03*
%TD*%
D14*
%TO.C,IC1*%
X109200000Y-43000000D03*
D15*
X106900000Y-49250000D03*
D14*
X104600000Y-43000000D03*
%TD*%
D16*
%TO.C,C1*%
X117665000Y-50200000D03*
X119215000Y-50200000D03*
%TD*%
D17*
%TO.C,IC2*%
X116647000Y-59990000D03*
X116647000Y-61260000D03*
X116647000Y-62530000D03*
X116647000Y-63800000D03*
X116647000Y-65070000D03*
X116647000Y-66340000D03*
X116647000Y-67610000D03*
D18*
X122772000Y-63800000D03*
%TD*%
D19*
%TO.C,C4*%
X100400000Y-47825000D03*
X100400000Y-49375000D03*
%TD*%
%TO.C,C3*%
X101400000Y-43225000D03*
X101400000Y-44775000D03*
%TD*%
D11*
%TO.C,OUT1*%
X126350000Y-73142500D03*
D20*
X122950000Y-74642500D03*
D13*
X122950000Y-78602500D03*
%TD*%
D11*
%TO.C,RV1*%
X113260000Y-91600000D03*
D21*
X111760000Y-88200000D03*
D13*
X107800000Y-88200000D03*
X103840000Y-88200000D03*
%TD*%
D16*
%TO.C,C6*%
X117597000Y-55000000D03*
X119147000Y-55000000D03*
%TD*%
D22*
%TO.C,R1*%
X98600000Y-90600000D03*
X99620000Y-90600000D03*
%TD*%
D19*
%TO.C,C2*%
X112200000Y-44200000D03*
X112200000Y-45750000D03*
%TD*%
D23*
%TO.C,U1*%
X82075000Y-41000000D03*
D24*
X82375000Y-44030000D03*
X87225000Y-44030000D03*
D23*
X87525000Y-41000000D03*
D25*
X75910000Y-40870000D03*
D26*
X75010000Y-40870000D03*
D25*
X75910000Y-43410000D03*
D26*
X75010000Y-43410000D03*
D27*
X75910000Y-45950000D03*
D26*
X75010000Y-45950000D03*
D25*
X75910000Y-48490000D03*
D26*
X75010000Y-48490000D03*
D25*
X75910000Y-51030000D03*
D26*
X75010000Y-51030000D03*
D25*
X75910000Y-53570000D03*
D26*
X75010000Y-53570000D03*
D25*
X75910000Y-56110000D03*
D26*
X75010000Y-56110000D03*
D27*
X75910000Y-58650000D03*
D26*
X75010000Y-58650000D03*
D25*
X75910000Y-61190000D03*
D26*
X75010000Y-61190000D03*
D25*
X75910000Y-63730000D03*
D26*
X75010000Y-63730000D03*
D25*
X75910000Y-66270000D03*
D26*
X75010000Y-66270000D03*
D25*
X75910000Y-68810000D03*
D26*
X75010000Y-68810000D03*
D27*
X75910000Y-71350000D03*
D26*
X75010000Y-71350000D03*
D25*
X75910000Y-73890000D03*
D26*
X75010000Y-73890000D03*
D25*
X75910000Y-76430000D03*
D26*
X75010000Y-76430000D03*
D25*
X75910000Y-78970000D03*
D26*
X75010000Y-78970000D03*
D25*
X75910000Y-81510000D03*
D26*
X75010000Y-81510000D03*
D27*
X75910000Y-84050000D03*
D26*
X75010000Y-84050000D03*
D25*
X75910000Y-86590000D03*
D26*
X75010000Y-86590000D03*
D25*
X75910000Y-89130000D03*
D26*
X75010000Y-89130000D03*
D25*
X93690000Y-89130000D03*
D26*
X94590000Y-89130000D03*
D25*
X93690000Y-86590000D03*
D26*
X94590000Y-86590000D03*
D27*
X93690000Y-84050000D03*
D26*
X94590000Y-84050000D03*
D25*
X93690000Y-81510000D03*
D26*
X94590000Y-81510000D03*
D25*
X93690000Y-78970000D03*
D26*
X94590000Y-78970000D03*
D25*
X93690000Y-76430000D03*
D26*
X94590000Y-76430000D03*
D25*
X93690000Y-73890000D03*
D26*
X94590000Y-73890000D03*
D27*
X93690000Y-71350000D03*
D26*
X94590000Y-71350000D03*
D25*
X93690000Y-68810000D03*
D26*
X94590000Y-68810000D03*
D25*
X93690000Y-66270000D03*
D26*
X94590000Y-66270000D03*
D25*
X93690000Y-63730000D03*
D26*
X94590000Y-63730000D03*
D25*
X93690000Y-61190000D03*
D26*
X94590000Y-61190000D03*
D27*
X93690000Y-58650000D03*
D26*
X94590000Y-58650000D03*
D25*
X93690000Y-56110000D03*
D26*
X94590000Y-56110000D03*
D25*
X93690000Y-53570000D03*
D26*
X94590000Y-53570000D03*
D25*
X93690000Y-51030000D03*
D26*
X94590000Y-51030000D03*
D25*
X93690000Y-48490000D03*
D26*
X94590000Y-48490000D03*
D27*
X93690000Y-45950000D03*
D26*
X94590000Y-45950000D03*
D25*
X93690000Y-43410000D03*
D26*
X94590000Y-43410000D03*
D25*
X93690000Y-40870000D03*
D26*
X94590000Y-40870000D03*
D25*
X82260000Y-88900000D03*
D28*
X82260000Y-89800000D03*
D27*
X84800000Y-88900000D03*
D28*
X84800000Y-89800000D03*
D25*
X87340000Y-88900000D03*
D28*
X87340000Y-89800000D03*
%TD*%
D16*
%TO.C,C5*%
X117597000Y-56600000D03*
X119147000Y-56600000D03*
%TD*%
M02*
