%TF.GenerationSoftware,KiCad,Pcbnew,8.0.7*%
%TF.CreationDate,2025-03-03T11:15:17+09:00*%
%TF.ProjectId,dot_for1,646f745f-666f-4723-912e-6b696361645f,rev?*%
%TF.SameCoordinates,Original*%
%TF.FileFunction,Copper,L1,Top*%
%TF.FilePolarity,Positive*%
%FSLAX46Y46*%
G04 Gerber Fmt 4.6, Leading zero omitted, Abs format (unit mm)*
G04 Created by KiCad (PCBNEW 8.0.7) date 2025-03-03 11:15:17*
%MOMM*%
%LPD*%
G01*
G04 APERTURE LIST*
G04 Aperture macros list*
%AMRoundRect*
0 Rectangle with rounded corners*
0 $1 Rounding radius*
0 $2 $3 $4 $5 $6 $7 $8 $9 X,Y pos of 4 corners*
0 Add a 4 corners polygon primitive as box body*
4,1,4,$2,$3,$4,$5,$6,$7,$8,$9,$2,$3,0*
0 Add four circle primitives for the rounded corners*
1,1,$1+$1,$2,$3*
1,1,$1+$1,$4,$5*
1,1,$1+$1,$6,$7*
1,1,$1+$1,$8,$9*
0 Add four rect primitives between the rounded corners*
20,1,$1+$1,$2,$3,$4,$5,0*
20,1,$1+$1,$4,$5,$6,$7,0*
20,1,$1+$1,$6,$7,$8,$9,0*
20,1,$1+$1,$8,$9,$2,$3,0*%
G04 Aperture macros list end*
%TA.AperFunction,SMDPad,CuDef*%
%ADD10RoundRect,0.135000X-0.185000X0.135000X-0.185000X-0.135000X0.185000X-0.135000X0.185000X0.135000X0*%
%TD*%
%TA.AperFunction,ComponentPad*%
%ADD11RoundRect,0.250001X-1.099999X-1.099999X1.099999X-1.099999X1.099999X1.099999X-1.099999X1.099999X0*%
%TD*%
%TA.AperFunction,ComponentPad*%
%ADD12C,2.700000*%
%TD*%
%TA.AperFunction,SMDPad,CuDef*%
%ADD13R,2.000000X2.500000*%
%TD*%
%TA.AperFunction,SMDPad,CuDef*%
%ADD14R,6.000000X6.000000*%
%TD*%
%TA.AperFunction,SMDPad,CuDef*%
%ADD15RoundRect,0.225000X-0.225000X-0.250000X0.225000X-0.250000X0.225000X0.250000X-0.225000X0.250000X0*%
%TD*%
%TA.AperFunction,SMDPad,CuDef*%
%ADD16R,1.370000X0.930000*%
%TD*%
%TA.AperFunction,SMDPad,CuDef*%
%ADD17R,9.000000X10.000000*%
%TD*%
%TA.AperFunction,SMDPad,CuDef*%
%ADD18RoundRect,0.225000X-0.250000X0.225000X-0.250000X-0.225000X0.250000X-0.225000X0.250000X0.225000X0*%
%TD*%
%TA.AperFunction,ComponentPad*%
%ADD19RoundRect,0.250001X-1.099999X1.099999X-1.099999X-1.099999X1.099999X-1.099999X1.099999X1.099999X0*%
%TD*%
%TA.AperFunction,ComponentPad*%
%ADD20RoundRect,0.250001X1.099999X1.099999X-1.099999X1.099999X-1.099999X-1.099999X1.099999X-1.099999X0*%
%TD*%
%TA.AperFunction,SMDPad,CuDef*%
%ADD21RoundRect,0.135000X-0.135000X-0.185000X0.135000X-0.185000X0.135000X0.185000X-0.135000X0.185000X0*%
%TD*%
%TA.AperFunction,ComponentPad*%
%ADD22O,1.700000X1.700000*%
%TD*%
%TA.AperFunction,SMDPad,CuDef*%
%ADD23R,3.500000X1.700000*%
%TD*%
%TA.AperFunction,ComponentPad*%
%ADD24R,1.700000X1.700000*%
%TD*%
%TA.AperFunction,SMDPad,CuDef*%
%ADD25R,1.700000X3.500000*%
%TD*%
%TA.AperFunction,ViaPad*%
%ADD26C,0.600000*%
%TD*%
%TA.AperFunction,ViaPad*%
%ADD27C,0.800000*%
%TD*%
%TA.AperFunction,Conductor*%
%ADD28C,0.800000*%
%TD*%
%TA.AperFunction,Conductor*%
%ADD29C,1.000000*%
%TD*%
%TA.AperFunction,Conductor*%
%ADD30C,0.300000*%
%TD*%
G04 APERTURE END LIST*
D10*
%TO.P,R2,1*%
%TO.N,+3.3VADC*%
X100200000Y-54890000D03*
%TO.P,R2,2*%
%TO.N,Net-(R2-Pad2)*%
X100200000Y-55910000D03*
%TD*%
D11*
%TO.P,IN1,1,Pin_1*%
%TO.N,VDD*%
X115042500Y-37450000D03*
D12*
%TO.P,IN1,2,Pin_2*%
%TO.N,GNDPWR*%
X119002500Y-37450000D03*
%TD*%
D13*
%TO.P,IC1,1,VIN*%
%TO.N,VDD*%
X109200000Y-43000000D03*
D14*
%TO.P,IC1,2,GND*%
%TO.N,GNDPWR*%
X106900000Y-49250000D03*
D13*
%TO.P,IC1,3,VOUT*%
%TO.N,+5V*%
X104600000Y-43000000D03*
%TD*%
D15*
%TO.P,C1,1*%
%TO.N,VDD*%
X117665000Y-50200000D03*
%TO.P,C1,2*%
%TO.N,GNDPWR*%
X119215000Y-50200000D03*
%TD*%
D16*
%TO.P,IC2,1,VREF*%
%TO.N,VDD*%
X116647000Y-59990000D03*
%TO.P,IC2,2,OUT1*%
%TO.N,out1*%
X116647000Y-61260000D03*
%TO.P,IC2,3,FIN*%
%TO.N,FIN*%
X116647000Y-62530000D03*
%TO.P,IC2,4,GND_1*%
%TO.N,GNDPWR*%
X116647000Y-63800000D03*
%TO.P,IC2,5,RIN*%
%TO.N,RIN*%
X116647000Y-65070000D03*
%TO.P,IC2,6,OUT2*%
%TO.N,out2*%
X116647000Y-66340000D03*
%TO.P,IC2,7,VCC*%
%TO.N,VDD*%
X116647000Y-67610000D03*
D17*
%TO.P,IC2,8,GND_2*%
%TO.N,GNDPWR*%
X122772000Y-63800000D03*
%TD*%
D18*
%TO.P,C4,1*%
%TO.N,GND*%
X100400000Y-47825000D03*
%TO.P,C4,2*%
%TO.N,+3.3V*%
X100400000Y-49375000D03*
%TD*%
%TO.P,C3,1*%
%TO.N,+5V*%
X101400000Y-43225000D03*
%TO.P,C3,2*%
%TO.N,GNDPWR*%
X101400000Y-44775000D03*
%TD*%
D19*
%TO.P,OUT1,1,Pin_1*%
%TO.N,out2*%
X122950000Y-74642500D03*
D12*
%TO.P,OUT1,2,Pin_2*%
%TO.N,out1*%
X122950000Y-78602500D03*
%TD*%
D20*
%TO.P,RV1,1,1*%
%TO.N,Net-(R2-Pad2)*%
X111760000Y-88200000D03*
D12*
%TO.P,RV1,2,2*%
%TO.N,Net-(U1-GPIO28_ADC2)*%
X107800000Y-88200000D03*
%TO.P,RV1,3,3*%
%TO.N,GNDA*%
X103840000Y-88200000D03*
%TD*%
D15*
%TO.P,C6,1*%
%TO.N,VDD*%
X117597000Y-55000000D03*
%TO.P,C6,2*%
%TO.N,GNDPWR*%
X119147000Y-55000000D03*
%TD*%
D21*
%TO.P,R1,1*%
%TO.N,GND*%
X98600000Y-90600000D03*
%TO.P,R1,2*%
%TO.N,GNDPWR*%
X99620000Y-90600000D03*
%TD*%
D18*
%TO.P,C2,1*%
%TO.N,VDD*%
X112200000Y-44200000D03*
%TO.P,C2,2*%
%TO.N,GNDPWR*%
X112200000Y-45750000D03*
%TD*%
D22*
%TO.P,U1,1,GPIO0*%
%TO.N,unconnected-(U1-GPIO0-Pad1)*%
X75910000Y-40870000D03*
D23*
%TO.N,unconnected-(U1-GPIO0-Pad1)_1*%
X75010000Y-40870000D03*
D22*
%TO.P,U1,2,GPIO1*%
%TO.N,unconnected-(U1-GPIO1-Pad2)_1*%
X75910000Y-43410000D03*
D23*
%TO.N,unconnected-(U1-GPIO1-Pad2)*%
X75010000Y-43410000D03*
D24*
%TO.P,U1,3,GND*%
%TO.N,GND*%
X75910000Y-45950000D03*
D23*
X75010000Y-45950000D03*
D22*
%TO.P,U1,4,GPIO2*%
%TO.N,unconnected-(U1-GPIO2-Pad4)_1*%
X75910000Y-48490000D03*
D23*
%TO.N,unconnected-(U1-GPIO2-Pad4)*%
X75010000Y-48490000D03*
D22*
%TO.P,U1,5,GPIO3*%
%TO.N,unconnected-(U1-GPIO3-Pad5)_1*%
X75910000Y-51030000D03*
D23*
%TO.N,unconnected-(U1-GPIO3-Pad5)*%
X75010000Y-51030000D03*
D22*
%TO.P,U1,6,GPIO4*%
%TO.N,unconnected-(U1-GPIO4-Pad6)_1*%
X75910000Y-53570000D03*
D23*
%TO.N,unconnected-(U1-GPIO4-Pad6)*%
X75010000Y-53570000D03*
D22*
%TO.P,U1,7,GPIO5*%
%TO.N,unconnected-(U1-GPIO5-Pad7)_1*%
X75910000Y-56110000D03*
D23*
%TO.N,unconnected-(U1-GPIO5-Pad7)*%
X75010000Y-56110000D03*
D24*
%TO.P,U1,8,GND*%
%TO.N,GND*%
X75910000Y-58650000D03*
D23*
X75010000Y-58650000D03*
D22*
%TO.P,U1,9,GPIO6*%
%TO.N,unconnected-(U1-GPIO6-Pad9)_1*%
X75910000Y-61190000D03*
D23*
%TO.N,unconnected-(U1-GPIO6-Pad9)*%
X75010000Y-61190000D03*
D22*
%TO.P,U1,10,GPIO7*%
%TO.N,unconnected-(U1-GPIO7-Pad10)*%
X75910000Y-63730000D03*
D23*
%TO.N,unconnected-(U1-GPIO7-Pad10)_1*%
X75010000Y-63730000D03*
D22*
%TO.P,U1,11,GPIO8*%
%TO.N,unconnected-(U1-GPIO8-Pad11)*%
X75910000Y-66270000D03*
D23*
%TO.N,unconnected-(U1-GPIO8-Pad11)_1*%
X75010000Y-66270000D03*
D22*
%TO.P,U1,12,GPIO9*%
%TO.N,unconnected-(U1-GPIO9-Pad12)_1*%
X75910000Y-68810000D03*
D23*
%TO.N,unconnected-(U1-GPIO9-Pad12)*%
X75010000Y-68810000D03*
D24*
%TO.P,U1,13,GND*%
%TO.N,GND*%
X75910000Y-71350000D03*
D23*
X75010000Y-71350000D03*
D22*
%TO.P,U1,14,GPIO10*%
%TO.N,unconnected-(U1-GPIO10-Pad14)_1*%
X75910000Y-73890000D03*
D23*
%TO.N,unconnected-(U1-GPIO10-Pad14)*%
X75010000Y-73890000D03*
D22*
%TO.P,U1,15,GPIO11*%
%TO.N,unconnected-(U1-GPIO11-Pad15)*%
X75910000Y-76430000D03*
D23*
%TO.N,unconnected-(U1-GPIO11-Pad15)_1*%
X75010000Y-76430000D03*
D22*
%TO.P,U1,16,GPIO12*%
%TO.N,unconnected-(U1-GPIO12-Pad16)_1*%
X75910000Y-78970000D03*
D23*
%TO.N,unconnected-(U1-GPIO12-Pad16)*%
X75010000Y-78970000D03*
D22*
%TO.P,U1,17,GPIO13*%
%TO.N,unconnected-(U1-GPIO13-Pad17)*%
X75910000Y-81510000D03*
D23*
%TO.N,unconnected-(U1-GPIO13-Pad17)_1*%
X75010000Y-81510000D03*
D24*
%TO.P,U1,18,GND*%
%TO.N,GND*%
X75910000Y-84050000D03*
D23*
X75010000Y-84050000D03*
D22*
%TO.P,U1,19,GPIO14*%
%TO.N,unconnected-(U1-GPIO14-Pad19)*%
X75910000Y-86590000D03*
D23*
%TO.N,unconnected-(U1-GPIO14-Pad19)_1*%
X75010000Y-86590000D03*
D22*
%TO.P,U1,20,GPIO15*%
%TO.N,unconnected-(U1-GPIO15-Pad20)_1*%
X75910000Y-89130000D03*
D23*
%TO.N,unconnected-(U1-GPIO15-Pad20)*%
X75010000Y-89130000D03*
D22*
%TO.P,U1,21,GPIO16*%
%TO.N,unconnected-(U1-GPIO16-Pad21)_1*%
X93690000Y-89130000D03*
D23*
%TO.N,unconnected-(U1-GPIO16-Pad21)*%
X94590000Y-89130000D03*
D22*
%TO.P,U1,22,GPIO17*%
%TO.N,unconnected-(U1-GPIO17-Pad22)*%
X93690000Y-86590000D03*
D23*
%TO.N,unconnected-(U1-GPIO17-Pad22)_1*%
X94590000Y-86590000D03*
D24*
%TO.P,U1,23,GND*%
%TO.N,GND*%
X93690000Y-84050000D03*
D23*
X94590000Y-84050000D03*
D22*
%TO.P,U1,24,GPIO18*%
%TO.N,unconnected-(U1-GPIO18-Pad24)_1*%
X93690000Y-81510000D03*
D23*
%TO.N,unconnected-(U1-GPIO18-Pad24)*%
X94590000Y-81510000D03*
D22*
%TO.P,U1,25,GPIO19*%
%TO.N,unconnected-(U1-GPIO19-Pad25)*%
X93690000Y-78970000D03*
D23*
%TO.N,unconnected-(U1-GPIO19-Pad25)_1*%
X94590000Y-78970000D03*
D22*
%TO.P,U1,26,GPIO20*%
%TO.N,unconnected-(U1-GPIO20-Pad26)_1*%
X93690000Y-76430000D03*
D23*
%TO.N,unconnected-(U1-GPIO20-Pad26)*%
X94590000Y-76430000D03*
D22*
%TO.P,U1,27,GPIO21*%
%TO.N,RIN*%
X93690000Y-73890000D03*
D23*
X94590000Y-73890000D03*
D24*
%TO.P,U1,28,GND*%
%TO.N,GND*%
X93690000Y-71350000D03*
D23*
X94590000Y-71350000D03*
D22*
%TO.P,U1,29,GPIO22*%
%TO.N,FIN*%
X93690000Y-68810000D03*
D23*
X94590000Y-68810000D03*
D22*
%TO.P,U1,30,RUN*%
%TO.N,unconnected-(U1-RUN-Pad30)_1*%
X93690000Y-66270000D03*
D23*
%TO.N,unconnected-(U1-RUN-Pad30)*%
X94590000Y-66270000D03*
D22*
%TO.P,U1,31,GPIO26_ADC0*%
%TO.N,unconnected-(U1-GPIO26_ADC0-Pad31)*%
X93690000Y-63730000D03*
D23*
%TO.N,unconnected-(U1-GPIO26_ADC0-Pad31)_1*%
X94590000Y-63730000D03*
D22*
%TO.P,U1,32,GPIO27_ADC1*%
%TO.N,unconnected-(U1-GPIO27_ADC1-Pad32)_1*%
X93690000Y-61190000D03*
D23*
%TO.N,unconnected-(U1-GPIO27_ADC1-Pad32)*%
X94590000Y-61190000D03*
D24*
%TO.P,U1,33,AGND*%
%TO.N,GNDA*%
X93690000Y-58650000D03*
D23*
X94590000Y-58650000D03*
D22*
%TO.P,U1,34,GPIO28_ADC2*%
%TO.N,Net-(U1-GPIO28_ADC2)*%
X93690000Y-56110000D03*
D23*
X94590000Y-56110000D03*
D22*
%TO.P,U1,35,ADC_VREF*%
%TO.N,+3.3VADC*%
X93690000Y-53570000D03*
D23*
X94590000Y-53570000D03*
D22*
%TO.P,U1,36,3V3*%
%TO.N,+3.3V*%
X93690000Y-51030000D03*
D23*
X94590000Y-51030000D03*
D22*
%TO.P,U1,37,3V3_EN*%
%TO.N,unconnected-(U1-3V3_EN-Pad37)*%
X93690000Y-48490000D03*
D23*
%TO.N,unconnected-(U1-3V3_EN-Pad37)_1*%
X94590000Y-48490000D03*
D24*
%TO.P,U1,38,GND*%
%TO.N,GND*%
X93690000Y-45950000D03*
D23*
X94590000Y-45950000D03*
D22*
%TO.P,U1,39,VSYS*%
%TO.N,+5V*%
X93690000Y-43410000D03*
D23*
X94590000Y-43410000D03*
D22*
%TO.P,U1,40,VBUS*%
%TO.N,unconnected-(U1-VBUS-Pad40)_1*%
X93690000Y-40870000D03*
D23*
%TO.N,unconnected-(U1-VBUS-Pad40)*%
X94590000Y-40870000D03*
D22*
%TO.P,U1,41,SWCLK*%
%TO.N,unconnected-(U1-SWCLK-Pad41)_1*%
X82260000Y-88900000D03*
D25*
%TO.N,unconnected-(U1-SWCLK-Pad41)*%
X82260000Y-89800000D03*
D24*
%TO.P,U1,42,GND*%
%TO.N,GND*%
X84800000Y-88900000D03*
D25*
X84800000Y-89800000D03*
D22*
%TO.P,U1,43,SWDIO*%
%TO.N,unconnected-(U1-SWDIO-Pad43)_1*%
X87340000Y-88900000D03*
D25*
%TO.N,unconnected-(U1-SWDIO-Pad43)*%
X87340000Y-89800000D03*
%TD*%
D15*
%TO.P,C5,1*%
%TO.N,VDD*%
X117597000Y-56600000D03*
%TO.P,C5,2*%
%TO.N,GNDPWR*%
X119147000Y-56600000D03*
%TD*%
D26*
%TO.N,FIN*%
X110600000Y-64000000D03*
X99800000Y-68810000D03*
%TO.N,RIN*%
X110600000Y-66600000D03*
X99800000Y-73800000D03*
D27*
%TO.N,VDD*%
X112572000Y-61600000D03*
X114972000Y-68800000D03*
D26*
%TO.N,FIN*%
X112972000Y-63600000D03*
X115372000Y-62530000D03*
%TO.N,RIN*%
X115302000Y-65070000D03*
X112895996Y-66323996D03*
%TD*%
D28*
%TO.N,VDD*%
X115042500Y-43042500D02*
X116200000Y-44200000D01*
X115042500Y-43000000D02*
X115042500Y-43042500D01*
D29*
X113800000Y-44200000D02*
X113842500Y-44200000D01*
X113842500Y-44200000D02*
X115042500Y-43000000D01*
D28*
X115042500Y-37450000D02*
X115042500Y-43000000D01*
D29*
X113800000Y-44200000D02*
X112200000Y-44200000D01*
X114800000Y-44200000D02*
X113800000Y-44200000D01*
D28*
X115042500Y-43000000D02*
X115042500Y-43957500D01*
X115042500Y-43957500D02*
X114800000Y-44200000D01*
D29*
X116200000Y-44200000D02*
X114800000Y-44200000D01*
D30*
%TO.N,FIN*%
X112572000Y-64000000D02*
X112972000Y-63600000D01*
X110600000Y-64000000D02*
X112572000Y-64000000D01*
X99800000Y-68810000D02*
X93690000Y-68810000D01*
%TO.N,RIN*%
X112619992Y-66600000D02*
X112895996Y-66323996D01*
X110600000Y-66600000D02*
X112619992Y-66600000D01*
D28*
%TO.N,Net-(R2-Pad2)*%
X100200000Y-58200000D02*
X100200000Y-55910000D01*
X110600000Y-86200000D02*
X110600000Y-68600000D01*
X111529500Y-87129500D02*
X110600000Y-86200000D01*
X111760000Y-88200000D02*
X111529500Y-87969500D01*
X111529500Y-87969500D02*
X111529500Y-87129500D01*
X110600000Y-68600000D02*
X100200000Y-58200000D01*
D30*
%TO.N,RIN*%
X99710000Y-73890000D02*
X99800000Y-73800000D01*
X98770126Y-73890000D02*
X99710000Y-73890000D01*
D28*
%TO.N,Net-(U1-GPIO28_ADC2)*%
X95850000Y-56110000D02*
X93690000Y-56110000D01*
X107800000Y-68060000D02*
X95850000Y-56110000D01*
X107800000Y-88200000D02*
X107800000Y-68060000D01*
%TO.N,GNDA*%
X103840000Y-66640000D02*
X95850000Y-58650000D01*
X95850000Y-58650000D02*
X93690000Y-58650000D01*
X103840000Y-88200000D02*
X103840000Y-66640000D01*
D29*
%TO.N,GNDPWR*%
X106900000Y-49250000D02*
X108550000Y-49250000D01*
%TO.N,VDD*%
X114182000Y-59990000D02*
X112572000Y-61600000D01*
X115972000Y-68800000D02*
X114972000Y-68800000D01*
X116640000Y-44640000D02*
X116200000Y-44200000D01*
X117665000Y-50200000D02*
X116640000Y-49175000D01*
X112200000Y-44200000D02*
X110400000Y-44200000D01*
X110400000Y-44200000D02*
X109200000Y-43000000D01*
X116647000Y-59990000D02*
X116647000Y-59000000D01*
X116647000Y-59000000D02*
X116647000Y-59115000D01*
X116647000Y-59115000D02*
X115772000Y-59990000D01*
X116647000Y-57550000D02*
X117597000Y-56600000D01*
X115772000Y-59990000D02*
X114182000Y-59990000D01*
X116647000Y-59990000D02*
X115772000Y-59990000D01*
X116647000Y-67610000D02*
X116647000Y-68125000D01*
X117665000Y-53307000D02*
X117597000Y-53375000D01*
X117665000Y-50200000D02*
X117665000Y-53307000D01*
X117597000Y-55000000D02*
X117597000Y-56600000D01*
X117597000Y-53375000D02*
X117597000Y-55000000D01*
X116647000Y-68125000D02*
X115972000Y-68800000D01*
X116647000Y-59000000D02*
X116647000Y-57550000D01*
X116640000Y-49175000D02*
X116640000Y-44640000D01*
%TO.N,+5V*%
X101400000Y-43225000D02*
X104375000Y-43225000D01*
X104375000Y-43225000D02*
X104600000Y-43000000D01*
X93690000Y-43410000D02*
X101215000Y-43410000D01*
X101215000Y-43410000D02*
X101400000Y-43225000D01*
D28*
%TO.N,+3.3V*%
X98745000Y-51030000D02*
X100400000Y-49375000D01*
X93690000Y-51030000D02*
X98745000Y-51030000D01*
%TO.N,GND*%
X98525000Y-45950000D02*
X100400000Y-47825000D01*
X93690000Y-45950000D02*
X98525000Y-45950000D01*
%TO.N,out2*%
X115042500Y-74642500D02*
X114400000Y-74000000D01*
X113872000Y-68035000D02*
X113872000Y-73472000D01*
X113872000Y-73472000D02*
X114400000Y-74000000D01*
X116647000Y-66340000D02*
X115567000Y-66340000D01*
X115567000Y-66340000D02*
X113872000Y-68035000D01*
X122950000Y-74642500D02*
X115042500Y-74642500D01*
%TO.N,out1*%
X122950000Y-78602500D02*
X114402500Y-78602500D01*
X115312000Y-61260000D02*
X116647000Y-61260000D01*
X114402500Y-78602500D02*
X112529500Y-76729500D01*
X113972000Y-66520786D02*
X113972000Y-62600000D01*
X112529500Y-67963286D02*
X113972000Y-66520786D01*
X112529500Y-76729500D02*
X112529500Y-67963286D01*
X113972000Y-62600000D02*
X115312000Y-61260000D01*
D30*
%TO.N,FIN*%
X115372000Y-62530000D02*
X116647000Y-62530000D01*
%TO.N,RIN*%
X98770126Y-73890000D02*
X93690000Y-73890000D01*
X115302000Y-65070000D02*
X116647000Y-65070000D01*
D28*
%TO.N,+3.3VADC*%
X98880000Y-53570000D02*
X100200000Y-54890000D01*
X93690000Y-53570000D02*
X98880000Y-53570000D01*
%TD*%
%TA.AperFunction,Conductor*%
%TO.N,GND*%
G36*
X98745153Y-32320185D02*
G01*
X98790908Y-32372989D01*
X98802113Y-32424080D01*
X98803746Y-32906224D01*
X98835504Y-42285082D01*
X98816048Y-42352186D01*
X98763399Y-42398119D01*
X98711506Y-42409500D01*
X96904141Y-42409500D01*
X96837102Y-42389815D01*
X96791347Y-42337011D01*
X96787969Y-42328859D01*
X96783796Y-42317669D01*
X96706421Y-42214309D01*
X96682004Y-42148848D01*
X96696855Y-42080575D01*
X96706416Y-42065696D01*
X96783796Y-41962331D01*
X96834091Y-41827483D01*
X96840500Y-41767873D01*
X96840499Y-39972128D01*
X96834091Y-39912517D01*
X96800901Y-39823531D01*
X96783797Y-39777671D01*
X96783793Y-39777664D01*
X96697547Y-39662455D01*
X96697544Y-39662452D01*
X96582335Y-39576206D01*
X96582328Y-39576202D01*
X96447482Y-39525908D01*
X96447483Y-39525908D01*
X96387883Y-39519501D01*
X96387881Y-39519500D01*
X96387873Y-39519500D01*
X96387865Y-39519500D01*
X93754385Y-39519500D01*
X93743578Y-39519028D01*
X93690001Y-39514341D01*
X93689997Y-39514341D01*
X93636419Y-39519028D01*
X93625613Y-39519500D01*
X92792129Y-39519500D01*
X92792123Y-39519501D01*
X92732516Y-39525908D01*
X92597671Y-39576202D01*
X92597664Y-39576206D01*
X92482455Y-39662452D01*
X92482452Y-39662455D01*
X92396206Y-39777664D01*
X92396202Y-39777671D01*
X92345908Y-39912517D01*
X92340149Y-39966087D01*
X92339501Y-39972123D01*
X92339500Y-39972135D01*
X92339500Y-40805616D01*
X92339028Y-40816423D01*
X92334341Y-40869997D01*
X92334341Y-40870002D01*
X92339028Y-40923576D01*
X92339500Y-40934383D01*
X92339500Y-41767870D01*
X92339501Y-41767876D01*
X92345908Y-41827483D01*
X92396202Y-41962328D01*
X92396203Y-41962330D01*
X92473578Y-42065689D01*
X92497995Y-42131153D01*
X92483144Y-42199426D01*
X92473578Y-42214311D01*
X92396203Y-42317669D01*
X92396202Y-42317671D01*
X92345908Y-42452517D01*
X92339501Y-42512116D01*
X92339501Y-42512123D01*
X92339500Y-42512135D01*
X92339500Y-43345616D01*
X92339028Y-43356423D01*
X92334341Y-43409997D01*
X92334341Y-43410002D01*
X92339028Y-43463576D01*
X92339500Y-43474383D01*
X92339500Y-44307870D01*
X92339501Y-44307876D01*
X92345908Y-44367483D01*
X92396202Y-44502328D01*
X92396206Y-44502335D01*
X92482452Y-44617544D01*
X92482455Y-44617547D01*
X92597664Y-44703793D01*
X92597671Y-44703797D01*
X92732517Y-44754091D01*
X92732516Y-44754091D01*
X92739444Y-44754835D01*
X92792127Y-44760500D01*
X93625616Y-44760499D01*
X93636425Y-44760971D01*
X93690000Y-44765659D01*
X93743575Y-44760971D01*
X93754384Y-44760499D01*
X96387871Y-44760499D01*
X96387872Y-44760499D01*
X96447483Y-44754091D01*
X96582331Y-44703796D01*
X96697546Y-44617546D01*
X96783796Y-44502331D01*
X96787960Y-44491165D01*
X96829829Y-44435234D01*
X96895293Y-44410816D01*
X96904141Y-44410500D01*
X98719120Y-44410500D01*
X98786159Y-44430185D01*
X98831914Y-44482989D01*
X98843119Y-44534080D01*
X98860237Y-49589478D01*
X98840780Y-49656584D01*
X98823919Y-49677579D01*
X98408319Y-50093181D01*
X98346996Y-50126666D01*
X98320638Y-50129500D01*
X96941440Y-50129500D01*
X96874401Y-50109815D01*
X96828646Y-50057011D01*
X96825258Y-50048833D01*
X96783797Y-49937671D01*
X96783795Y-49937668D01*
X96762910Y-49909769D01*
X96706421Y-49834309D01*
X96682004Y-49768848D01*
X96696855Y-49700575D01*
X96706416Y-49685696D01*
X96783796Y-49582331D01*
X96834091Y-49447483D01*
X96840500Y-49387873D01*
X96840499Y-47592128D01*
X96834091Y-47532517D01*
X96824345Y-47506387D01*
X96783797Y-47397671D01*
X96783793Y-47397664D01*
X96697547Y-47282455D01*
X96697544Y-47282452D01*
X96582335Y-47196206D01*
X96582328Y-47196202D01*
X96447482Y-47145908D01*
X96447483Y-47145908D01*
X96387883Y-47139501D01*
X96387881Y-47139500D01*
X96387873Y-47139500D01*
X96387865Y-47139500D01*
X93754385Y-47139500D01*
X93743578Y-47139028D01*
X93690001Y-47134341D01*
X93689997Y-47134341D01*
X93636419Y-47139028D01*
X93625613Y-47139500D01*
X92792129Y-47139500D01*
X92792123Y-47139501D01*
X92732516Y-47145908D01*
X92597671Y-47196202D01*
X92597664Y-47196206D01*
X92482455Y-47282452D01*
X92482452Y-47282455D01*
X92396206Y-47397664D01*
X92396202Y-47397671D01*
X92345908Y-47532517D01*
X92339501Y-47592116D01*
X92339501Y-47592123D01*
X92339500Y-47592135D01*
X92339500Y-48425616D01*
X92339028Y-48436423D01*
X92334341Y-48489997D01*
X92334341Y-48490002D01*
X92339028Y-48543576D01*
X92339500Y-48554383D01*
X92339500Y-49387870D01*
X92339501Y-49387876D01*
X92345908Y-49447483D01*
X92396202Y-49582328D01*
X92396203Y-49582330D01*
X92473578Y-49685689D01*
X92497995Y-49751153D01*
X92483144Y-49819426D01*
X92473578Y-49834311D01*
X92396203Y-49937669D01*
X92396202Y-49937671D01*
X92345908Y-50072517D01*
X92340087Y-50126666D01*
X92339501Y-50132123D01*
X92339500Y-50132135D01*
X92339500Y-50965616D01*
X92339028Y-50976423D01*
X92334341Y-51029997D01*
X92334341Y-51030002D01*
X92339028Y-51083576D01*
X92339500Y-51094383D01*
X92339500Y-51927870D01*
X92339501Y-51927876D01*
X92345908Y-51987483D01*
X92396202Y-52122328D01*
X92396203Y-52122330D01*
X92473578Y-52225689D01*
X92497995Y-52291153D01*
X92483144Y-52359426D01*
X92473578Y-52374311D01*
X92396203Y-52477669D01*
X92396202Y-52477671D01*
X92345908Y-52612517D01*
X92341006Y-52658119D01*
X92339501Y-52672123D01*
X92339500Y-52672135D01*
X92339500Y-53505616D01*
X92339028Y-53516423D01*
X92334341Y-53569997D01*
X92334341Y-53570002D01*
X92339028Y-53623576D01*
X92339500Y-53634383D01*
X92339500Y-54467870D01*
X92339501Y-54467876D01*
X92345908Y-54527483D01*
X92396202Y-54662328D01*
X92396203Y-54662330D01*
X92473578Y-54765689D01*
X92497995Y-54831153D01*
X92483144Y-54899426D01*
X92473578Y-54914311D01*
X92396203Y-55017669D01*
X92396202Y-55017671D01*
X92345908Y-55152517D01*
X92339501Y-55212116D01*
X92339501Y-55212123D01*
X92339500Y-55212135D01*
X92339500Y-56045616D01*
X92339028Y-56056423D01*
X92334341Y-56109997D01*
X92334341Y-56110002D01*
X92339028Y-56163576D01*
X92339500Y-56174383D01*
X92339500Y-57007870D01*
X92339501Y-57007876D01*
X92345908Y-57067483D01*
X92396202Y-57202328D01*
X92396203Y-57202330D01*
X92473578Y-57305689D01*
X92497995Y-57371153D01*
X92483144Y-57439426D01*
X92473578Y-57454311D01*
X92396203Y-57557669D01*
X92396202Y-57557671D01*
X92345908Y-57692517D01*
X92339501Y-57752116D01*
X92339500Y-57752135D01*
X92339500Y-59547870D01*
X92339501Y-59547876D01*
X92345908Y-59607483D01*
X92396202Y-59742328D01*
X92396203Y-59742330D01*
X92396204Y-59742331D01*
X92468591Y-59839028D01*
X92473578Y-59845689D01*
X92497995Y-59911153D01*
X92483144Y-59979426D01*
X92473578Y-59994311D01*
X92396203Y-60097669D01*
X92396202Y-60097671D01*
X92345908Y-60232517D01*
X92339501Y-60292116D01*
X92339501Y-60292123D01*
X92339500Y-60292135D01*
X92339500Y-61125616D01*
X92339028Y-61136423D01*
X92334341Y-61189997D01*
X92334341Y-61190002D01*
X92339028Y-61243576D01*
X92339500Y-61254383D01*
X92339500Y-62087870D01*
X92339501Y-62087876D01*
X92345908Y-62147483D01*
X92396202Y-62282328D01*
X92396203Y-62282330D01*
X92473578Y-62385689D01*
X92497995Y-62451153D01*
X92483144Y-62519426D01*
X92473578Y-62534311D01*
X92396203Y-62637669D01*
X92396202Y-62637671D01*
X92345908Y-62772517D01*
X92339501Y-62832116D01*
X92339501Y-62832123D01*
X92339500Y-62832135D01*
X92339500Y-63665616D01*
X92339028Y-63676423D01*
X92334341Y-63729997D01*
X92334341Y-63730002D01*
X92339028Y-63783576D01*
X92339500Y-63794383D01*
X92339500Y-64627870D01*
X92339501Y-64627876D01*
X92345908Y-64687483D01*
X92396202Y-64822328D01*
X92396203Y-64822330D01*
X92473578Y-64925689D01*
X92497995Y-64991153D01*
X92483144Y-65059426D01*
X92473578Y-65074311D01*
X92396203Y-65177669D01*
X92396202Y-65177671D01*
X92345908Y-65312517D01*
X92339501Y-65372116D01*
X92339501Y-65372123D01*
X92339500Y-65372135D01*
X92339500Y-66205616D01*
X92339028Y-66216423D01*
X92334341Y-66269997D01*
X92334341Y-66270002D01*
X92339028Y-66323576D01*
X92339500Y-66334383D01*
X92339500Y-67167870D01*
X92339501Y-67167876D01*
X92345908Y-67227483D01*
X92396202Y-67362328D01*
X92396203Y-67362330D01*
X92473578Y-67465689D01*
X92497995Y-67531153D01*
X92483144Y-67599426D01*
X92473578Y-67614311D01*
X92396203Y-67717669D01*
X92396202Y-67717671D01*
X92345908Y-67852517D01*
X92339501Y-67912116D01*
X92339501Y-67912123D01*
X92339500Y-67912135D01*
X92339500Y-68745616D01*
X92339028Y-68756423D01*
X92334341Y-68809997D01*
X92334341Y-68810002D01*
X92339028Y-68863576D01*
X92339500Y-68874383D01*
X92339500Y-69707870D01*
X92339501Y-69707876D01*
X92345908Y-69767483D01*
X92396202Y-69902328D01*
X92396206Y-69902335D01*
X92482452Y-70017544D01*
X92482455Y-70017547D01*
X92597664Y-70103793D01*
X92597671Y-70103797D01*
X92732517Y-70154091D01*
X92732516Y-70154091D01*
X92739444Y-70154835D01*
X92792127Y-70160500D01*
X93625616Y-70160499D01*
X93636425Y-70160971D01*
X93690000Y-70165659D01*
X93743575Y-70160971D01*
X93754384Y-70160499D01*
X96387871Y-70160499D01*
X96387872Y-70160499D01*
X96447483Y-70154091D01*
X96582331Y-70103796D01*
X96697546Y-70017546D01*
X96783796Y-69902331D01*
X96834091Y-69767483D01*
X96840500Y-69707873D01*
X96840500Y-69584500D01*
X96860185Y-69517461D01*
X96912989Y-69471706D01*
X96964500Y-69460500D01*
X98784808Y-69460500D01*
X98851847Y-69480185D01*
X98897602Y-69532989D01*
X98907546Y-69602146D01*
X98894500Y-69692887D01*
X98894500Y-72917111D01*
X98895247Y-72932516D01*
X98896871Y-72966026D01*
X98899190Y-72989877D01*
X98899191Y-72989888D01*
X98899192Y-72989892D01*
X98906284Y-73038345D01*
X98909536Y-73047638D01*
X98918952Y-73074548D01*
X98922512Y-73144327D01*
X98887781Y-73204954D01*
X98825787Y-73237179D01*
X98801909Y-73239500D01*
X96964499Y-73239500D01*
X96897460Y-73219815D01*
X96851705Y-73167011D01*
X96840499Y-73115500D01*
X96840499Y-72992129D01*
X96840498Y-72992123D01*
X96840497Y-72992116D01*
X96834091Y-72932517D01*
X96829375Y-72919874D01*
X96783797Y-72797671D01*
X96783793Y-72797664D01*
X96697547Y-72682455D01*
X96697544Y-72682452D01*
X96582335Y-72596206D01*
X96582328Y-72596202D01*
X96447482Y-72545908D01*
X96447483Y-72545908D01*
X96387883Y-72539501D01*
X96387881Y-72539500D01*
X96387873Y-72539500D01*
X96387865Y-72539500D01*
X93754385Y-72539500D01*
X93743578Y-72539028D01*
X93690001Y-72534341D01*
X93689997Y-72534341D01*
X93636419Y-72539028D01*
X93625613Y-72539500D01*
X92792129Y-72539500D01*
X92792123Y-72539501D01*
X92732516Y-72545908D01*
X92597671Y-72596202D01*
X92597664Y-72596206D01*
X92482455Y-72682452D01*
X92482452Y-72682455D01*
X92396206Y-72797664D01*
X92396202Y-72797671D01*
X92345908Y-72932517D01*
X92342306Y-72966026D01*
X92339501Y-72992123D01*
X92339500Y-72992135D01*
X92339500Y-73825616D01*
X92339028Y-73836423D01*
X92334341Y-73889997D01*
X92334341Y-73890002D01*
X92339028Y-73943576D01*
X92339500Y-73954383D01*
X92339500Y-74787870D01*
X92339501Y-74787876D01*
X92345908Y-74847483D01*
X92396202Y-74982328D01*
X92396203Y-74982330D01*
X92473578Y-75085689D01*
X92497995Y-75151153D01*
X92483144Y-75219426D01*
X92473578Y-75234311D01*
X92396203Y-75337669D01*
X92396202Y-75337671D01*
X92345908Y-75472517D01*
X92342090Y-75508033D01*
X92339501Y-75532123D01*
X92339500Y-75532135D01*
X92339500Y-76365616D01*
X92339028Y-76376423D01*
X92334341Y-76429997D01*
X92334341Y-76430002D01*
X92339028Y-76483576D01*
X92339500Y-76494383D01*
X92339500Y-77327870D01*
X92339501Y-77327876D01*
X92345908Y-77387483D01*
X92396202Y-77522328D01*
X92396203Y-77522330D01*
X92473578Y-77625689D01*
X92497995Y-77691153D01*
X92483144Y-77759426D01*
X92473578Y-77774311D01*
X92396203Y-77877669D01*
X92396202Y-77877671D01*
X92345908Y-78012517D01*
X92340880Y-78059288D01*
X92339501Y-78072123D01*
X92339500Y-78072135D01*
X92339500Y-78905616D01*
X92339028Y-78916423D01*
X92334341Y-78969997D01*
X92334341Y-78970002D01*
X92339028Y-79023576D01*
X92339500Y-79034383D01*
X92339500Y-79867870D01*
X92339501Y-79867876D01*
X92345908Y-79927483D01*
X92396202Y-80062328D01*
X92396203Y-80062330D01*
X92473578Y-80165689D01*
X92497995Y-80231153D01*
X92483144Y-80299426D01*
X92473578Y-80314311D01*
X92396203Y-80417669D01*
X92396202Y-80417671D01*
X92345908Y-80552517D01*
X92339501Y-80612116D01*
X92339501Y-80612123D01*
X92339500Y-80612135D01*
X92339500Y-81445616D01*
X92339028Y-81456423D01*
X92334341Y-81509997D01*
X92334341Y-81510002D01*
X92339028Y-81563576D01*
X92339500Y-81574383D01*
X92339500Y-82407870D01*
X92339501Y-82407876D01*
X92345908Y-82467483D01*
X92396202Y-82602328D01*
X92396206Y-82602335D01*
X92482452Y-82717544D01*
X92482455Y-82717547D01*
X92597664Y-82803793D01*
X92597671Y-82803797D01*
X92732517Y-82854091D01*
X92732516Y-82854091D01*
X92739444Y-82854835D01*
X92792127Y-82860500D01*
X93625616Y-82860499D01*
X93636425Y-82860971D01*
X93690000Y-82865659D01*
X93743575Y-82860971D01*
X93754384Y-82860499D01*
X96387871Y-82860499D01*
X96387872Y-82860499D01*
X96447483Y-82854091D01*
X96582331Y-82803796D01*
X96697546Y-82717546D01*
X96783796Y-82602331D01*
X96834091Y-82467483D01*
X96840500Y-82407873D01*
X96840499Y-80612128D01*
X96834091Y-80552517D01*
X96783796Y-80417669D01*
X96706421Y-80314309D01*
X96682004Y-80248848D01*
X96696855Y-80180575D01*
X96706416Y-80165696D01*
X96783796Y-80062331D01*
X96834091Y-79927483D01*
X96840500Y-79867873D01*
X96840499Y-78072128D01*
X96834091Y-78012517D01*
X96827512Y-77994879D01*
X96783797Y-77877671D01*
X96783795Y-77877668D01*
X96706421Y-77774309D01*
X96682004Y-77708848D01*
X96696855Y-77640575D01*
X96706416Y-77625696D01*
X96783796Y-77522331D01*
X96834091Y-77387483D01*
X96840500Y-77327873D01*
X96840499Y-75532128D01*
X96834091Y-75472517D01*
X96783796Y-75337669D01*
X96706421Y-75234309D01*
X96682004Y-75168848D01*
X96696855Y-75100575D01*
X96706416Y-75085696D01*
X96783796Y-74982331D01*
X96834091Y-74847483D01*
X96840500Y-74787873D01*
X96840500Y-74664500D01*
X96860185Y-74597461D01*
X96912989Y-74551706D01*
X96964500Y-74540500D01*
X98706057Y-74540500D01*
X98771869Y-74540500D01*
X98838908Y-74560185D01*
X98884663Y-74612989D01*
X98894071Y-74678419D01*
X98894816Y-74678473D01*
X98894571Y-74681896D01*
X98894606Y-74682144D01*
X98894500Y-74682887D01*
X98894500Y-74682890D01*
X98894500Y-90152015D01*
X98889576Y-90186610D01*
X98852336Y-90314789D01*
X98852334Y-90314802D01*
X98849500Y-90350811D01*
X98849500Y-90849169D01*
X98849501Y-90849191D01*
X98852335Y-90885205D01*
X98889576Y-91013388D01*
X98894500Y-91047983D01*
X98894500Y-98175500D01*
X98874815Y-98242539D01*
X98822011Y-98288294D01*
X98770500Y-98299500D01*
X71802706Y-98299500D01*
X71797297Y-98299382D01*
X71413249Y-98282614D01*
X71402473Y-98281671D01*
X71024042Y-98231849D01*
X71013389Y-98229971D01*
X70640727Y-98147354D01*
X70630278Y-98144554D01*
X70266244Y-98029775D01*
X70256078Y-98026075D01*
X69903427Y-97880002D01*
X69893623Y-97875430D01*
X69555057Y-97699183D01*
X69545689Y-97693775D01*
X69223755Y-97488681D01*
X69214894Y-97482476D01*
X68912069Y-97250110D01*
X68903782Y-97243156D01*
X68622364Y-96985284D01*
X68614715Y-96977635D01*
X68356843Y-96696217D01*
X68349889Y-96687930D01*
X68117523Y-96385105D01*
X68111318Y-96376244D01*
X67906224Y-96054310D01*
X67900816Y-96044942D01*
X67773924Y-95801185D01*
X67724566Y-95706369D01*
X67719997Y-95696572D01*
X67573920Y-95343911D01*
X67570224Y-95333755D01*
X67561605Y-95306418D01*
X67455442Y-94969710D01*
X67452648Y-94959284D01*
X67370025Y-94586597D01*
X67368152Y-94575971D01*
X67318326Y-94197506D01*
X67317386Y-94186771D01*
X67300618Y-93802702D01*
X67300559Y-93800000D01*
X69694592Y-93800000D01*
X69714201Y-94086680D01*
X69772666Y-94368034D01*
X69772667Y-94368037D01*
X69868894Y-94638793D01*
X69868893Y-94638793D01*
X70001098Y-94893935D01*
X70166812Y-95128700D01*
X70251602Y-95219487D01*
X70362947Y-95338708D01*
X70543700Y-95485761D01*
X70585853Y-95520055D01*
X70831382Y-95669365D01*
X71018237Y-95750526D01*
X71094942Y-95783844D01*
X71371642Y-95861371D01*
X71621920Y-95895771D01*
X71656321Y-95900500D01*
X71656322Y-95900500D01*
X71943679Y-95900500D01*
X71974370Y-95896281D01*
X72228358Y-95861371D01*
X72505058Y-95783844D01*
X72683408Y-95706376D01*
X72768617Y-95669365D01*
X72768620Y-95669363D01*
X72768625Y-95669361D01*
X73014147Y-95520055D01*
X73237053Y-95338708D01*
X73433189Y-95128698D01*
X73598901Y-94893936D01*
X73731104Y-94638797D01*
X73827334Y-94368032D01*
X73885798Y-94086686D01*
X73905408Y-93800000D01*
X73885798Y-93513314D01*
X73827334Y-93231968D01*
X73731105Y-92961206D01*
X73731106Y-92961206D01*
X73598901Y-92706064D01*
X73433187Y-92471299D01*
X73348392Y-92380507D01*
X73237053Y-92261292D01*
X73014147Y-92079945D01*
X73014146Y-92079944D01*
X72768617Y-91930634D01*
X72505063Y-91816158D01*
X72505061Y-91816157D01*
X72505058Y-91816156D01*
X72375578Y-91779877D01*
X72228364Y-91738630D01*
X72228359Y-91738629D01*
X72228358Y-91738629D01*
X72086018Y-91719064D01*
X71943679Y-91699500D01*
X71943678Y-91699500D01*
X71656322Y-91699500D01*
X71656321Y-91699500D01*
X71371642Y-91738629D01*
X71371635Y-91738630D01*
X71179986Y-91792328D01*
X71094942Y-91816156D01*
X71094939Y-91816156D01*
X71094936Y-91816158D01*
X71094935Y-91816158D01*
X70831382Y-91930634D01*
X70585853Y-92079944D01*
X70362950Y-92261289D01*
X70166812Y-92471299D01*
X70001098Y-92706064D01*
X69868894Y-92961206D01*
X69772667Y-93231962D01*
X69772666Y-93231965D01*
X69714201Y-93513319D01*
X69694592Y-93800000D01*
X67300559Y-93800000D01*
X67300500Y-93797293D01*
X67300500Y-85692135D01*
X72759500Y-85692135D01*
X72759500Y-87487870D01*
X72759501Y-87487876D01*
X72765908Y-87547483D01*
X72816202Y-87682328D01*
X72816203Y-87682330D01*
X72893578Y-87785689D01*
X72917995Y-87851153D01*
X72903144Y-87919426D01*
X72893578Y-87934311D01*
X72816203Y-88037669D01*
X72816202Y-88037671D01*
X72765908Y-88172517D01*
X72762954Y-88199998D01*
X72759501Y-88232123D01*
X72759500Y-88232135D01*
X72759500Y-90027870D01*
X72759501Y-90027876D01*
X72765908Y-90087483D01*
X72816202Y-90222328D01*
X72816206Y-90222335D01*
X72902452Y-90337544D01*
X72902455Y-90337547D01*
X73017664Y-90423793D01*
X73017671Y-90423797D01*
X73152517Y-90474091D01*
X73152516Y-90474091D01*
X73159444Y-90474835D01*
X73212127Y-90480500D01*
X75845611Y-90480499D01*
X75856419Y-90480971D01*
X75909999Y-90485659D01*
X75910000Y-90485659D01*
X75910001Y-90485659D01*
X75963580Y-90480971D01*
X75974388Y-90480499D01*
X76807871Y-90480499D01*
X76807872Y-90480499D01*
X76867483Y-90474091D01*
X77002331Y-90423796D01*
X77117546Y-90337546D01*
X77203796Y-90222331D01*
X77254091Y-90087483D01*
X77260500Y-90027873D01*
X77260499Y-89194383D01*
X77260971Y-89183576D01*
X77265659Y-89130000D01*
X77265659Y-89129999D01*
X77260971Y-89076421D01*
X77260499Y-89065613D01*
X77260499Y-88899997D01*
X80904341Y-88899997D01*
X80904341Y-88900001D01*
X80909028Y-88953574D01*
X80909500Y-88964381D01*
X80909500Y-91597870D01*
X80909501Y-91597876D01*
X80915908Y-91657483D01*
X80966202Y-91792328D01*
X80966206Y-91792335D01*
X81052452Y-91907544D01*
X81052455Y-91907547D01*
X81167664Y-91993793D01*
X81167671Y-91993797D01*
X81302517Y-92044091D01*
X81302516Y-92044091D01*
X81309444Y-92044835D01*
X81362127Y-92050500D01*
X83157872Y-92050499D01*
X83217483Y-92044091D01*
X83352331Y-91993796D01*
X83467546Y-91907546D01*
X83553796Y-91792331D01*
X83604091Y-91657483D01*
X83610500Y-91597873D01*
X83610499Y-88964381D01*
X83610971Y-88953578D01*
X83615659Y-88900000D01*
X83615659Y-88899999D01*
X83615659Y-88899997D01*
X85984341Y-88899997D01*
X85984341Y-88900001D01*
X85989028Y-88953574D01*
X85989500Y-88964381D01*
X85989500Y-91597870D01*
X85989501Y-91597876D01*
X85995908Y-91657483D01*
X86046202Y-91792328D01*
X86046206Y-91792335D01*
X86132452Y-91907544D01*
X86132455Y-91907547D01*
X86247664Y-91993793D01*
X86247671Y-91993797D01*
X86382517Y-92044091D01*
X86382516Y-92044091D01*
X86389444Y-92044835D01*
X86442127Y-92050500D01*
X88237872Y-92050499D01*
X88297483Y-92044091D01*
X88432331Y-91993796D01*
X88547546Y-91907546D01*
X88633796Y-91792331D01*
X88684091Y-91657483D01*
X88690500Y-91597873D01*
X88690499Y-88964381D01*
X88690971Y-88953578D01*
X88695659Y-88900000D01*
X88695659Y-88899999D01*
X88690971Y-88846418D01*
X88690499Y-88835610D01*
X88690499Y-88002129D01*
X88690498Y-88002123D01*
X88690497Y-88002116D01*
X88684091Y-87942517D01*
X88681030Y-87934311D01*
X88633797Y-87807671D01*
X88633793Y-87807664D01*
X88547547Y-87692455D01*
X88547544Y-87692452D01*
X88432335Y-87606206D01*
X88432328Y-87606202D01*
X88297482Y-87555908D01*
X88297483Y-87555908D01*
X88237883Y-87549501D01*
X88237881Y-87549500D01*
X88237873Y-87549500D01*
X88237865Y-87549500D01*
X87404383Y-87549500D01*
X87393576Y-87549028D01*
X87340002Y-87544341D01*
X87339999Y-87544341D01*
X87304865Y-87547414D01*
X87286421Y-87549028D01*
X87275616Y-87549500D01*
X86442129Y-87549500D01*
X86442123Y-87549501D01*
X86382516Y-87555908D01*
X86247671Y-87606202D01*
X86247664Y-87606206D01*
X86132455Y-87692452D01*
X86132452Y-87692455D01*
X86046206Y-87807664D01*
X86046202Y-87807671D01*
X85995908Y-87942517D01*
X85989501Y-88002116D01*
X85989501Y-88002123D01*
X85989500Y-88002135D01*
X85989500Y-88835618D01*
X85989028Y-88846425D01*
X85984341Y-88899997D01*
X83615659Y-88899997D01*
X83610971Y-88846418D01*
X83610499Y-88835610D01*
X83610499Y-88002129D01*
X83610498Y-88002123D01*
X83610497Y-88002116D01*
X83604091Y-87942517D01*
X83601030Y-87934311D01*
X83553797Y-87807671D01*
X83553793Y-87807664D01*
X83467547Y-87692455D01*
X83467544Y-87692452D01*
X83352335Y-87606206D01*
X83352328Y-87606202D01*
X83217482Y-87555908D01*
X83217483Y-87555908D01*
X83157883Y-87549501D01*
X83157881Y-87549500D01*
X83157873Y-87549500D01*
X83157865Y-87549500D01*
X82324383Y-87549500D01*
X82313576Y-87549028D01*
X82260002Y-87544341D01*
X82259999Y-87544341D01*
X82224865Y-87547414D01*
X82206421Y-87549028D01*
X82195616Y-87549500D01*
X81362129Y-87549500D01*
X81362123Y-87549501D01*
X81302516Y-87555908D01*
X81167671Y-87606202D01*
X81167664Y-87606206D01*
X81052455Y-87692452D01*
X81052452Y-87692455D01*
X80966206Y-87807664D01*
X80966202Y-87807671D01*
X80915908Y-87942517D01*
X80909501Y-88002116D01*
X80909501Y-88002123D01*
X80909500Y-88002135D01*
X80909500Y-88835618D01*
X80909028Y-88846425D01*
X80904341Y-88899997D01*
X77260499Y-88899997D01*
X77260499Y-88232129D01*
X77260498Y-88232123D01*
X77260497Y-88232116D01*
X77254091Y-88172517D01*
X77203796Y-88037669D01*
X77126421Y-87934309D01*
X77102004Y-87868848D01*
X77116855Y-87800575D01*
X77126416Y-87785696D01*
X77203796Y-87682331D01*
X77254091Y-87547483D01*
X77260500Y-87487873D01*
X77260499Y-86654383D01*
X77260971Y-86643576D01*
X77265659Y-86590000D01*
X77265659Y-86589999D01*
X77265659Y-86589997D01*
X92334341Y-86589997D01*
X92334341Y-86590002D01*
X92339028Y-86643576D01*
X92339500Y-86654383D01*
X92339500Y-87487870D01*
X92339501Y-87487876D01*
X92345908Y-87547483D01*
X92396202Y-87682328D01*
X92396203Y-87682330D01*
X92473578Y-87785689D01*
X92497995Y-87851153D01*
X92483144Y-87919426D01*
X92473578Y-87934311D01*
X92396203Y-88037669D01*
X92396202Y-88037671D01*
X92345908Y-88172517D01*
X92342954Y-88199998D01*
X92339501Y-88232123D01*
X92339500Y-88232135D01*
X92339500Y-89065616D01*
X92339028Y-89076423D01*
X92334341Y-89129997D01*
X92334341Y-89130002D01*
X92339028Y-89183576D01*
X92339500Y-89194383D01*
X92339500Y-90027870D01*
X92339501Y-90027876D01*
X92345908Y-90087483D01*
X92396202Y-90222328D01*
X92396206Y-90222335D01*
X92482452Y-90337544D01*
X92482455Y-90337547D01*
X92597664Y-90423793D01*
X92597671Y-90423797D01*
X92732517Y-90474091D01*
X92732516Y-90474091D01*
X92739444Y-90474835D01*
X92792127Y-90480500D01*
X93625616Y-90480499D01*
X93636425Y-90480971D01*
X93690000Y-90485659D01*
X93743575Y-90480971D01*
X93754384Y-90480499D01*
X96387871Y-90480499D01*
X96387872Y-90480499D01*
X96447483Y-90474091D01*
X96582331Y-90423796D01*
X96697546Y-90337546D01*
X96783796Y-90222331D01*
X96834091Y-90087483D01*
X96840500Y-90027873D01*
X96840499Y-88232128D01*
X96834091Y-88172517D01*
X96783796Y-88037669D01*
X96706421Y-87934309D01*
X96682004Y-87868848D01*
X96696855Y-87800575D01*
X96706416Y-87785696D01*
X96783796Y-87682331D01*
X96834091Y-87547483D01*
X96840500Y-87487873D01*
X96840499Y-85692128D01*
X96834091Y-85632517D01*
X96783796Y-85497669D01*
X96783795Y-85497668D01*
X96783793Y-85497664D01*
X96697547Y-85382455D01*
X96697544Y-85382452D01*
X96582335Y-85296206D01*
X96582328Y-85296202D01*
X96447482Y-85245908D01*
X96447483Y-85245908D01*
X96387883Y-85239501D01*
X96387881Y-85239500D01*
X96387873Y-85239500D01*
X96387865Y-85239500D01*
X93754385Y-85239500D01*
X93743578Y-85239028D01*
X93690001Y-85234341D01*
X93689997Y-85234341D01*
X93636419Y-85239028D01*
X93625613Y-85239500D01*
X92792129Y-85239500D01*
X92792123Y-85239501D01*
X92732516Y-85245908D01*
X92597671Y-85296202D01*
X92597664Y-85296206D01*
X92482455Y-85382452D01*
X92482452Y-85382455D01*
X92396206Y-85497664D01*
X92396202Y-85497671D01*
X92345908Y-85632517D01*
X92339501Y-85692116D01*
X92339501Y-85692123D01*
X92339500Y-85692135D01*
X92339500Y-86525616D01*
X92339028Y-86536423D01*
X92334341Y-86589997D01*
X77265659Y-86589997D01*
X77260971Y-86536421D01*
X77260499Y-86525613D01*
X77260499Y-85692129D01*
X77260498Y-85692123D01*
X77260497Y-85692116D01*
X77254091Y-85632517D01*
X77203796Y-85497669D01*
X77203795Y-85497668D01*
X77203793Y-85497664D01*
X77117547Y-85382455D01*
X77117544Y-85382452D01*
X77002335Y-85296206D01*
X77002328Y-85296202D01*
X76867482Y-85245908D01*
X76867483Y-85245908D01*
X76807883Y-85239501D01*
X76807881Y-85239500D01*
X76807873Y-85239500D01*
X76807865Y-85239500D01*
X75974380Y-85239500D01*
X75963573Y-85239028D01*
X75937024Y-85236705D01*
X75910001Y-85234341D01*
X75909998Y-85234341D01*
X75856424Y-85239028D01*
X75845617Y-85239500D01*
X73212129Y-85239500D01*
X73212123Y-85239501D01*
X73152516Y-85245908D01*
X73017671Y-85296202D01*
X73017664Y-85296206D01*
X72902455Y-85382452D01*
X72902452Y-85382455D01*
X72816206Y-85497664D01*
X72816202Y-85497671D01*
X72765908Y-85632517D01*
X72759501Y-85692116D01*
X72759501Y-85692123D01*
X72759500Y-85692135D01*
X67300500Y-85692135D01*
X67300500Y-72992135D01*
X72759500Y-72992135D01*
X72759500Y-74787870D01*
X72759501Y-74787876D01*
X72765908Y-74847483D01*
X72816202Y-74982328D01*
X72816203Y-74982330D01*
X72893578Y-75085689D01*
X72917995Y-75151153D01*
X72903144Y-75219426D01*
X72893578Y-75234311D01*
X72816203Y-75337669D01*
X72816202Y-75337671D01*
X72765908Y-75472517D01*
X72762090Y-75508033D01*
X72759501Y-75532123D01*
X72759500Y-75532135D01*
X72759500Y-77327870D01*
X72759501Y-77327876D01*
X72765908Y-77387483D01*
X72816202Y-77522328D01*
X72816203Y-77522330D01*
X72893578Y-77625689D01*
X72917995Y-77691153D01*
X72903144Y-77759426D01*
X72893578Y-77774311D01*
X72816203Y-77877669D01*
X72816202Y-77877671D01*
X72765908Y-78012517D01*
X72760880Y-78059288D01*
X72759501Y-78072123D01*
X72759500Y-78072135D01*
X72759500Y-79867870D01*
X72759501Y-79867876D01*
X72765908Y-79927483D01*
X72816202Y-80062328D01*
X72816203Y-80062330D01*
X72893578Y-80165689D01*
X72917995Y-80231153D01*
X72903144Y-80299426D01*
X72893578Y-80314311D01*
X72816203Y-80417669D01*
X72816202Y-80417671D01*
X72765908Y-80552517D01*
X72759501Y-80612116D01*
X72759501Y-80612123D01*
X72759500Y-80612135D01*
X72759500Y-82407870D01*
X72759501Y-82407876D01*
X72765908Y-82467483D01*
X72816202Y-82602328D01*
X72816206Y-82602335D01*
X72902452Y-82717544D01*
X72902455Y-82717547D01*
X73017664Y-82803793D01*
X73017671Y-82803797D01*
X73152517Y-82854091D01*
X73152516Y-82854091D01*
X73159444Y-82854835D01*
X73212127Y-82860500D01*
X75845611Y-82860499D01*
X75856419Y-82860971D01*
X75909999Y-82865659D01*
X75910000Y-82865659D01*
X75910001Y-82865659D01*
X75963580Y-82860971D01*
X75974388Y-82860499D01*
X76807871Y-82860499D01*
X76807872Y-82860499D01*
X76867483Y-82854091D01*
X77002331Y-82803796D01*
X77117546Y-82717546D01*
X77203796Y-82602331D01*
X77254091Y-82467483D01*
X77260500Y-82407873D01*
X77260499Y-81574383D01*
X77260971Y-81563576D01*
X77265659Y-81510000D01*
X77265659Y-81509999D01*
X77260971Y-81456421D01*
X77260499Y-81445613D01*
X77260499Y-80612129D01*
X77260498Y-80612123D01*
X77260497Y-80612116D01*
X77254091Y-80552517D01*
X77203796Y-80417669D01*
X77126421Y-80314309D01*
X77102004Y-80248848D01*
X77116855Y-80180575D01*
X77126416Y-80165696D01*
X77203796Y-80062331D01*
X77254091Y-79927483D01*
X77260500Y-79867873D01*
X77260499Y-79034383D01*
X77260971Y-79023576D01*
X77265659Y-78970000D01*
X77265659Y-78969999D01*
X77260971Y-78916421D01*
X77260499Y-78905613D01*
X77260499Y-78072129D01*
X77260498Y-78072123D01*
X77260497Y-78072116D01*
X77254091Y-78012517D01*
X77247512Y-77994879D01*
X77203797Y-77877671D01*
X77203795Y-77877668D01*
X77126421Y-77774309D01*
X77102004Y-77708848D01*
X77116855Y-77640575D01*
X77126416Y-77625696D01*
X77203796Y-77522331D01*
X77254091Y-77387483D01*
X77260500Y-77327873D01*
X77260499Y-76494383D01*
X77260971Y-76483576D01*
X77265659Y-76430000D01*
X77265659Y-76429999D01*
X77260971Y-76376421D01*
X77260499Y-76365613D01*
X77260499Y-75532129D01*
X77260498Y-75532123D01*
X77260497Y-75532116D01*
X77254091Y-75472517D01*
X77203796Y-75337669D01*
X77126421Y-75234309D01*
X77102004Y-75168848D01*
X77116855Y-75100575D01*
X77126416Y-75085696D01*
X77203796Y-74982331D01*
X77254091Y-74847483D01*
X77260500Y-74787873D01*
X77260499Y-73954383D01*
X77260971Y-73943576D01*
X77265659Y-73890000D01*
X77265659Y-73889999D01*
X77260971Y-73836421D01*
X77260499Y-73825613D01*
X77260499Y-72992129D01*
X77260498Y-72992123D01*
X77260497Y-72992116D01*
X77254091Y-72932517D01*
X77249375Y-72919874D01*
X77203797Y-72797671D01*
X77203793Y-72797664D01*
X77117547Y-72682455D01*
X77117544Y-72682452D01*
X77002335Y-72596206D01*
X77002328Y-72596202D01*
X76867482Y-72545908D01*
X76867483Y-72545908D01*
X76807883Y-72539501D01*
X76807881Y-72539500D01*
X76807873Y-72539500D01*
X76807865Y-72539500D01*
X75974380Y-72539500D01*
X75963573Y-72539028D01*
X75937024Y-72536705D01*
X75910001Y-72534341D01*
X75909998Y-72534341D01*
X75856424Y-72539028D01*
X75845617Y-72539500D01*
X73212129Y-72539500D01*
X73212123Y-72539501D01*
X73152516Y-72545908D01*
X73017671Y-72596202D01*
X73017664Y-72596206D01*
X72902455Y-72682452D01*
X72902452Y-72682455D01*
X72816206Y-72797664D01*
X72816202Y-72797671D01*
X72765908Y-72932517D01*
X72762306Y-72966026D01*
X72759501Y-72992123D01*
X72759500Y-72992135D01*
X67300500Y-72992135D01*
X67300500Y-60292135D01*
X72759500Y-60292135D01*
X72759500Y-62087870D01*
X72759501Y-62087876D01*
X72765908Y-62147483D01*
X72816202Y-62282328D01*
X72816203Y-62282330D01*
X72893578Y-62385689D01*
X72917995Y-62451153D01*
X72903144Y-62519426D01*
X72893578Y-62534311D01*
X72816203Y-62637669D01*
X72816202Y-62637671D01*
X72765908Y-62772517D01*
X72759501Y-62832116D01*
X72759501Y-62832123D01*
X72759500Y-62832135D01*
X72759500Y-64627870D01*
X72759501Y-64627876D01*
X72765908Y-64687483D01*
X72816202Y-64822328D01*
X72816203Y-64822330D01*
X72893578Y-64925689D01*
X72917995Y-64991153D01*
X72903144Y-65059426D01*
X72893578Y-65074311D01*
X72816203Y-65177669D01*
X72816202Y-65177671D01*
X72765908Y-65312517D01*
X72759501Y-65372116D01*
X72759501Y-65372123D01*
X72759500Y-65372135D01*
X72759500Y-67167870D01*
X72759501Y-67167876D01*
X72765908Y-67227483D01*
X72816202Y-67362328D01*
X72816203Y-67362330D01*
X72893578Y-67465689D01*
X72917995Y-67531153D01*
X72903144Y-67599426D01*
X72893578Y-67614311D01*
X72816203Y-67717669D01*
X72816202Y-67717671D01*
X72765908Y-67852517D01*
X72759501Y-67912116D01*
X72759501Y-67912123D01*
X72759500Y-67912135D01*
X72759500Y-69707870D01*
X72759501Y-69707876D01*
X72765908Y-69767483D01*
X72816202Y-69902328D01*
X72816206Y-69902335D01*
X72902452Y-70017544D01*
X72902455Y-70017547D01*
X73017664Y-70103793D01*
X73017671Y-70103797D01*
X73152517Y-70154091D01*
X73152516Y-70154091D01*
X73159444Y-70154835D01*
X73212127Y-70160500D01*
X75845611Y-70160499D01*
X75856419Y-70160971D01*
X75909999Y-70165659D01*
X75910000Y-70165659D01*
X75910001Y-70165659D01*
X75963580Y-70160971D01*
X75974388Y-70160499D01*
X76807871Y-70160499D01*
X76807872Y-70160499D01*
X76867483Y-70154091D01*
X77002331Y-70103796D01*
X77117546Y-70017546D01*
X77203796Y-69902331D01*
X77254091Y-69767483D01*
X77260500Y-69707873D01*
X77260499Y-68874383D01*
X77260971Y-68863576D01*
X77265659Y-68810000D01*
X77265659Y-68809999D01*
X77260971Y-68756421D01*
X77260499Y-68745613D01*
X77260499Y-67912129D01*
X77260498Y-67912123D01*
X77260497Y-67912116D01*
X77254091Y-67852517D01*
X77252430Y-67848064D01*
X77203797Y-67717671D01*
X77203795Y-67717668D01*
X77126421Y-67614309D01*
X77102004Y-67548848D01*
X77116855Y-67480575D01*
X77126416Y-67465696D01*
X77203796Y-67362331D01*
X77254091Y-67227483D01*
X77260500Y-67167873D01*
X77260499Y-66334383D01*
X77260971Y-66323576D01*
X77265659Y-66270000D01*
X77265659Y-66269999D01*
X77260971Y-66216421D01*
X77260499Y-66205613D01*
X77260499Y-65372129D01*
X77260498Y-65372123D01*
X77260497Y-65372116D01*
X77254091Y-65312517D01*
X77203796Y-65177669D01*
X77126421Y-65074309D01*
X77102004Y-65008848D01*
X77116855Y-64940575D01*
X77126416Y-64925696D01*
X77203796Y-64822331D01*
X77254091Y-64687483D01*
X77260500Y-64627873D01*
X77260499Y-63794383D01*
X77260971Y-63783576D01*
X77265659Y-63730000D01*
X77265659Y-63729999D01*
X77260971Y-63676421D01*
X77260499Y-63665613D01*
X77260499Y-62832129D01*
X77260498Y-62832123D01*
X77260497Y-62832116D01*
X77254091Y-62772517D01*
X77247549Y-62754978D01*
X77203797Y-62637671D01*
X77203795Y-62637668D01*
X77176379Y-62601045D01*
X77126421Y-62534309D01*
X77102004Y-62468848D01*
X77116855Y-62400575D01*
X77126416Y-62385696D01*
X77203796Y-62282331D01*
X77254091Y-62147483D01*
X77260500Y-62087873D01*
X77260499Y-61254383D01*
X77260971Y-61243576D01*
X77265659Y-61190000D01*
X77265659Y-61189999D01*
X77260971Y-61136421D01*
X77260499Y-61125613D01*
X77260499Y-60292129D01*
X77260498Y-60292123D01*
X77260497Y-60292116D01*
X77254091Y-60232517D01*
X77203796Y-60097669D01*
X77203795Y-60097668D01*
X77203793Y-60097664D01*
X77117547Y-59982455D01*
X77117544Y-59982452D01*
X77002335Y-59896206D01*
X77002328Y-59896202D01*
X76867482Y-59845908D01*
X76867483Y-59845908D01*
X76807883Y-59839501D01*
X76807881Y-59839500D01*
X76807873Y-59839500D01*
X76807865Y-59839500D01*
X75974380Y-59839500D01*
X75963573Y-59839028D01*
X75937024Y-59836705D01*
X75910001Y-59834341D01*
X75909998Y-59834341D01*
X75856424Y-59839028D01*
X75845617Y-59839500D01*
X73212129Y-59839500D01*
X73212123Y-59839501D01*
X73152516Y-59845908D01*
X73017671Y-59896202D01*
X73017664Y-59896206D01*
X72902455Y-59982452D01*
X72902452Y-59982455D01*
X72816206Y-60097664D01*
X72816202Y-60097671D01*
X72765908Y-60232517D01*
X72759501Y-60292116D01*
X72759501Y-60292123D01*
X72759500Y-60292135D01*
X67300500Y-60292135D01*
X67300500Y-47592135D01*
X72759500Y-47592135D01*
X72759500Y-49387870D01*
X72759501Y-49387876D01*
X72765908Y-49447483D01*
X72816202Y-49582328D01*
X72816203Y-49582330D01*
X72893578Y-49685689D01*
X72917995Y-49751153D01*
X72903144Y-49819426D01*
X72893578Y-49834311D01*
X72816203Y-49937669D01*
X72816202Y-49937671D01*
X72765908Y-50072517D01*
X72760087Y-50126666D01*
X72759501Y-50132123D01*
X72759500Y-50132135D01*
X72759500Y-51927870D01*
X72759501Y-51927876D01*
X72765908Y-51987483D01*
X72816202Y-52122328D01*
X72816203Y-52122330D01*
X72893578Y-52225689D01*
X72917995Y-52291153D01*
X72903144Y-52359426D01*
X72893578Y-52374311D01*
X72816203Y-52477669D01*
X72816202Y-52477671D01*
X72765908Y-52612517D01*
X72761006Y-52658119D01*
X72759501Y-52672123D01*
X72759500Y-52672135D01*
X72759500Y-54467870D01*
X72759501Y-54467876D01*
X72765908Y-54527483D01*
X72816202Y-54662328D01*
X72816203Y-54662330D01*
X72893578Y-54765689D01*
X72917995Y-54831153D01*
X72903144Y-54899426D01*
X72893578Y-54914311D01*
X72816203Y-55017669D01*
X72816202Y-55017671D01*
X72765908Y-55152517D01*
X72759501Y-55212116D01*
X72759501Y-55212123D01*
X72759500Y-55212135D01*
X72759500Y-57007870D01*
X72759501Y-57007876D01*
X72765908Y-57067483D01*
X72816202Y-57202328D01*
X72816206Y-57202335D01*
X72902452Y-57317544D01*
X72902455Y-57317547D01*
X73017664Y-57403793D01*
X73017671Y-57403797D01*
X73152517Y-57454091D01*
X73152516Y-57454091D01*
X73154563Y-57454311D01*
X73212127Y-57460500D01*
X75845611Y-57460499D01*
X75856419Y-57460971D01*
X75909999Y-57465659D01*
X75910000Y-57465659D01*
X75910001Y-57465659D01*
X75963580Y-57460971D01*
X75974388Y-57460499D01*
X76807871Y-57460499D01*
X76807872Y-57460499D01*
X76867483Y-57454091D01*
X77002331Y-57403796D01*
X77117546Y-57317546D01*
X77203796Y-57202331D01*
X77254091Y-57067483D01*
X77260500Y-57007873D01*
X77260499Y-56174383D01*
X77260971Y-56163576D01*
X77265659Y-56110000D01*
X77265659Y-56109999D01*
X77260971Y-56056421D01*
X77260499Y-56045613D01*
X77260499Y-55212129D01*
X77260498Y-55212123D01*
X77260497Y-55212116D01*
X77254091Y-55152517D01*
X77203796Y-55017669D01*
X77126421Y-54914309D01*
X77102004Y-54848848D01*
X77116855Y-54780575D01*
X77126416Y-54765696D01*
X77203796Y-54662331D01*
X77254091Y-54527483D01*
X77260500Y-54467873D01*
X77260499Y-53634383D01*
X77260971Y-53623576D01*
X77265659Y-53570000D01*
X77265659Y-53569999D01*
X77260971Y-53516421D01*
X77260499Y-53505613D01*
X77260499Y-52672129D01*
X77260498Y-52672123D01*
X77260497Y-52672116D01*
X77254091Y-52612517D01*
X77245257Y-52588833D01*
X77203797Y-52477671D01*
X77203795Y-52477668D01*
X77126421Y-52374309D01*
X77102004Y-52308848D01*
X77116855Y-52240575D01*
X77126416Y-52225696D01*
X77203796Y-52122331D01*
X77254091Y-51987483D01*
X77260500Y-51927873D01*
X77260499Y-51094383D01*
X77260971Y-51083576D01*
X77265659Y-51030000D01*
X77265659Y-51029999D01*
X77260971Y-50976421D01*
X77260499Y-50965613D01*
X77260499Y-50132129D01*
X77260498Y-50132123D01*
X77260497Y-50132116D01*
X77254091Y-50072517D01*
X77245257Y-50048833D01*
X77203797Y-49937671D01*
X77203795Y-49937668D01*
X77182910Y-49909769D01*
X77126421Y-49834309D01*
X77102004Y-49768848D01*
X77116855Y-49700575D01*
X77126416Y-49685696D01*
X77203796Y-49582331D01*
X77254091Y-49447483D01*
X77260500Y-49387873D01*
X77260499Y-48554383D01*
X77260971Y-48543576D01*
X77265659Y-48490000D01*
X77265659Y-48489999D01*
X77260971Y-48436421D01*
X77260499Y-48425613D01*
X77260499Y-47592129D01*
X77260498Y-47592123D01*
X77260497Y-47592116D01*
X77254091Y-47532517D01*
X77244345Y-47506387D01*
X77203797Y-47397671D01*
X77203793Y-47397664D01*
X77117547Y-47282455D01*
X77117544Y-47282452D01*
X77002335Y-47196206D01*
X77002328Y-47196202D01*
X76867482Y-47145908D01*
X76867483Y-47145908D01*
X76807883Y-47139501D01*
X76807881Y-47139500D01*
X76807873Y-47139500D01*
X76807865Y-47139500D01*
X75974380Y-47139500D01*
X75963573Y-47139028D01*
X75937024Y-47136705D01*
X75910001Y-47134341D01*
X75909998Y-47134341D01*
X75856424Y-47139028D01*
X75845617Y-47139500D01*
X73212129Y-47139500D01*
X73212123Y-47139501D01*
X73152516Y-47145908D01*
X73017671Y-47196202D01*
X73017664Y-47196206D01*
X72902455Y-47282452D01*
X72902452Y-47282455D01*
X72816206Y-47397664D01*
X72816202Y-47397671D01*
X72765908Y-47532517D01*
X72759501Y-47592116D01*
X72759501Y-47592123D01*
X72759500Y-47592135D01*
X67300500Y-47592135D01*
X67300500Y-39972135D01*
X72759500Y-39972135D01*
X72759500Y-41767870D01*
X72759501Y-41767876D01*
X72765908Y-41827483D01*
X72816202Y-41962328D01*
X72816203Y-41962330D01*
X72893578Y-42065689D01*
X72917995Y-42131153D01*
X72903144Y-42199426D01*
X72893578Y-42214311D01*
X72816203Y-42317669D01*
X72816202Y-42317671D01*
X72765908Y-42452517D01*
X72759501Y-42512116D01*
X72759501Y-42512123D01*
X72759500Y-42512135D01*
X72759500Y-44307870D01*
X72759501Y-44307876D01*
X72765908Y-44367483D01*
X72816202Y-44502328D01*
X72816206Y-44502335D01*
X72902452Y-44617544D01*
X72902455Y-44617547D01*
X73017664Y-44703793D01*
X73017671Y-44703797D01*
X73152517Y-44754091D01*
X73152516Y-44754091D01*
X73159444Y-44754835D01*
X73212127Y-44760500D01*
X75845611Y-44760499D01*
X75856419Y-44760971D01*
X75909999Y-44765659D01*
X75910000Y-44765659D01*
X75910001Y-44765659D01*
X75963580Y-44760971D01*
X75974388Y-44760499D01*
X76807871Y-44760499D01*
X76807872Y-44760499D01*
X76867483Y-44754091D01*
X77002331Y-44703796D01*
X77117546Y-44617546D01*
X77203796Y-44502331D01*
X77254091Y-44367483D01*
X77260500Y-44307873D01*
X77260500Y-44030000D01*
X81119723Y-44030000D01*
X81138532Y-44244999D01*
X81138793Y-44247975D01*
X81138793Y-44247979D01*
X81195422Y-44459322D01*
X81195424Y-44459326D01*
X81195425Y-44459330D01*
X81230477Y-44534500D01*
X81287897Y-44657638D01*
X81287898Y-44657639D01*
X81413402Y-44836877D01*
X81568123Y-44991598D01*
X81747361Y-45117102D01*
X81945670Y-45209575D01*
X82157023Y-45266207D01*
X82339926Y-45282208D01*
X82374998Y-45285277D01*
X82375000Y-45285277D01*
X82375002Y-45285277D01*
X82403254Y-45282805D01*
X82592977Y-45266207D01*
X82804330Y-45209575D01*
X83002639Y-45117102D01*
X83181877Y-44991598D01*
X83336598Y-44836877D01*
X83462102Y-44657639D01*
X83554575Y-44459330D01*
X83611207Y-44247977D01*
X83630277Y-44030000D01*
X85969723Y-44030000D01*
X85988532Y-44244999D01*
X85988793Y-44247975D01*
X85988793Y-44247979D01*
X86045422Y-44459322D01*
X86045424Y-44459326D01*
X86045425Y-44459330D01*
X86080477Y-44534500D01*
X86137897Y-44657638D01*
X86137898Y-44657639D01*
X86263402Y-44836877D01*
X86418123Y-44991598D01*
X86597361Y-45117102D01*
X86795670Y-45209575D01*
X87007023Y-45266207D01*
X87189926Y-45282208D01*
X87224998Y-45285277D01*
X87225000Y-45285277D01*
X87225002Y-45285277D01*
X87253254Y-45282805D01*
X87442977Y-45266207D01*
X87654330Y-45209575D01*
X87852639Y-45117102D01*
X88031877Y-44991598D01*
X88186598Y-44836877D01*
X88312102Y-44657639D01*
X88404575Y-44459330D01*
X88461207Y-44247977D01*
X88480277Y-44030000D01*
X88461207Y-43812023D01*
X88404575Y-43600670D01*
X88312102Y-43402362D01*
X88312100Y-43402359D01*
X88312099Y-43402357D01*
X88186599Y-43223124D01*
X88131501Y-43168026D01*
X88031877Y-43068402D01*
X87852639Y-42942898D01*
X87852640Y-42942898D01*
X87852638Y-42942897D01*
X87716338Y-42879340D01*
X87654330Y-42850425D01*
X87654326Y-42850424D01*
X87654322Y-42850422D01*
X87442977Y-42793793D01*
X87225002Y-42774723D01*
X87224998Y-42774723D01*
X87079682Y-42787436D01*
X87007023Y-42793793D01*
X87007020Y-42793793D01*
X86795677Y-42850422D01*
X86795668Y-42850426D01*
X86597361Y-42942898D01*
X86597357Y-42942900D01*
X86418121Y-43068402D01*
X86263402Y-43223121D01*
X86137900Y-43402357D01*
X86137898Y-43402361D01*
X86045426Y-43600668D01*
X86045422Y-43600677D01*
X85988793Y-43812020D01*
X85988793Y-43812023D01*
X85969723Y-44030000D01*
X83630277Y-44030000D01*
X83611207Y-43812023D01*
X83554575Y-43600670D01*
X83462102Y-43402362D01*
X83462100Y-43402359D01*
X83462099Y-43402357D01*
X83336599Y-43223124D01*
X83281501Y-43168026D01*
X83181877Y-43068402D01*
X83002639Y-42942898D01*
X83002640Y-42942898D01*
X83002638Y-42942897D01*
X82866338Y-42879340D01*
X82804330Y-42850425D01*
X82804326Y-42850424D01*
X82804322Y-42850422D01*
X82592977Y-42793793D01*
X82375002Y-42774723D01*
X82374998Y-42774723D01*
X82229682Y-42787436D01*
X82157023Y-42793793D01*
X82157020Y-42793793D01*
X81945677Y-42850422D01*
X81945668Y-42850426D01*
X81747361Y-42942898D01*
X81747357Y-42942900D01*
X81568121Y-43068402D01*
X81413402Y-43223121D01*
X81287900Y-43402357D01*
X81287898Y-43402361D01*
X81195426Y-43600668D01*
X81195422Y-43600677D01*
X81138793Y-43812020D01*
X81138793Y-43812023D01*
X81119723Y-44030000D01*
X77260500Y-44030000D01*
X77260499Y-43474383D01*
X77260971Y-43463576D01*
X77265659Y-43410000D01*
X77265659Y-43409999D01*
X77260971Y-43356421D01*
X77260499Y-43345613D01*
X77260499Y-42512129D01*
X77260498Y-42512123D01*
X77260497Y-42512116D01*
X77254091Y-42452517D01*
X77249734Y-42440836D01*
X77203797Y-42317671D01*
X77203795Y-42317668D01*
X77198024Y-42309959D01*
X77126421Y-42214309D01*
X77102004Y-42148848D01*
X77116855Y-42080575D01*
X77126416Y-42065696D01*
X77203796Y-41962331D01*
X77254091Y-41827483D01*
X77260500Y-41767873D01*
X77260499Y-40999993D01*
X80669700Y-40999993D01*
X80669700Y-41000006D01*
X80688864Y-41231297D01*
X80688866Y-41231308D01*
X80745842Y-41456300D01*
X80839075Y-41668848D01*
X80966016Y-41863147D01*
X80966019Y-41863151D01*
X80966021Y-41863153D01*
X81123216Y-42033913D01*
X81123219Y-42033915D01*
X81123222Y-42033918D01*
X81306365Y-42176464D01*
X81306371Y-42176468D01*
X81306374Y-42176470D01*
X81376298Y-42214311D01*
X81507843Y-42285500D01*
X81510497Y-42286936D01*
X81600019Y-42317669D01*
X81730015Y-42362297D01*
X81730017Y-42362297D01*
X81730019Y-42362298D01*
X81958951Y-42400500D01*
X81958952Y-42400500D01*
X82191048Y-42400500D01*
X82191049Y-42400500D01*
X82419981Y-42362298D01*
X82639503Y-42286936D01*
X82843626Y-42176470D01*
X83026784Y-42033913D01*
X83183979Y-41863153D01*
X83310924Y-41668849D01*
X83404157Y-41456300D01*
X83461134Y-41231305D01*
X83480300Y-41000000D01*
X83480300Y-40999993D01*
X86119700Y-40999993D01*
X86119700Y-41000006D01*
X86138864Y-41231297D01*
X86138866Y-41231308D01*
X86195842Y-41456300D01*
X86289075Y-41668848D01*
X86416016Y-41863147D01*
X86416019Y-41863151D01*
X86416021Y-41863153D01*
X86573216Y-42033913D01*
X86573219Y-42033915D01*
X86573222Y-42033918D01*
X86756365Y-42176464D01*
X86756371Y-42176468D01*
X86756374Y-42176470D01*
X86826298Y-42214311D01*
X86957843Y-42285500D01*
X86960497Y-42286936D01*
X87050019Y-42317669D01*
X87180015Y-42362297D01*
X87180017Y-42362297D01*
X87180019Y-42362298D01*
X87408951Y-42400500D01*
X87408952Y-42400500D01*
X87641048Y-42400500D01*
X87641049Y-42400500D01*
X87869981Y-42362298D01*
X88089503Y-42286936D01*
X88293626Y-42176470D01*
X88476784Y-42033913D01*
X88633979Y-41863153D01*
X88760924Y-41668849D01*
X88854157Y-41456300D01*
X88911134Y-41231305D01*
X88930300Y-41000000D01*
X88930300Y-40999993D01*
X88911135Y-40768702D01*
X88911133Y-40768691D01*
X88854157Y-40543699D01*
X88760924Y-40331151D01*
X88633983Y-40136852D01*
X88633980Y-40136849D01*
X88633979Y-40136847D01*
X88476784Y-39966087D01*
X88476779Y-39966083D01*
X88476777Y-39966081D01*
X88293634Y-39823535D01*
X88293628Y-39823531D01*
X88089504Y-39713064D01*
X88089495Y-39713061D01*
X87869984Y-39637702D01*
X87698282Y-39609050D01*
X87641049Y-39599500D01*
X87408951Y-39599500D01*
X87363164Y-39607140D01*
X87180015Y-39637702D01*
X86960504Y-39713061D01*
X86960495Y-39713064D01*
X86756371Y-39823531D01*
X86756365Y-39823535D01*
X86573222Y-39966081D01*
X86573219Y-39966084D01*
X86573216Y-39966086D01*
X86573216Y-39966087D01*
X86514267Y-40030122D01*
X86416016Y-40136852D01*
X86289075Y-40331151D01*
X86195842Y-40543699D01*
X86138866Y-40768691D01*
X86138864Y-40768702D01*
X86119700Y-40999993D01*
X83480300Y-40999993D01*
X83461135Y-40768702D01*
X83461133Y-40768691D01*
X83404157Y-40543699D01*
X83310924Y-40331151D01*
X83183983Y-40136852D01*
X83183980Y-40136849D01*
X83183979Y-40136847D01*
X83026784Y-39966087D01*
X83026779Y-39966083D01*
X83026777Y-39966081D01*
X82843634Y-39823535D01*
X82843628Y-39823531D01*
X82639504Y-39713064D01*
X82639495Y-39713061D01*
X82419984Y-39637702D01*
X82248282Y-39609050D01*
X82191049Y-39599500D01*
X81958951Y-39599500D01*
X81913164Y-39607140D01*
X81730015Y-39637702D01*
X81510504Y-39713061D01*
X81510495Y-39713064D01*
X81306371Y-39823531D01*
X81306365Y-39823535D01*
X81123222Y-39966081D01*
X81123219Y-39966084D01*
X81123216Y-39966086D01*
X81123216Y-39966087D01*
X81064267Y-40030122D01*
X80966016Y-40136852D01*
X80839075Y-40331151D01*
X80745842Y-40543699D01*
X80688866Y-40768691D01*
X80688864Y-40768702D01*
X80669700Y-40999993D01*
X77260499Y-40999993D01*
X77260499Y-40934383D01*
X77260971Y-40923576D01*
X77265659Y-40870000D01*
X77265659Y-40869999D01*
X77260971Y-40816421D01*
X77260499Y-40805613D01*
X77260499Y-39972129D01*
X77260498Y-39972123D01*
X77260497Y-39972116D01*
X77254091Y-39912517D01*
X77220901Y-39823531D01*
X77203797Y-39777671D01*
X77203793Y-39777664D01*
X77117547Y-39662455D01*
X77117544Y-39662452D01*
X77002335Y-39576206D01*
X77002328Y-39576202D01*
X76867482Y-39525908D01*
X76867483Y-39525908D01*
X76807883Y-39519501D01*
X76807881Y-39519500D01*
X76807873Y-39519500D01*
X76807865Y-39519500D01*
X75974380Y-39519500D01*
X75963573Y-39519028D01*
X75937024Y-39516705D01*
X75910001Y-39514341D01*
X75909998Y-39514341D01*
X75856424Y-39519028D01*
X75845617Y-39519500D01*
X73212129Y-39519500D01*
X73212123Y-39519501D01*
X73152516Y-39525908D01*
X73017671Y-39576202D01*
X73017664Y-39576206D01*
X72902455Y-39662452D01*
X72902452Y-39662455D01*
X72816206Y-39777664D01*
X72816202Y-39777671D01*
X72765908Y-39912517D01*
X72760149Y-39966087D01*
X72759501Y-39972123D01*
X72759500Y-39972135D01*
X67300500Y-39972135D01*
X67300500Y-36802705D01*
X67300559Y-36800000D01*
X69694592Y-36800000D01*
X69714201Y-37086680D01*
X69772666Y-37368034D01*
X69772667Y-37368037D01*
X69868894Y-37638793D01*
X69868893Y-37638793D01*
X70001098Y-37893935D01*
X70166812Y-38128700D01*
X70203609Y-38168099D01*
X70362947Y-38338708D01*
X70585853Y-38520055D01*
X70806516Y-38654244D01*
X70831382Y-38669365D01*
X71002033Y-38743488D01*
X71094942Y-38783844D01*
X71371642Y-38861371D01*
X71615820Y-38894933D01*
X71656321Y-38900500D01*
X71656322Y-38900500D01*
X71943679Y-38900500D01*
X71984180Y-38894933D01*
X72228358Y-38861371D01*
X72505058Y-38783844D01*
X72691194Y-38702994D01*
X72768617Y-38669365D01*
X72768620Y-38669363D01*
X72768625Y-38669361D01*
X73014147Y-38520055D01*
X73237053Y-38338708D01*
X73433189Y-38128698D01*
X73598901Y-37893936D01*
X73731104Y-37638797D01*
X73827334Y-37368032D01*
X73885798Y-37086686D01*
X73905408Y-36800000D01*
X73885798Y-36513314D01*
X73827334Y-36231968D01*
X73814908Y-36197006D01*
X73731105Y-35961206D01*
X73731106Y-35961206D01*
X73598901Y-35706064D01*
X73433187Y-35471299D01*
X73348392Y-35380507D01*
X73237053Y-35261292D01*
X73014147Y-35079945D01*
X73014146Y-35079944D01*
X72768617Y-34930634D01*
X72505063Y-34816158D01*
X72505061Y-34816157D01*
X72505058Y-34816156D01*
X72375578Y-34779877D01*
X72228364Y-34738630D01*
X72228359Y-34738629D01*
X72228358Y-34738629D01*
X72086018Y-34719064D01*
X71943679Y-34699500D01*
X71943678Y-34699500D01*
X71656322Y-34699500D01*
X71656321Y-34699500D01*
X71371642Y-34738629D01*
X71371635Y-34738630D01*
X71163861Y-34796845D01*
X71094942Y-34816156D01*
X71094939Y-34816156D01*
X71094936Y-34816158D01*
X71094935Y-34816158D01*
X70831382Y-34930634D01*
X70585853Y-35079944D01*
X70362950Y-35261289D01*
X70166812Y-35471299D01*
X70001098Y-35706064D01*
X69868894Y-35961206D01*
X69772667Y-36231962D01*
X69772666Y-36231965D01*
X69714201Y-36513319D01*
X69694592Y-36800000D01*
X67300559Y-36800000D01*
X67300618Y-36797296D01*
X67303377Y-36734108D01*
X67317386Y-36413226D01*
X67318326Y-36402495D01*
X67368152Y-36024025D01*
X67370025Y-36013405D01*
X67452649Y-35640709D01*
X67455440Y-35630295D01*
X67570230Y-35266227D01*
X67573917Y-35256095D01*
X67720003Y-34903412D01*
X67724561Y-34893638D01*
X67900822Y-34555045D01*
X67906217Y-34545700D01*
X68111325Y-34223744D01*
X68117515Y-34214905D01*
X68349896Y-33912060D01*
X68356834Y-33903791D01*
X68614726Y-33622352D01*
X68622352Y-33614726D01*
X68903791Y-33356834D01*
X68912060Y-33349896D01*
X69214905Y-33117515D01*
X69223744Y-33111325D01*
X69545700Y-32906217D01*
X69555045Y-32900822D01*
X69893638Y-32724561D01*
X69903412Y-32720003D01*
X70256095Y-32573917D01*
X70266227Y-32570230D01*
X70630295Y-32455440D01*
X70640709Y-32452649D01*
X71013405Y-32370025D01*
X71024025Y-32368152D01*
X71402495Y-32318326D01*
X71413226Y-32317386D01*
X71797297Y-32300617D01*
X71802706Y-32300500D01*
X71865892Y-32300500D01*
X98678114Y-32300500D01*
X98745153Y-32320185D01*
G37*
%TD.AperFunction*%
%TD*%
%TA.AperFunction,Conductor*%
%TO.N,GNDPWR*%
G36*
X124802702Y-32300617D02*
G01*
X125186771Y-32317386D01*
X125197506Y-32318326D01*
X125575971Y-32368152D01*
X125586597Y-32370025D01*
X125959284Y-32452648D01*
X125969710Y-32455442D01*
X126333765Y-32570227D01*
X126343911Y-32573920D01*
X126696578Y-32720000D01*
X126706369Y-32724566D01*
X127044942Y-32900816D01*
X127054310Y-32906224D01*
X127376244Y-33111318D01*
X127385105Y-33117523D01*
X127687930Y-33349889D01*
X127696217Y-33356843D01*
X127977635Y-33614715D01*
X127985284Y-33622364D01*
X128243156Y-33903782D01*
X128250110Y-33912069D01*
X128482476Y-34214894D01*
X128488681Y-34223755D01*
X128693775Y-34545689D01*
X128699183Y-34555057D01*
X128875430Y-34893623D01*
X128880002Y-34903427D01*
X129026075Y-35256078D01*
X129029775Y-35266244D01*
X129144554Y-35630278D01*
X129147354Y-35640727D01*
X129229971Y-36013389D01*
X129231849Y-36024042D01*
X129281671Y-36402473D01*
X129282614Y-36413249D01*
X129299382Y-36797297D01*
X129299500Y-36802706D01*
X129299500Y-93797293D01*
X129299382Y-93802702D01*
X129282614Y-94186750D01*
X129281671Y-94197526D01*
X129231849Y-94575957D01*
X129229971Y-94586610D01*
X129147354Y-94959272D01*
X129144554Y-94969721D01*
X129029775Y-95333755D01*
X129026075Y-95343921D01*
X128880002Y-95696572D01*
X128875430Y-95706376D01*
X128699183Y-96044942D01*
X128693775Y-96054310D01*
X128488681Y-96376244D01*
X128482476Y-96385105D01*
X128250110Y-96687930D01*
X128243156Y-96696217D01*
X127985284Y-96977635D01*
X127977635Y-96985284D01*
X127696217Y-97243156D01*
X127687930Y-97250110D01*
X127385105Y-97482476D01*
X127376244Y-97488681D01*
X127054310Y-97693775D01*
X127044942Y-97699183D01*
X126706376Y-97875430D01*
X126696572Y-97880002D01*
X126343921Y-98026075D01*
X126333755Y-98029775D01*
X125969721Y-98144554D01*
X125959272Y-98147354D01*
X125586610Y-98229971D01*
X125575957Y-98231849D01*
X125197526Y-98281671D01*
X125186750Y-98282614D01*
X124802703Y-98299382D01*
X124797294Y-98299500D01*
X99524000Y-98299500D01*
X99456961Y-98279815D01*
X99411206Y-98227011D01*
X99400000Y-98175500D01*
X99400000Y-93800000D01*
X122694592Y-93800000D01*
X122714201Y-94086680D01*
X122772666Y-94368034D01*
X122772667Y-94368037D01*
X122868894Y-94638793D01*
X122868893Y-94638793D01*
X123001098Y-94893935D01*
X123166812Y-95128700D01*
X123251923Y-95219831D01*
X123362947Y-95338708D01*
X123585853Y-95520055D01*
X123831382Y-95669365D01*
X124018237Y-95750526D01*
X124094942Y-95783844D01*
X124371642Y-95861371D01*
X124621920Y-95895771D01*
X124656321Y-95900500D01*
X124656322Y-95900500D01*
X124943679Y-95900500D01*
X124974370Y-95896281D01*
X125228358Y-95861371D01*
X125505058Y-95783844D01*
X125683408Y-95706376D01*
X125768617Y-95669365D01*
X125768620Y-95669363D01*
X125768625Y-95669361D01*
X126014147Y-95520055D01*
X126237053Y-95338708D01*
X126433189Y-95128698D01*
X126598901Y-94893936D01*
X126731104Y-94638797D01*
X126827334Y-94368032D01*
X126885798Y-94086686D01*
X126905408Y-93800000D01*
X126885798Y-93513314D01*
X126827334Y-93231968D01*
X126731105Y-92961206D01*
X126731106Y-92961206D01*
X126598901Y-92706064D01*
X126433187Y-92471299D01*
X126354554Y-92387105D01*
X126237053Y-92261292D01*
X126014147Y-92079945D01*
X126014146Y-92079944D01*
X125768617Y-91930634D01*
X125505063Y-91816158D01*
X125505061Y-91816157D01*
X125505058Y-91816156D01*
X125375578Y-91779877D01*
X125228364Y-91738630D01*
X125228359Y-91738629D01*
X125228358Y-91738629D01*
X125086018Y-91719064D01*
X124943679Y-91699500D01*
X124943678Y-91699500D01*
X124656322Y-91699500D01*
X124656321Y-91699500D01*
X124371642Y-91738629D01*
X124371635Y-91738630D01*
X124163861Y-91796845D01*
X124094942Y-91816156D01*
X124094939Y-91816156D01*
X124094936Y-91816158D01*
X124094935Y-91816158D01*
X123831382Y-91930634D01*
X123585853Y-92079944D01*
X123362950Y-92261289D01*
X123166812Y-92471299D01*
X123001098Y-92706064D01*
X122868894Y-92961206D01*
X122772667Y-93231962D01*
X122772666Y-93231965D01*
X122714201Y-93513319D01*
X122694592Y-93800000D01*
X99400000Y-93800000D01*
X99400000Y-91503917D01*
X112284500Y-91503917D01*
X112284500Y-91696082D01*
X112321986Y-91884535D01*
X112321989Y-91884547D01*
X112395520Y-92062068D01*
X112395521Y-92062070D01*
X112502279Y-92221844D01*
X112502282Y-92221848D01*
X112638151Y-92357717D01*
X112638155Y-92357720D01*
X112797927Y-92464477D01*
X112797928Y-92464477D01*
X112797929Y-92464478D01*
X112797931Y-92464479D01*
X112975452Y-92538010D01*
X112975457Y-92538012D01*
X113163917Y-92575499D01*
X113163920Y-92575500D01*
X113163922Y-92575500D01*
X113356080Y-92575500D01*
X113356081Y-92575499D01*
X113544543Y-92538012D01*
X113722073Y-92464477D01*
X113881845Y-92357720D01*
X114017720Y-92221845D01*
X114124477Y-92062073D01*
X114198012Y-91884543D01*
X114235500Y-91696078D01*
X114235500Y-91503922D01*
X114235500Y-91503919D01*
X114235499Y-91503917D01*
X114198013Y-91315464D01*
X114198012Y-91315457D01*
X114124477Y-91137927D01*
X114017720Y-90978155D01*
X114017717Y-90978151D01*
X113881848Y-90842282D01*
X113881844Y-90842279D01*
X113722070Y-90735521D01*
X113722068Y-90735520D01*
X113544547Y-90661989D01*
X113544535Y-90661986D01*
X113356081Y-90624500D01*
X113356078Y-90624500D01*
X113163922Y-90624500D01*
X113163919Y-90624500D01*
X112975464Y-90661986D01*
X112975452Y-90661989D01*
X112797931Y-90735520D01*
X112797929Y-90735521D01*
X112638155Y-90842279D01*
X112638151Y-90842282D01*
X112502282Y-90978151D01*
X112502279Y-90978155D01*
X112395521Y-91137929D01*
X112395520Y-91137931D01*
X112321989Y-91315452D01*
X112321986Y-91315464D01*
X112284500Y-91503917D01*
X99400000Y-91503917D01*
X99400000Y-74682887D01*
X99419685Y-74615848D01*
X99472489Y-74570093D01*
X99541647Y-74560149D01*
X99564953Y-74565845D01*
X99620745Y-74585368D01*
X99620751Y-74585368D01*
X99620753Y-74585369D01*
X99799996Y-74605565D01*
X99800000Y-74605565D01*
X99800004Y-74605565D01*
X99979249Y-74585369D01*
X99979252Y-74585368D01*
X99979255Y-74585368D01*
X100149522Y-74525789D01*
X100302262Y-74429816D01*
X100429816Y-74302262D01*
X100525789Y-74149522D01*
X100585368Y-73979255D01*
X100594273Y-73900220D01*
X100605565Y-73800003D01*
X100605565Y-73799996D01*
X100585369Y-73620750D01*
X100585368Y-73620745D01*
X100540490Y-73492492D01*
X100525789Y-73450478D01*
X100487601Y-73389703D01*
X100431574Y-73300536D01*
X100429816Y-73297738D01*
X100302262Y-73170184D01*
X100246775Y-73135319D01*
X100149523Y-73074211D01*
X99979254Y-73014631D01*
X99979249Y-73014630D01*
X99800004Y-72994435D01*
X99799996Y-72994435D01*
X99620750Y-73014630D01*
X99620739Y-73014633D01*
X99564953Y-73034153D01*
X99495174Y-73037714D01*
X99434548Y-73002984D01*
X99402321Y-72940991D01*
X99400000Y-72917111D01*
X99400000Y-69692887D01*
X99419685Y-69625848D01*
X99472489Y-69580093D01*
X99541647Y-69570149D01*
X99564948Y-69575843D01*
X99620745Y-69595368D01*
X99620748Y-69595368D01*
X99620750Y-69595369D01*
X99799996Y-69615565D01*
X99800000Y-69615565D01*
X99800004Y-69615565D01*
X99979249Y-69595369D01*
X99979252Y-69595368D01*
X99979255Y-69595368D01*
X100149522Y-69535789D01*
X100302262Y-69439816D01*
X100429816Y-69312262D01*
X100525789Y-69159522D01*
X100585368Y-68989255D01*
X100585369Y-68989249D01*
X100605565Y-68810003D01*
X100605565Y-68809996D01*
X100585369Y-68630750D01*
X100585368Y-68630745D01*
X100546195Y-68518796D01*
X100525789Y-68460478D01*
X100524234Y-68458004D01*
X100435846Y-68317335D01*
X100429816Y-68307738D01*
X100302262Y-68180184D01*
X100291550Y-68173453D01*
X100149523Y-68084211D01*
X99979254Y-68024631D01*
X99979249Y-68024630D01*
X99800004Y-68004435D01*
X99799996Y-68004435D01*
X99620750Y-68024630D01*
X99620739Y-68024633D01*
X99564953Y-68044153D01*
X99495174Y-68047714D01*
X99434548Y-68012984D01*
X99402321Y-67950991D01*
X99400000Y-67927111D01*
X99400000Y-63772861D01*
X99419685Y-63705822D01*
X99472489Y-63660067D01*
X99541647Y-63650123D01*
X99605203Y-63679148D01*
X99611681Y-63685180D01*
X102903181Y-66976680D01*
X102936666Y-67038003D01*
X102939500Y-67064361D01*
X102939500Y-86509736D01*
X102919815Y-86576775D01*
X102874929Y-86618567D01*
X102836985Y-86639286D01*
X102625092Y-86797906D01*
X102625074Y-86797922D01*
X102437922Y-86985074D01*
X102437906Y-86985092D01*
X102279285Y-87196986D01*
X102279280Y-87196994D01*
X102152428Y-87429305D01*
X102152426Y-87429309D01*
X102059921Y-87677326D01*
X102003658Y-87935965D01*
X102003657Y-87935972D01*
X101984773Y-88199998D01*
X101984773Y-88200001D01*
X102003657Y-88464027D01*
X102003658Y-88464034D01*
X102059921Y-88722673D01*
X102152426Y-88970690D01*
X102152428Y-88970694D01*
X102279280Y-89203005D01*
X102279285Y-89203013D01*
X102437906Y-89414907D01*
X102437922Y-89414925D01*
X102625074Y-89602077D01*
X102625092Y-89602093D01*
X102836986Y-89760714D01*
X102836994Y-89760719D01*
X103069305Y-89887571D01*
X103069309Y-89887573D01*
X103069311Y-89887574D01*
X103317322Y-89980077D01*
X103317325Y-89980077D01*
X103317326Y-89980078D01*
X103512552Y-90022546D01*
X103575974Y-90036343D01*
X103819660Y-90053772D01*
X103839999Y-90055227D01*
X103840000Y-90055227D01*
X103840001Y-90055227D01*
X103858885Y-90053876D01*
X104104026Y-90036343D01*
X104362678Y-89980077D01*
X104610689Y-89887574D01*
X104843011Y-89760716D01*
X105054915Y-89602087D01*
X105242087Y-89414915D01*
X105400716Y-89203011D01*
X105527574Y-88970689D01*
X105620077Y-88722678D01*
X105676343Y-88464026D01*
X105695227Y-88200000D01*
X105676343Y-87935974D01*
X105620077Y-87677322D01*
X105527574Y-87429311D01*
X105400716Y-87196989D01*
X105400714Y-87196986D01*
X105242093Y-86985092D01*
X105242077Y-86985074D01*
X105054925Y-86797922D01*
X105054907Y-86797906D01*
X104843014Y-86639286D01*
X104843012Y-86639285D01*
X104843011Y-86639284D01*
X104805070Y-86618566D01*
X104755667Y-86569161D01*
X104740500Y-86509736D01*
X104740500Y-66573362D01*
X104760185Y-66506323D01*
X104812989Y-66460568D01*
X104882147Y-66450624D01*
X104945703Y-66479649D01*
X104952181Y-66485681D01*
X106863181Y-68396681D01*
X106896666Y-68458004D01*
X106899500Y-68484362D01*
X106899500Y-86509736D01*
X106879815Y-86576775D01*
X106834929Y-86618567D01*
X106796985Y-86639286D01*
X106585092Y-86797906D01*
X106585074Y-86797922D01*
X106397922Y-86985074D01*
X106397906Y-86985092D01*
X106239285Y-87196986D01*
X106239280Y-87196994D01*
X106112428Y-87429305D01*
X106112426Y-87429309D01*
X106019921Y-87677326D01*
X105963658Y-87935965D01*
X105963657Y-87935972D01*
X105944773Y-88199998D01*
X105944773Y-88200001D01*
X105963657Y-88464027D01*
X105963658Y-88464034D01*
X106019921Y-88722673D01*
X106112426Y-88970690D01*
X106112428Y-88970694D01*
X106239280Y-89203005D01*
X106239285Y-89203013D01*
X106397906Y-89414907D01*
X106397922Y-89414925D01*
X106585074Y-89602077D01*
X106585092Y-89602093D01*
X106796986Y-89760714D01*
X106796994Y-89760719D01*
X107029305Y-89887571D01*
X107029309Y-89887573D01*
X107029311Y-89887574D01*
X107277322Y-89980077D01*
X107277325Y-89980077D01*
X107277326Y-89980078D01*
X107472552Y-90022546D01*
X107535974Y-90036343D01*
X107779660Y-90053772D01*
X107799999Y-90055227D01*
X107800000Y-90055227D01*
X107800001Y-90055227D01*
X107818885Y-90053876D01*
X108064026Y-90036343D01*
X108322678Y-89980077D01*
X108570689Y-89887574D01*
X108803011Y-89760716D01*
X109014915Y-89602087D01*
X109202087Y-89414915D01*
X109360716Y-89203011D01*
X109487574Y-88970689D01*
X109580077Y-88722678D01*
X109636343Y-88464026D01*
X109655227Y-88200000D01*
X109636343Y-87935974D01*
X109580077Y-87677322D01*
X109487574Y-87429311D01*
X109360716Y-87196989D01*
X109360714Y-87196986D01*
X109202093Y-86985092D01*
X109202077Y-86985074D01*
X109014925Y-86797922D01*
X109014907Y-86797906D01*
X108803014Y-86639286D01*
X108803012Y-86639285D01*
X108803011Y-86639284D01*
X108765070Y-86618566D01*
X108715667Y-86569161D01*
X108700500Y-86509736D01*
X108700500Y-68273362D01*
X108720185Y-68206323D01*
X108772989Y-68160568D01*
X108842147Y-68150624D01*
X108905703Y-68179649D01*
X108912181Y-68185681D01*
X109663181Y-68936681D01*
X109696666Y-68998004D01*
X109699500Y-69024362D01*
X109699500Y-86288696D01*
X109734103Y-86462659D01*
X109734106Y-86462669D01*
X109752589Y-86507290D01*
X109801985Y-86626544D01*
X109801990Y-86626552D01*
X109853040Y-86702953D01*
X109853041Y-86702954D01*
X109900537Y-86774038D01*
X109904172Y-86777673D01*
X109937657Y-86838996D01*
X109934198Y-86904355D01*
X109920001Y-86947200D01*
X109909500Y-87049984D01*
X109909500Y-89350015D01*
X109920000Y-89452795D01*
X109920001Y-89452796D01*
X109975186Y-89619335D01*
X109975187Y-89619337D01*
X110067286Y-89768651D01*
X110067289Y-89768655D01*
X110191344Y-89892710D01*
X110191348Y-89892713D01*
X110340662Y-89984812D01*
X110340664Y-89984813D01*
X110340666Y-89984814D01*
X110507203Y-90039999D01*
X110609992Y-90050500D01*
X110609997Y-90050500D01*
X112910003Y-90050500D01*
X112910008Y-90050500D01*
X113012797Y-90039999D01*
X113179334Y-89984814D01*
X113328655Y-89892711D01*
X113452711Y-89768655D01*
X113544814Y-89619334D01*
X113599999Y-89452797D01*
X113610500Y-89350008D01*
X113610500Y-87049992D01*
X113599999Y-86947203D01*
X113544814Y-86780666D01*
X113496880Y-86702954D01*
X113452713Y-86631348D01*
X113452710Y-86631344D01*
X113328655Y-86507289D01*
X113328651Y-86507286D01*
X113179337Y-86415187D01*
X113179335Y-86415186D01*
X113096065Y-86387593D01*
X113012797Y-86360001D01*
X113012795Y-86360000D01*
X112910015Y-86349500D01*
X112910008Y-86349500D01*
X112074361Y-86349500D01*
X112007322Y-86329815D01*
X111986680Y-86313181D01*
X111536819Y-85863319D01*
X111503334Y-85801996D01*
X111500500Y-85775638D01*
X111500500Y-77218935D01*
X111520185Y-77151896D01*
X111572989Y-77106141D01*
X111642147Y-77096197D01*
X111705703Y-77125222D01*
X111726905Y-77151783D01*
X111728104Y-77150983D01*
X111731486Y-77156044D01*
X111731487Y-77156047D01*
X111745275Y-77176681D01*
X111761132Y-77200414D01*
X111830035Y-77303536D01*
X111830038Y-77303539D01*
X113828464Y-79301964D01*
X113828466Y-79301966D01*
X113887536Y-79341433D01*
X113887539Y-79341436D01*
X113935062Y-79373190D01*
X113975953Y-79400513D01*
X114057893Y-79434453D01*
X114139834Y-79468395D01*
X114313803Y-79502999D01*
X114313807Y-79503000D01*
X114313808Y-79503000D01*
X114313809Y-79503000D01*
X121259736Y-79503000D01*
X121326775Y-79522685D01*
X121368567Y-79567571D01*
X121389286Y-79605514D01*
X121547906Y-79817407D01*
X121547922Y-79817425D01*
X121735074Y-80004577D01*
X121735092Y-80004593D01*
X121946986Y-80163214D01*
X121946994Y-80163219D01*
X122179305Y-80290071D01*
X122179309Y-80290073D01*
X122179311Y-80290074D01*
X122427322Y-80382577D01*
X122427325Y-80382577D01*
X122427326Y-80382578D01*
X122622552Y-80425046D01*
X122685974Y-80438843D01*
X122929660Y-80456272D01*
X122949999Y-80457727D01*
X122950000Y-80457727D01*
X122950001Y-80457727D01*
X122968885Y-80456376D01*
X123214026Y-80438843D01*
X123472678Y-80382577D01*
X123720689Y-80290074D01*
X123953011Y-80163216D01*
X124164915Y-80004587D01*
X124352087Y-79817415D01*
X124510716Y-79605511D01*
X124637574Y-79373189D01*
X124730077Y-79125178D01*
X124786343Y-78866526D01*
X124805227Y-78602500D01*
X124786343Y-78338474D01*
X124730077Y-78079822D01*
X124637574Y-77831811D01*
X124510716Y-77599489D01*
X124510713Y-77599485D01*
X124352093Y-77387592D01*
X124352077Y-77387574D01*
X124164925Y-77200422D01*
X124164907Y-77200406D01*
X123953013Y-77041785D01*
X123953005Y-77041780D01*
X123720694Y-76914928D01*
X123720690Y-76914926D01*
X123472673Y-76822421D01*
X123214034Y-76766158D01*
X123214027Y-76766157D01*
X122950001Y-76747273D01*
X122949999Y-76747273D01*
X122685972Y-76766157D01*
X122685965Y-76766158D01*
X122427326Y-76822421D01*
X122179309Y-76914926D01*
X122179305Y-76914928D01*
X121946994Y-77041780D01*
X121946986Y-77041785D01*
X121735092Y-77200406D01*
X121735074Y-77200422D01*
X121547922Y-77387574D01*
X121547906Y-77387592D01*
X121389286Y-77599485D01*
X121368567Y-77637429D01*
X121319161Y-77686833D01*
X121259736Y-77702000D01*
X114826862Y-77702000D01*
X114759823Y-77682315D01*
X114739181Y-77665681D01*
X113466319Y-76392819D01*
X113432834Y-76331496D01*
X113430000Y-76305138D01*
X113430000Y-74602861D01*
X113449685Y-74535822D01*
X113502489Y-74490067D01*
X113571647Y-74480123D01*
X113635203Y-74509148D01*
X113641681Y-74515180D01*
X113696195Y-74569694D01*
X113696216Y-74569717D01*
X114468464Y-75341964D01*
X114468466Y-75341966D01*
X114527536Y-75381433D01*
X114527539Y-75381436D01*
X114615950Y-75440511D01*
X114615953Y-75440513D01*
X114697893Y-75474453D01*
X114779834Y-75508395D01*
X114953803Y-75542999D01*
X114953807Y-75543000D01*
X114953808Y-75543000D01*
X114953809Y-75543000D01*
X120975500Y-75543000D01*
X121042539Y-75562685D01*
X121088294Y-75615489D01*
X121099500Y-75667000D01*
X121099500Y-75792515D01*
X121110000Y-75895295D01*
X121110001Y-75895296D01*
X121165186Y-76061835D01*
X121165187Y-76061837D01*
X121257286Y-76211151D01*
X121257289Y-76211155D01*
X121381344Y-76335210D01*
X121381348Y-76335213D01*
X121530662Y-76427312D01*
X121530664Y-76427313D01*
X121530666Y-76427314D01*
X121697203Y-76482499D01*
X121799992Y-76493000D01*
X121799997Y-76493000D01*
X124100003Y-76493000D01*
X124100008Y-76493000D01*
X124202797Y-76482499D01*
X124369334Y-76427314D01*
X124518655Y-76335211D01*
X124642711Y-76211155D01*
X124734814Y-76061834D01*
X124789999Y-75895297D01*
X124800500Y-75792508D01*
X124800500Y-73492492D01*
X124789999Y-73389703D01*
X124734814Y-73223166D01*
X124642711Y-73073845D01*
X124615283Y-73046417D01*
X125374500Y-73046417D01*
X125374500Y-73238582D01*
X125411986Y-73427035D01*
X125411989Y-73427047D01*
X125485520Y-73604568D01*
X125485521Y-73604570D01*
X125592279Y-73764344D01*
X125592282Y-73764348D01*
X125728151Y-73900217D01*
X125728155Y-73900220D01*
X125887927Y-74006977D01*
X125887928Y-74006977D01*
X125887929Y-74006978D01*
X125887931Y-74006979D01*
X126063603Y-74079744D01*
X126065457Y-74080512D01*
X126253917Y-74117999D01*
X126253920Y-74118000D01*
X126253922Y-74118000D01*
X126446080Y-74118000D01*
X126446081Y-74117999D01*
X126634543Y-74080512D01*
X126812073Y-74006977D01*
X126971845Y-73900220D01*
X127107720Y-73764345D01*
X127214477Y-73604573D01*
X127288012Y-73427043D01*
X127325500Y-73238578D01*
X127325500Y-73046422D01*
X127325500Y-73046419D01*
X127325499Y-73046417D01*
X127315159Y-72994435D01*
X127288012Y-72857957D01*
X127287900Y-72857686D01*
X127214479Y-72680431D01*
X127214478Y-72680429D01*
X127107720Y-72520655D01*
X127107717Y-72520651D01*
X126971848Y-72384782D01*
X126971844Y-72384779D01*
X126812070Y-72278021D01*
X126812068Y-72278020D01*
X126634547Y-72204489D01*
X126634535Y-72204486D01*
X126446081Y-72167000D01*
X126446078Y-72167000D01*
X126253922Y-72167000D01*
X126253919Y-72167000D01*
X126065464Y-72204486D01*
X126065452Y-72204489D01*
X125887931Y-72278020D01*
X125887929Y-72278021D01*
X125728155Y-72384779D01*
X125728151Y-72384782D01*
X125592282Y-72520651D01*
X125592279Y-72520655D01*
X125485521Y-72680429D01*
X125485520Y-72680431D01*
X125411989Y-72857952D01*
X125411986Y-72857964D01*
X125374500Y-73046417D01*
X124615283Y-73046417D01*
X124518655Y-72949789D01*
X124518651Y-72949786D01*
X124369337Y-72857687D01*
X124369335Y-72857686D01*
X124286065Y-72830093D01*
X124202797Y-72802501D01*
X124202795Y-72802500D01*
X124100015Y-72792000D01*
X124100008Y-72792000D01*
X121799992Y-72792000D01*
X121799984Y-72792000D01*
X121697204Y-72802500D01*
X121697203Y-72802501D01*
X121530664Y-72857686D01*
X121530662Y-72857687D01*
X121381348Y-72949786D01*
X121381344Y-72949789D01*
X121257289Y-73073844D01*
X121257286Y-73073848D01*
X121165187Y-73223162D01*
X121165186Y-73223164D01*
X121110001Y-73389703D01*
X121110000Y-73389704D01*
X121099500Y-73492484D01*
X121099500Y-73618000D01*
X121079815Y-73685039D01*
X121027011Y-73730794D01*
X120975500Y-73742000D01*
X115466862Y-73742000D01*
X115399823Y-73722315D01*
X115379181Y-73705681D01*
X114969725Y-73296224D01*
X114969704Y-73296205D01*
X114808817Y-73135317D01*
X114775334Y-73073996D01*
X114772500Y-73047638D01*
X114772500Y-69924500D01*
X114792185Y-69857461D01*
X114844989Y-69811706D01*
X114896500Y-69800500D01*
X116070542Y-69800500D01*
X116089870Y-69796655D01*
X116167188Y-69781275D01*
X116263836Y-69762051D01*
X116317165Y-69739961D01*
X116445914Y-69686632D01*
X116609782Y-69577139D01*
X116749139Y-69437782D01*
X116749140Y-69437779D01*
X116756206Y-69430714D01*
X116756209Y-69430710D01*
X117284778Y-68902141D01*
X117284782Y-68902139D01*
X117424139Y-68762782D01*
X117533632Y-68598914D01*
X117550422Y-68558377D01*
X117590669Y-68506564D01*
X117689546Y-68432546D01*
X117775796Y-68317331D01*
X117826091Y-68182483D01*
X117832500Y-68122873D01*
X117832499Y-67097128D01*
X117826091Y-67037517D01*
X117826091Y-67037516D01*
X117826090Y-67037512D01*
X117818937Y-67018336D01*
X117813950Y-66948645D01*
X117818931Y-66931677D01*
X117826091Y-66912483D01*
X117832500Y-66852873D01*
X117832499Y-65827128D01*
X117826091Y-65767517D01*
X117826091Y-65767516D01*
X117826090Y-65767512D01*
X117818937Y-65748336D01*
X117813950Y-65678645D01*
X117818931Y-65661677D01*
X117826091Y-65642483D01*
X117832500Y-65582873D01*
X117832499Y-64557128D01*
X117826091Y-64497517D01*
X117797345Y-64420446D01*
X117775797Y-64362671D01*
X117775793Y-64362664D01*
X117689547Y-64247455D01*
X117689544Y-64247452D01*
X117574335Y-64161206D01*
X117574328Y-64161202D01*
X117439482Y-64110908D01*
X117439483Y-64110908D01*
X117379883Y-64104501D01*
X117379881Y-64104500D01*
X117379873Y-64104500D01*
X117379864Y-64104500D01*
X115914129Y-64104500D01*
X115914123Y-64104501D01*
X115854516Y-64110908D01*
X115719671Y-64161202D01*
X115719664Y-64161206D01*
X115604453Y-64247454D01*
X115599746Y-64252161D01*
X115538422Y-64285643D01*
X115488177Y-64285385D01*
X115488175Y-64285411D01*
X115487941Y-64285384D01*
X115484476Y-64285367D01*
X115481250Y-64284630D01*
X115302004Y-64264435D01*
X115301996Y-64264435D01*
X115122750Y-64284630D01*
X115122742Y-64284632D01*
X115037454Y-64314476D01*
X114967675Y-64318037D01*
X114907048Y-64283308D01*
X114874821Y-64221315D01*
X114872500Y-64197434D01*
X114872500Y-63378071D01*
X114892185Y-63311032D01*
X114944989Y-63265277D01*
X115014147Y-63255333D01*
X115037455Y-63261030D01*
X115192737Y-63315366D01*
X115192743Y-63315367D01*
X115192745Y-63315368D01*
X115192746Y-63315368D01*
X115192750Y-63315369D01*
X115371996Y-63335565D01*
X115372000Y-63335565D01*
X115372004Y-63335565D01*
X115506315Y-63320432D01*
X115575137Y-63332487D01*
X115596775Y-63348006D01*
X115597355Y-63347232D01*
X115719664Y-63438793D01*
X115719671Y-63438797D01*
X115854517Y-63489091D01*
X115854516Y-63489091D01*
X115861444Y-63489835D01*
X115914127Y-63495500D01*
X117379872Y-63495499D01*
X117439483Y-63489091D01*
X117574331Y-63438796D01*
X117689546Y-63352546D01*
X117775796Y-63237331D01*
X117826091Y-63102483D01*
X117832500Y-63042873D01*
X117832499Y-62017128D01*
X117826091Y-61957517D01*
X117826091Y-61957516D01*
X117826090Y-61957512D01*
X117818937Y-61938336D01*
X117813950Y-61868645D01*
X117818931Y-61851677D01*
X117826091Y-61832483D01*
X117832500Y-61772873D01*
X117832499Y-60747128D01*
X117826091Y-60687517D01*
X117826091Y-60687516D01*
X117826090Y-60687512D01*
X117818937Y-60668336D01*
X117813950Y-60598645D01*
X117818931Y-60581677D01*
X117826091Y-60562483D01*
X117832500Y-60502873D01*
X117832499Y-59477128D01*
X117826091Y-59417517D01*
X117801737Y-59352221D01*
X117775797Y-59282671D01*
X117775793Y-59282664D01*
X117689548Y-59167457D01*
X117689546Y-59167454D01*
X117689542Y-59167451D01*
X117683815Y-59161723D01*
X117650333Y-59100398D01*
X117647500Y-59074045D01*
X117647500Y-58015781D01*
X117667185Y-57948742D01*
X117683815Y-57928104D01*
X118063882Y-57548036D01*
X118112562Y-57518012D01*
X118130697Y-57512003D01*
X118275044Y-57422968D01*
X118394968Y-57303044D01*
X118484003Y-57158697D01*
X118537349Y-56997708D01*
X118542755Y-56944788D01*
X118551555Y-56909932D01*
X118559049Y-56891842D01*
X118559052Y-56891830D01*
X118582716Y-56772862D01*
X118597500Y-56698540D01*
X118597500Y-56501460D01*
X118597500Y-54901459D01*
X118597500Y-53694844D01*
X118606939Y-53647391D01*
X118627052Y-53598835D01*
X118665501Y-53405540D01*
X118665501Y-53208459D01*
X118665501Y-53203349D01*
X118665500Y-53203323D01*
X118665500Y-50101456D01*
X118665499Y-50101454D01*
X118627054Y-49908175D01*
X118627052Y-49908170D01*
X118627051Y-49908165D01*
X118624354Y-49901655D01*
X118619546Y-49890048D01*
X118610754Y-49855208D01*
X118606420Y-49812782D01*
X118605349Y-49802292D01*
X118552003Y-49641303D01*
X118551999Y-49641297D01*
X118551998Y-49641294D01*
X118462970Y-49496959D01*
X118462967Y-49496955D01*
X118343043Y-49377031D01*
X118198702Y-49287999D01*
X118198691Y-49287994D01*
X118180556Y-49281985D01*
X118131881Y-49251961D01*
X117676819Y-48796899D01*
X117643334Y-48735576D01*
X117640500Y-48709218D01*
X117640500Y-44541457D01*
X117630080Y-44489075D01*
X117614450Y-44410500D01*
X117602051Y-44348164D01*
X117577417Y-44288692D01*
X117551242Y-44225500D01*
X117526633Y-44166088D01*
X117526628Y-44166079D01*
X117417139Y-44002218D01*
X117417136Y-44002214D01*
X117274686Y-43859764D01*
X117274655Y-43859735D01*
X116981479Y-43566559D01*
X116981459Y-43566537D01*
X116837785Y-43422863D01*
X116837781Y-43422860D01*
X116673920Y-43313371D01*
X116673907Y-43313364D01*
X116548105Y-43261256D01*
X116507876Y-43234376D01*
X116036480Y-42762980D01*
X116006974Y-42713753D01*
X116006882Y-42713792D01*
X116006625Y-42713171D01*
X116005502Y-42711298D01*
X116004552Y-42708167D01*
X115952439Y-42582354D01*
X115943000Y-42534902D01*
X115943000Y-39424500D01*
X115962685Y-39357461D01*
X116015489Y-39311706D01*
X116067000Y-39300500D01*
X116192503Y-39300500D01*
X116192508Y-39300500D01*
X116295297Y-39289999D01*
X116461834Y-39234814D01*
X116611155Y-39142711D01*
X116735211Y-39018655D01*
X116827314Y-38869334D01*
X116882499Y-38702797D01*
X116893000Y-38600008D01*
X116893000Y-36800000D01*
X122694592Y-36800000D01*
X122714201Y-37086680D01*
X122772666Y-37368034D01*
X122772667Y-37368037D01*
X122868894Y-37638793D01*
X122868893Y-37638793D01*
X123001098Y-37893935D01*
X123166812Y-38128700D01*
X123251923Y-38219831D01*
X123362947Y-38338708D01*
X123585853Y-38520055D01*
X123717329Y-38600008D01*
X123831382Y-38669365D01*
X124018237Y-38750526D01*
X124094942Y-38783844D01*
X124371642Y-38861371D01*
X124621920Y-38895771D01*
X124656321Y-38900500D01*
X124656322Y-38900500D01*
X124943679Y-38900500D01*
X124974370Y-38896281D01*
X125228358Y-38861371D01*
X125505058Y-38783844D01*
X125618015Y-38734779D01*
X125768617Y-38669365D01*
X125768620Y-38669363D01*
X125768625Y-38669361D01*
X126014147Y-38520055D01*
X126237053Y-38338708D01*
X126433189Y-38128698D01*
X126598901Y-37893936D01*
X126731104Y-37638797D01*
X126827334Y-37368032D01*
X126885798Y-37086686D01*
X126905408Y-36800000D01*
X126885798Y-36513314D01*
X126827334Y-36231968D01*
X126731105Y-35961206D01*
X126731106Y-35961206D01*
X126598901Y-35706064D01*
X126433187Y-35471299D01*
X126354554Y-35387105D01*
X126237053Y-35261292D01*
X126014147Y-35079945D01*
X126014146Y-35079944D01*
X125768617Y-34930634D01*
X125505063Y-34816158D01*
X125505061Y-34816157D01*
X125505058Y-34816156D01*
X125375578Y-34779877D01*
X125228364Y-34738630D01*
X125228359Y-34738629D01*
X125228358Y-34738629D01*
X125086018Y-34719064D01*
X124943679Y-34699500D01*
X124943678Y-34699500D01*
X124656322Y-34699500D01*
X124656321Y-34699500D01*
X124371642Y-34738629D01*
X124371635Y-34738630D01*
X124163861Y-34796845D01*
X124094942Y-34816156D01*
X124094939Y-34816156D01*
X124094936Y-34816158D01*
X124094935Y-34816158D01*
X123831382Y-34930634D01*
X123585853Y-35079944D01*
X123362950Y-35261289D01*
X123166812Y-35471299D01*
X123001098Y-35706064D01*
X122868894Y-35961206D01*
X122772667Y-36231962D01*
X122772666Y-36231965D01*
X122714201Y-36513319D01*
X122694592Y-36800000D01*
X116893000Y-36800000D01*
X116893000Y-36299992D01*
X116882499Y-36197203D01*
X116827314Y-36030666D01*
X116823228Y-36024042D01*
X116735213Y-35881348D01*
X116735210Y-35881344D01*
X116611155Y-35757289D01*
X116611151Y-35757286D01*
X116461837Y-35665187D01*
X116461835Y-35665186D01*
X116356489Y-35630278D01*
X116295297Y-35610001D01*
X116295295Y-35610000D01*
X116192515Y-35599500D01*
X116192508Y-35599500D01*
X113892492Y-35599500D01*
X113892484Y-35599500D01*
X113789704Y-35610000D01*
X113789703Y-35610001D01*
X113623164Y-35665186D01*
X113623162Y-35665187D01*
X113473848Y-35757286D01*
X113473844Y-35757289D01*
X113349789Y-35881344D01*
X113349786Y-35881348D01*
X113257687Y-36030662D01*
X113257686Y-36030664D01*
X113202501Y-36197203D01*
X113202500Y-36197204D01*
X113192000Y-36299984D01*
X113192000Y-38600015D01*
X113202500Y-38702795D01*
X113202501Y-38702796D01*
X113257686Y-38869335D01*
X113257687Y-38869337D01*
X113349786Y-39018651D01*
X113349789Y-39018655D01*
X113473844Y-39142710D01*
X113473848Y-39142713D01*
X113623162Y-39234812D01*
X113623164Y-39234813D01*
X113623166Y-39234814D01*
X113789703Y-39289999D01*
X113892492Y-39300500D01*
X114018000Y-39300500D01*
X114085039Y-39320185D01*
X114130794Y-39372989D01*
X114142000Y-39424500D01*
X114142000Y-42434217D01*
X114122315Y-42501256D01*
X114105681Y-42521898D01*
X113464399Y-43163181D01*
X113403076Y-43196666D01*
X113376718Y-43199500D01*
X110865783Y-43199500D01*
X110798744Y-43179815D01*
X110778102Y-43163181D01*
X110736818Y-43121897D01*
X110703333Y-43060574D01*
X110700499Y-43034216D01*
X110700499Y-41702129D01*
X110700498Y-41702123D01*
X110700497Y-41702116D01*
X110694091Y-41642517D01*
X110643796Y-41507669D01*
X110643795Y-41507668D01*
X110643793Y-41507664D01*
X110557547Y-41392455D01*
X110557544Y-41392452D01*
X110442335Y-41306206D01*
X110442328Y-41306202D01*
X110307482Y-41255908D01*
X110307483Y-41255908D01*
X110247883Y-41249501D01*
X110247881Y-41249500D01*
X110247873Y-41249500D01*
X110247864Y-41249500D01*
X108152129Y-41249500D01*
X108152123Y-41249501D01*
X108092516Y-41255908D01*
X107957671Y-41306202D01*
X107957664Y-41306206D01*
X107842455Y-41392452D01*
X107842452Y-41392455D01*
X107756206Y-41507664D01*
X107756202Y-41507671D01*
X107705908Y-41642517D01*
X107699501Y-41702116D01*
X107699501Y-41702123D01*
X107699500Y-41702135D01*
X107699500Y-44297870D01*
X107699501Y-44297876D01*
X107705908Y-44357483D01*
X107756202Y-44492328D01*
X107756206Y-44492335D01*
X107842452Y-44607544D01*
X107842455Y-44607547D01*
X107957664Y-44693793D01*
X107957671Y-44693797D01*
X108092517Y-44744091D01*
X108092516Y-44744091D01*
X108099444Y-44744835D01*
X108152127Y-44750500D01*
X109484216Y-44750499D01*
X109551255Y-44770184D01*
X109571897Y-44786818D01*
X109622860Y-44837781D01*
X109622861Y-44837782D01*
X109762218Y-44977139D01*
X109762219Y-44977140D01*
X109926079Y-45086628D01*
X109926092Y-45086635D01*
X110054833Y-45139961D01*
X110083867Y-45151987D01*
X110108164Y-45162051D01*
X110204812Y-45181275D01*
X110253135Y-45190887D01*
X110301458Y-45200500D01*
X110301459Y-45200500D01*
X110301460Y-45200500D01*
X110498540Y-45200500D01*
X112101459Y-45200500D01*
X113701459Y-45200500D01*
X113743960Y-45200500D01*
X113941040Y-45200500D01*
X114701459Y-45200500D01*
X115515500Y-45200500D01*
X115582539Y-45220185D01*
X115628294Y-45272989D01*
X115639500Y-45324500D01*
X115639500Y-49273541D01*
X115639500Y-49273543D01*
X115639499Y-49273543D01*
X115677947Y-49466829D01*
X115677950Y-49466839D01*
X115753364Y-49648907D01*
X115753371Y-49648920D01*
X115862860Y-49812781D01*
X115862863Y-49812785D01*
X116006537Y-49956459D01*
X116006559Y-49956479D01*
X116628181Y-50578101D01*
X116661666Y-50639424D01*
X116664500Y-50665782D01*
X116664500Y-52987157D01*
X116655061Y-53034609D01*
X116634950Y-53083160D01*
X116634947Y-53083170D01*
X116596500Y-53276456D01*
X116596500Y-56134217D01*
X116576815Y-56201256D01*
X116560181Y-56221898D01*
X116280619Y-56501460D01*
X116009221Y-56772858D01*
X116009218Y-56772861D01*
X115939538Y-56842540D01*
X115869859Y-56912219D01*
X115760371Y-57076079D01*
X115760364Y-57076092D01*
X115684950Y-57258160D01*
X115684947Y-57258170D01*
X115646500Y-57451456D01*
X115646500Y-58649218D01*
X115626815Y-58716257D01*
X115610181Y-58736899D01*
X115393899Y-58953181D01*
X115332576Y-58986666D01*
X115306218Y-58989500D01*
X114083458Y-58989500D01*
X114062060Y-58993756D01*
X114040662Y-58998013D01*
X114040661Y-58998013D01*
X113890167Y-59027947D01*
X113890159Y-59027950D01*
X113836834Y-59050037D01*
X113836834Y-59050038D01*
X113791315Y-59068892D01*
X113708089Y-59103366D01*
X113708079Y-59103371D01*
X113544219Y-59212859D01*
X113474540Y-59282538D01*
X113404861Y-59352218D01*
X111794863Y-60962215D01*
X111794860Y-60962219D01*
X111685372Y-61126079D01*
X111685367Y-61126089D01*
X111609949Y-61308163D01*
X111609947Y-61308171D01*
X111571500Y-61501455D01*
X111571500Y-61698544D01*
X111609947Y-61891828D01*
X111609949Y-61891836D01*
X111685367Y-62073910D01*
X111685372Y-62073920D01*
X111794860Y-62237780D01*
X111794863Y-62237784D01*
X111934215Y-62377136D01*
X111934219Y-62377139D01*
X112098079Y-62486627D01*
X112098083Y-62486629D01*
X112098086Y-62486631D01*
X112280164Y-62562051D01*
X112473455Y-62600499D01*
X112473458Y-62600500D01*
X112674886Y-62600500D01*
X112741925Y-62620185D01*
X112787680Y-62672989D01*
X112797624Y-62742147D01*
X112768599Y-62805703D01*
X112715840Y-62841542D01*
X112622478Y-62874210D01*
X112469737Y-62970184D01*
X112342184Y-63097737D01*
X112246211Y-63250476D01*
X112240621Y-63266454D01*
X112199900Y-63323230D01*
X112134947Y-63348978D01*
X112123579Y-63349500D01*
X111105068Y-63349500D01*
X111039096Y-63330494D01*
X110949522Y-63274210D01*
X110949518Y-63274209D01*
X110779262Y-63214633D01*
X110779249Y-63214630D01*
X110600004Y-63194435D01*
X110599996Y-63194435D01*
X110420750Y-63214630D01*
X110420745Y-63214631D01*
X110250476Y-63274211D01*
X110097737Y-63370184D01*
X109970184Y-63497737D01*
X109874211Y-63650476D01*
X109814631Y-63820745D01*
X109814630Y-63820750D01*
X109794435Y-63999996D01*
X109794435Y-64000003D01*
X109814630Y-64179249D01*
X109814631Y-64179254D01*
X109874211Y-64349523D01*
X109970184Y-64502262D01*
X110097738Y-64629816D01*
X110250478Y-64725789D01*
X110420739Y-64785366D01*
X110420745Y-64785368D01*
X110420750Y-64785369D01*
X110599996Y-64805565D01*
X110600000Y-64805565D01*
X110600004Y-64805565D01*
X110779249Y-64785369D01*
X110779251Y-64785368D01*
X110779255Y-64785368D01*
X110779258Y-64785366D01*
X110779262Y-64785366D01*
X110869377Y-64753832D01*
X110949522Y-64725789D01*
X111039096Y-64669505D01*
X111105068Y-64650500D01*
X112636071Y-64650500D01*
X112720615Y-64633682D01*
X112761744Y-64625501D01*
X112880127Y-64576465D01*
X112880127Y-64576464D01*
X112880129Y-64576464D01*
X112885497Y-64573595D01*
X112886288Y-64575075D01*
X112945279Y-64556601D01*
X113012661Y-64575082D01*
X113059354Y-64627058D01*
X113071500Y-64680581D01*
X113071500Y-65399449D01*
X113051815Y-65466488D01*
X112999011Y-65512243D01*
X112933618Y-65522669D01*
X112896000Y-65518431D01*
X112895992Y-65518431D01*
X112716746Y-65538626D01*
X112716741Y-65538627D01*
X112546472Y-65598207D01*
X112393733Y-65694180D01*
X112266180Y-65821733D01*
X112262790Y-65827129D01*
X112233207Y-65874211D01*
X112222361Y-65891472D01*
X112170026Y-65937763D01*
X112117367Y-65949500D01*
X111105068Y-65949500D01*
X111039096Y-65930494D01*
X110949522Y-65874210D01*
X110949518Y-65874209D01*
X110779262Y-65814633D01*
X110779249Y-65814630D01*
X110600004Y-65794435D01*
X110599996Y-65794435D01*
X110420750Y-65814630D01*
X110420745Y-65814631D01*
X110250476Y-65874211D01*
X110097737Y-65970184D01*
X109970184Y-66097737D01*
X109874210Y-66250478D01*
X109848605Y-66323655D01*
X109807883Y-66380432D01*
X109742930Y-66406179D01*
X109674369Y-66392723D01*
X109643882Y-66370382D01*
X101136819Y-57863319D01*
X101103334Y-57801996D01*
X101100500Y-57775638D01*
X101100500Y-55821306D01*
X101100499Y-55821304D01*
X101065896Y-55647341D01*
X101065893Y-55647332D01*
X100998016Y-55483460D01*
X100998015Y-55483459D01*
X100998013Y-55483453D01*
X100988282Y-55468890D01*
X100967404Y-55402214D01*
X100985888Y-55334833D01*
X100988283Y-55331107D01*
X100998012Y-55316547D01*
X101065895Y-55152666D01*
X101100500Y-54978692D01*
X101100500Y-54801308D01*
X101065895Y-54627334D01*
X100998012Y-54463453D01*
X100899464Y-54315964D01*
X100899459Y-54315958D01*
X99454041Y-52870540D01*
X99449332Y-52866676D01*
X99450298Y-52865498D01*
X99410302Y-52817635D01*
X99400000Y-52768151D01*
X99400000Y-51699860D01*
X99419685Y-51632821D01*
X99436311Y-51612188D01*
X100694612Y-50353885D01*
X100755933Y-50320402D01*
X100769686Y-50318211D01*
X100797708Y-50315349D01*
X100958697Y-50262003D01*
X101103044Y-50172968D01*
X101222968Y-50053044D01*
X101312003Y-49908697D01*
X101365349Y-49747708D01*
X101375500Y-49648345D01*
X101375499Y-49101656D01*
X101365349Y-49002292D01*
X101312003Y-48841303D01*
X101311999Y-48841297D01*
X101311998Y-48841294D01*
X101222970Y-48696959D01*
X101222967Y-48696955D01*
X101213693Y-48687681D01*
X101180208Y-48626358D01*
X101185192Y-48556666D01*
X101213693Y-48512319D01*
X101222968Y-48503044D01*
X101312003Y-48358697D01*
X101365349Y-48197708D01*
X101375500Y-48098345D01*
X101375499Y-47551656D01*
X101365349Y-47452292D01*
X101312003Y-47291303D01*
X101311999Y-47291297D01*
X101311998Y-47291294D01*
X101222970Y-47146959D01*
X101222967Y-47146955D01*
X101103044Y-47027032D01*
X101103040Y-47027029D01*
X100958705Y-46938001D01*
X100958699Y-46937998D01*
X100958697Y-46937997D01*
X100958694Y-46937996D01*
X100797709Y-46884651D01*
X100769687Y-46881788D01*
X100704996Y-46855391D01*
X100694610Y-46846111D01*
X99436319Y-45587819D01*
X99402834Y-45526496D01*
X99400000Y-45500138D01*
X99400000Y-44534500D01*
X99419685Y-44467461D01*
X99472489Y-44421706D01*
X99524000Y-44410500D01*
X101313543Y-44410500D01*
X101402202Y-44392864D01*
X101446533Y-44384046D01*
X101506836Y-44372051D01*
X101564504Y-44348164D01*
X101564505Y-44348164D01*
X101688912Y-44296633D01*
X101688915Y-44296631D01*
X101700799Y-44288691D01*
X101710970Y-44281894D01*
X101764096Y-44246398D01*
X101830773Y-44225520D01*
X101832986Y-44225500D01*
X102980336Y-44225500D01*
X103047375Y-44245185D01*
X103093130Y-44297989D01*
X103103626Y-44336246D01*
X103105909Y-44357483D01*
X103156202Y-44492328D01*
X103156206Y-44492335D01*
X103242452Y-44607544D01*
X103242455Y-44607547D01*
X103357664Y-44693793D01*
X103357671Y-44693797D01*
X103492517Y-44744091D01*
X103492516Y-44744091D01*
X103499444Y-44744835D01*
X103552127Y-44750500D01*
X105647872Y-44750499D01*
X105707483Y-44744091D01*
X105842331Y-44693796D01*
X105957546Y-44607546D01*
X106043796Y-44492331D01*
X106094091Y-44357483D01*
X106100500Y-44297873D01*
X106100499Y-41702128D01*
X106094091Y-41642517D01*
X106043796Y-41507669D01*
X106043795Y-41507668D01*
X106043793Y-41507664D01*
X105957547Y-41392455D01*
X105957544Y-41392452D01*
X105842335Y-41306206D01*
X105842328Y-41306202D01*
X105707482Y-41255908D01*
X105707483Y-41255908D01*
X105647883Y-41249501D01*
X105647881Y-41249500D01*
X105647873Y-41249500D01*
X105647864Y-41249500D01*
X103552129Y-41249500D01*
X103552123Y-41249501D01*
X103492516Y-41255908D01*
X103357671Y-41306202D01*
X103357664Y-41306206D01*
X103242455Y-41392452D01*
X103242452Y-41392455D01*
X103156206Y-41507664D01*
X103156202Y-41507671D01*
X103105908Y-41642517D01*
X103099501Y-41702116D01*
X103099501Y-41702123D01*
X103099500Y-41702135D01*
X103099500Y-42100500D01*
X103079815Y-42167539D01*
X103027011Y-42213294D01*
X102975500Y-42224500D01*
X101504675Y-42224500D01*
X101504655Y-42224499D01*
X101498541Y-42224499D01*
X101301460Y-42224499D01*
X101301457Y-42224499D01*
X101108172Y-42262945D01*
X101108164Y-42262948D01*
X101090052Y-42270450D01*
X101055207Y-42279245D01*
X101002290Y-42284651D01*
X100841299Y-42337998D01*
X100755311Y-42391038D01*
X100690213Y-42409500D01*
X99524000Y-42409500D01*
X99456961Y-42389815D01*
X99411206Y-42337011D01*
X99400000Y-42285500D01*
X99400000Y-33953917D01*
X112567000Y-33953917D01*
X112567000Y-34146082D01*
X112604486Y-34334535D01*
X112604489Y-34334547D01*
X112678020Y-34512068D01*
X112678021Y-34512070D01*
X112784779Y-34671844D01*
X112784782Y-34671848D01*
X112920651Y-34807717D01*
X112920655Y-34807720D01*
X113080427Y-34914477D01*
X113080428Y-34914477D01*
X113080429Y-34914478D01*
X113080431Y-34914479D01*
X113257952Y-34988010D01*
X113257957Y-34988012D01*
X113446417Y-35025499D01*
X113446420Y-35025500D01*
X113446422Y-35025500D01*
X113638580Y-35025500D01*
X113638581Y-35025499D01*
X113827043Y-34988012D01*
X114004573Y-34914477D01*
X114164345Y-34807720D01*
X114300220Y-34671845D01*
X114406977Y-34512073D01*
X114480512Y-34334543D01*
X114518000Y-34146078D01*
X114518000Y-33953922D01*
X114518000Y-33953919D01*
X114517999Y-33953917D01*
X114508821Y-33907777D01*
X114480512Y-33765457D01*
X114418073Y-33614715D01*
X114406979Y-33587931D01*
X114406978Y-33587929D01*
X114300220Y-33428155D01*
X114300217Y-33428151D01*
X114164348Y-33292282D01*
X114164344Y-33292279D01*
X114004570Y-33185521D01*
X114004568Y-33185520D01*
X113827047Y-33111989D01*
X113827035Y-33111986D01*
X113638581Y-33074500D01*
X113638578Y-33074500D01*
X113446422Y-33074500D01*
X113446419Y-33074500D01*
X113257964Y-33111986D01*
X113257952Y-33111989D01*
X113080431Y-33185520D01*
X113080429Y-33185521D01*
X112920655Y-33292279D01*
X112920651Y-33292282D01*
X112784782Y-33428151D01*
X112784779Y-33428155D01*
X112678021Y-33587929D01*
X112678020Y-33587931D01*
X112604489Y-33765452D01*
X112604486Y-33765464D01*
X112567000Y-33953917D01*
X99400000Y-33953917D01*
X99400000Y-32424500D01*
X99419685Y-32357461D01*
X99472489Y-32311706D01*
X99524000Y-32300500D01*
X124734108Y-32300500D01*
X124797294Y-32300500D01*
X124802702Y-32300617D01*
G37*
%TD.AperFunction*%
%TD*%
M02*
