%TF.GenerationSoftware,KiCad,Pcbnew,8.0.7*%
%TF.CreationDate,2025-03-03T11:15:17+09:00*%
%TF.ProjectId,dot_for1,646f745f-666f-4723-912e-6b696361645f,rev?*%
%TF.SameCoordinates,Original*%
%TF.FileFunction,Legend,Top*%
%TF.FilePolarity,Positive*%
%FSLAX46Y46*%
G04 Gerber Fmt 4.6, Leading zero omitted, Abs format (unit mm)*
G04 Created by KiCad (PCBNEW 8.0.7) date 2025-03-03 11:15:17*
%MOMM*%
%LPD*%
G01*
G04 APERTURE LIST*
%ADD10C,0.150000*%
%ADD11C,0.100000*%
%ADD12C,0.254000*%
%ADD13C,0.120000*%
%ADD14C,0.200000*%
G04 APERTURE END LIST*
D10*
X112494295Y-94253696D02*
X112113342Y-94520363D01*
X112494295Y-94710839D02*
X111694295Y-94710839D01*
X111694295Y-94710839D02*
X111694295Y-94406077D01*
X111694295Y-94406077D02*
X111732390Y-94329887D01*
X111732390Y-94329887D02*
X111770485Y-94291792D01*
X111770485Y-94291792D02*
X111846676Y-94253696D01*
X111846676Y-94253696D02*
X111960961Y-94253696D01*
X111960961Y-94253696D02*
X112037152Y-94291792D01*
X112037152Y-94291792D02*
X112075247Y-94329887D01*
X112075247Y-94329887D02*
X112113342Y-94406077D01*
X112113342Y-94406077D02*
X112113342Y-94710839D01*
X111770485Y-93948935D02*
X111732390Y-93910839D01*
X111732390Y-93910839D02*
X111694295Y-93834649D01*
X111694295Y-93834649D02*
X111694295Y-93644173D01*
X111694295Y-93644173D02*
X111732390Y-93567982D01*
X111732390Y-93567982D02*
X111770485Y-93529887D01*
X111770485Y-93529887D02*
X111846676Y-93491792D01*
X111846676Y-93491792D02*
X111922866Y-93491792D01*
X111922866Y-93491792D02*
X112037152Y-93529887D01*
X112037152Y-93529887D02*
X112494295Y-93987030D01*
X112494295Y-93987030D02*
X112494295Y-93491792D01*
X107532390Y-95491792D02*
X107494295Y-95567982D01*
X107494295Y-95567982D02*
X107494295Y-95682268D01*
X107494295Y-95682268D02*
X107532390Y-95796554D01*
X107532390Y-95796554D02*
X107608580Y-95872744D01*
X107608580Y-95872744D02*
X107684771Y-95910839D01*
X107684771Y-95910839D02*
X107837152Y-95948935D01*
X107837152Y-95948935D02*
X107951438Y-95948935D01*
X107951438Y-95948935D02*
X108103819Y-95910839D01*
X108103819Y-95910839D02*
X108180009Y-95872744D01*
X108180009Y-95872744D02*
X108256200Y-95796554D01*
X108256200Y-95796554D02*
X108294295Y-95682268D01*
X108294295Y-95682268D02*
X108294295Y-95606077D01*
X108294295Y-95606077D02*
X108256200Y-95491792D01*
X108256200Y-95491792D02*
X108218104Y-95453696D01*
X108218104Y-95453696D02*
X107951438Y-95453696D01*
X107951438Y-95453696D02*
X107951438Y-95606077D01*
X108294295Y-95110839D02*
X107494295Y-95110839D01*
X107494295Y-95110839D02*
X107494295Y-94806077D01*
X107494295Y-94806077D02*
X107532390Y-94729887D01*
X107532390Y-94729887D02*
X107570485Y-94691792D01*
X107570485Y-94691792D02*
X107646676Y-94653696D01*
X107646676Y-94653696D02*
X107760961Y-94653696D01*
X107760961Y-94653696D02*
X107837152Y-94691792D01*
X107837152Y-94691792D02*
X107875247Y-94729887D01*
X107875247Y-94729887D02*
X107913342Y-94806077D01*
X107913342Y-94806077D02*
X107913342Y-95110839D01*
X107570485Y-94348935D02*
X107532390Y-94310839D01*
X107532390Y-94310839D02*
X107494295Y-94234649D01*
X107494295Y-94234649D02*
X107494295Y-94044173D01*
X107494295Y-94044173D02*
X107532390Y-93967982D01*
X107532390Y-93967982D02*
X107570485Y-93929887D01*
X107570485Y-93929887D02*
X107646676Y-93891792D01*
X107646676Y-93891792D02*
X107722866Y-93891792D01*
X107722866Y-93891792D02*
X107837152Y-93929887D01*
X107837152Y-93929887D02*
X108294295Y-94387030D01*
X108294295Y-94387030D02*
X108294295Y-93891792D01*
X107837152Y-93434649D02*
X107799057Y-93510839D01*
X107799057Y-93510839D02*
X107760961Y-93548934D01*
X107760961Y-93548934D02*
X107684771Y-93587030D01*
X107684771Y-93587030D02*
X107646676Y-93587030D01*
X107646676Y-93587030D02*
X107570485Y-93548934D01*
X107570485Y-93548934D02*
X107532390Y-93510839D01*
X107532390Y-93510839D02*
X107494295Y-93434649D01*
X107494295Y-93434649D02*
X107494295Y-93282268D01*
X107494295Y-93282268D02*
X107532390Y-93206077D01*
X107532390Y-93206077D02*
X107570485Y-93167982D01*
X107570485Y-93167982D02*
X107646676Y-93129887D01*
X107646676Y-93129887D02*
X107684771Y-93129887D01*
X107684771Y-93129887D02*
X107760961Y-93167982D01*
X107760961Y-93167982D02*
X107799057Y-93206077D01*
X107799057Y-93206077D02*
X107837152Y-93282268D01*
X107837152Y-93282268D02*
X107837152Y-93434649D01*
X107837152Y-93434649D02*
X107875247Y-93510839D01*
X107875247Y-93510839D02*
X107913342Y-93548934D01*
X107913342Y-93548934D02*
X107989533Y-93587030D01*
X107989533Y-93587030D02*
X108141914Y-93587030D01*
X108141914Y-93587030D02*
X108218104Y-93548934D01*
X108218104Y-93548934D02*
X108256200Y-93510839D01*
X108256200Y-93510839D02*
X108294295Y-93434649D01*
X108294295Y-93434649D02*
X108294295Y-93282268D01*
X108294295Y-93282268D02*
X108256200Y-93206077D01*
X108256200Y-93206077D02*
X108218104Y-93167982D01*
X108218104Y-93167982D02*
X108141914Y-93129887D01*
X108141914Y-93129887D02*
X107989533Y-93129887D01*
X107989533Y-93129887D02*
X107913342Y-93167982D01*
X107913342Y-93167982D02*
X107875247Y-93206077D01*
X107875247Y-93206077D02*
X107837152Y-93282268D01*
X103332390Y-95291792D02*
X103294295Y-95367982D01*
X103294295Y-95367982D02*
X103294295Y-95482268D01*
X103294295Y-95482268D02*
X103332390Y-95596554D01*
X103332390Y-95596554D02*
X103408580Y-95672744D01*
X103408580Y-95672744D02*
X103484771Y-95710839D01*
X103484771Y-95710839D02*
X103637152Y-95748935D01*
X103637152Y-95748935D02*
X103751438Y-95748935D01*
X103751438Y-95748935D02*
X103903819Y-95710839D01*
X103903819Y-95710839D02*
X103980009Y-95672744D01*
X103980009Y-95672744D02*
X104056200Y-95596554D01*
X104056200Y-95596554D02*
X104094295Y-95482268D01*
X104094295Y-95482268D02*
X104094295Y-95406077D01*
X104094295Y-95406077D02*
X104056200Y-95291792D01*
X104056200Y-95291792D02*
X104018104Y-95253696D01*
X104018104Y-95253696D02*
X103751438Y-95253696D01*
X103751438Y-95253696D02*
X103751438Y-95406077D01*
X104094295Y-94910839D02*
X103294295Y-94910839D01*
X103294295Y-94910839D02*
X104094295Y-94453696D01*
X104094295Y-94453696D02*
X103294295Y-94453696D01*
X104094295Y-94072744D02*
X103294295Y-94072744D01*
X103294295Y-94072744D02*
X103294295Y-93882268D01*
X103294295Y-93882268D02*
X103332390Y-93767982D01*
X103332390Y-93767982D02*
X103408580Y-93691792D01*
X103408580Y-93691792D02*
X103484771Y-93653697D01*
X103484771Y-93653697D02*
X103637152Y-93615601D01*
X103637152Y-93615601D02*
X103751438Y-93615601D01*
X103751438Y-93615601D02*
X103903819Y-93653697D01*
X103903819Y-93653697D02*
X103980009Y-93691792D01*
X103980009Y-93691792D02*
X104056200Y-93767982D01*
X104056200Y-93767982D02*
X104094295Y-93882268D01*
X104094295Y-93882268D02*
X104094295Y-94072744D01*
D11*
X115541979Y-89258800D02*
X116532455Y-89258800D01*
X115656265Y-89830228D02*
X116113408Y-89830228D01*
X116151503Y-90096895D02*
X116380074Y-90096895D01*
X115656265Y-89487371D02*
X115656265Y-89906419D01*
X115656265Y-89487371D02*
X116113408Y-89487371D01*
X116113408Y-89487371D02*
X116113408Y-89830228D01*
X116380074Y-89258800D02*
X116380074Y-90096895D01*
X116722931Y-89296895D02*
X117713407Y-89296895D01*
X117218169Y-89639752D02*
X117370550Y-89639752D01*
X117218169Y-89182609D02*
X117218169Y-89296895D01*
X117370550Y-89296895D02*
X117370550Y-89601657D01*
X117522931Y-89411180D02*
X117713407Y-89601657D01*
X116913407Y-89411180D02*
X116761026Y-89563561D01*
X117027693Y-89754038D02*
X116761026Y-89868323D01*
X117141979Y-89296895D02*
X117065788Y-89525466D01*
X117065788Y-89525466D02*
X116951502Y-89639752D01*
X117027693Y-89754038D02*
X117484836Y-89754038D01*
X117484836Y-89754038D02*
X117370550Y-89906419D01*
X117370550Y-89906419D02*
X117180074Y-89982609D01*
X117180074Y-89982609D02*
X116951502Y-90058800D01*
X116951502Y-90058800D02*
X116722931Y-90096895D01*
X117027693Y-89754038D02*
X117141979Y-89906419D01*
X117141979Y-89906419D02*
X117332455Y-90020704D01*
X117332455Y-90020704D02*
X117637217Y-90096895D01*
X117903883Y-89411180D02*
X118246740Y-89411180D01*
X118322931Y-89563561D02*
X118856264Y-89563561D01*
X118246740Y-90058800D02*
X118665788Y-90058800D01*
X117941978Y-90096895D02*
X118094359Y-90096895D01*
X118094359Y-89182609D02*
X118094359Y-90096895D01*
X118322931Y-89296895D02*
X118322931Y-89906419D01*
X118246740Y-89639752D02*
X117903883Y-89754038D01*
X118627693Y-89258800D02*
X118665788Y-89487371D01*
X118665788Y-89487371D02*
X118627693Y-89601657D01*
X118627693Y-89601657D02*
X118703883Y-89982609D01*
X118780073Y-89220704D02*
X118399121Y-89296895D01*
X118589597Y-89868323D02*
X118208645Y-89906419D01*
X118894359Y-89906419D02*
X118856264Y-90096895D01*
X118856264Y-90096895D02*
X118780073Y-90058800D01*
X119465787Y-89373085D02*
X120037216Y-89373085D01*
X119084835Y-89411180D02*
X119427692Y-89411180D01*
X119122930Y-90096895D02*
X119275311Y-90096895D01*
X119275311Y-89182609D02*
X119275311Y-90096895D01*
X119732454Y-89182609D02*
X119732454Y-89334990D01*
X119427692Y-89677847D02*
X119084835Y-89754038D01*
X119580073Y-89525466D02*
X119580073Y-89792133D01*
X119580073Y-89792133D02*
X119541978Y-89982609D01*
X119580073Y-89525466D02*
X119884835Y-89525466D01*
X119884835Y-89525466D02*
X119922930Y-90096895D01*
X119922930Y-90096895D02*
X120037216Y-90096895D01*
X120037216Y-90096895D02*
X120113406Y-89944514D01*
X120380073Y-89487371D02*
X120684835Y-89487371D01*
X120837216Y-89487371D02*
X121141977Y-89487371D01*
X120265787Y-89601657D02*
X121218168Y-89601657D01*
X120380073Y-90058800D02*
X120684835Y-90058800D01*
X120380073Y-89258800D02*
X120380073Y-89487371D01*
X120418168Y-89792133D02*
X120418168Y-90096895D01*
X120380073Y-89258800D02*
X120684835Y-89258800D01*
X120684835Y-89258800D02*
X120684835Y-89487371D01*
X120303882Y-89830228D02*
X120684835Y-89830228D01*
X120684835Y-89830228D02*
X120684835Y-90096895D01*
X120837216Y-89258800D02*
X120837216Y-89487371D01*
X120837216Y-89258800D02*
X121180073Y-89258800D01*
X121180073Y-89258800D02*
X121180073Y-89487371D01*
X120722930Y-89601657D02*
X121256263Y-89830228D01*
X120722930Y-89525466D02*
X120570549Y-89715942D01*
X120570549Y-89715942D02*
X120265787Y-89830228D01*
X120837216Y-89830228D02*
X121180073Y-89830228D01*
X121180073Y-89830228D02*
X121180073Y-90096895D01*
X120837216Y-89830228D02*
X120837216Y-90096895D01*
X120837216Y-90058800D02*
X121180073Y-90058800D01*
X121561025Y-89373085D02*
X121903882Y-89373085D01*
X121751501Y-89220704D02*
X121561025Y-89792133D01*
X121561025Y-89792133D02*
X121713406Y-89563561D01*
X121713406Y-89563561D02*
X121789596Y-89639752D01*
X121789596Y-89639752D02*
X121827691Y-89868323D01*
X121980072Y-89601657D02*
X121637215Y-89868323D01*
X121637215Y-89868323D02*
X121637215Y-89982609D01*
X121637215Y-89982609D02*
X121751501Y-90096895D01*
X121751501Y-90096895D02*
X121941977Y-90096895D01*
X122665786Y-89296895D02*
X123237215Y-89296895D01*
X122284834Y-89411180D02*
X122589596Y-89411180D01*
X122627691Y-89563561D02*
X123275310Y-89563561D01*
X122627691Y-89715942D02*
X123275310Y-89715942D01*
X122322929Y-90096895D02*
X122475310Y-90096895D01*
X122475310Y-89182609D02*
X122475310Y-90096895D01*
X122970548Y-89182609D02*
X122970548Y-89334990D01*
X123122929Y-89334990D02*
X123084834Y-89525466D01*
X122818167Y-89373085D02*
X122856263Y-89563561D01*
X122856263Y-89563561D02*
X122741977Y-89906419D01*
X122741977Y-89906419D02*
X123237215Y-90096895D01*
X122589596Y-89677847D02*
X122284834Y-89754038D01*
X123122929Y-89715942D02*
X123046739Y-89906419D01*
X123046739Y-89906419D02*
X122970548Y-89982609D01*
X122970548Y-89982609D02*
X122627691Y-90096895D01*
X123884834Y-89296895D02*
X124456262Y-89296895D01*
X123922929Y-89449276D02*
X124380072Y-89449276D01*
X123465786Y-89677847D02*
X123808643Y-89677847D01*
X124265786Y-90096895D02*
X124456262Y-90096895D01*
X123656262Y-89639752D02*
X123656262Y-90096895D01*
X124151500Y-89182609D02*
X124151500Y-89449276D01*
X124265786Y-89715942D02*
X124265786Y-90096895D01*
X123884834Y-89601657D02*
X124418167Y-89601657D01*
X124418167Y-89601657D02*
X124418167Y-89715942D01*
X124456262Y-89982609D02*
X124456262Y-90096895D01*
X123465786Y-89373085D02*
X123618167Y-89487371D01*
X123618167Y-89487371D02*
X123503881Y-89639752D01*
X123808643Y-89754038D02*
X123808643Y-89944514D01*
X123732453Y-89525466D02*
X123808643Y-89715942D01*
X123618167Y-89182609D02*
X123541976Y-89411180D01*
X123770548Y-89296895D02*
X123618167Y-89487371D01*
X123541976Y-89792133D02*
X123465786Y-89982609D01*
X123884834Y-89601657D02*
X123884834Y-89715942D01*
X124037215Y-89754038D02*
X124037215Y-89944514D01*
X124037215Y-89944514D02*
X123846738Y-90096895D01*
D10*
X101824819Y-55566666D02*
X101348628Y-55899999D01*
X101824819Y-56138094D02*
X100824819Y-56138094D01*
X100824819Y-56138094D02*
X100824819Y-55757142D01*
X100824819Y-55757142D02*
X100872438Y-55661904D01*
X100872438Y-55661904D02*
X100920057Y-55614285D01*
X100920057Y-55614285D02*
X101015295Y-55566666D01*
X101015295Y-55566666D02*
X101158152Y-55566666D01*
X101158152Y-55566666D02*
X101253390Y-55614285D01*
X101253390Y-55614285D02*
X101301009Y-55661904D01*
X101301009Y-55661904D02*
X101348628Y-55757142D01*
X101348628Y-55757142D02*
X101348628Y-56138094D01*
X100920057Y-55185713D02*
X100872438Y-55138094D01*
X100872438Y-55138094D02*
X100824819Y-55042856D01*
X100824819Y-55042856D02*
X100824819Y-54804761D01*
X100824819Y-54804761D02*
X100872438Y-54709523D01*
X100872438Y-54709523D02*
X100920057Y-54661904D01*
X100920057Y-54661904D02*
X101015295Y-54614285D01*
X101015295Y-54614285D02*
X101110533Y-54614285D01*
X101110533Y-54614285D02*
X101253390Y-54661904D01*
X101253390Y-54661904D02*
X101824819Y-55233332D01*
X101824819Y-55233332D02*
X101824819Y-54614285D01*
X103454819Y-55519047D02*
X103454819Y-56090475D01*
X103454819Y-55804761D02*
X102454819Y-55804761D01*
X102454819Y-55804761D02*
X102597676Y-55899999D01*
X102597676Y-55899999D02*
X102692914Y-55995237D01*
X102692914Y-55995237D02*
X102740533Y-56090475D01*
X103454819Y-55090475D02*
X102454819Y-55090475D01*
X103073866Y-54995237D02*
X103454819Y-54709523D01*
X102788152Y-54709523D02*
X103169104Y-55090475D01*
X108600000Y-38054819D02*
X108600000Y-37054819D01*
X109076190Y-38054819D02*
X109076190Y-37054819D01*
X109076190Y-37054819D02*
X109647618Y-38054819D01*
X109647618Y-38054819D02*
X109647618Y-37054819D01*
X110647618Y-38054819D02*
X110076190Y-38054819D01*
X110361904Y-38054819D02*
X110361904Y-37054819D01*
X110361904Y-37054819D02*
X110266666Y-37197676D01*
X110266666Y-37197676D02*
X110171428Y-37292914D01*
X110171428Y-37292914D02*
X110076190Y-37340533D01*
D12*
X105560237Y-40374318D02*
X105560237Y-39104318D01*
X106890714Y-40253365D02*
X106830238Y-40313842D01*
X106830238Y-40313842D02*
X106648809Y-40374318D01*
X106648809Y-40374318D02*
X106527857Y-40374318D01*
X106527857Y-40374318D02*
X106346428Y-40313842D01*
X106346428Y-40313842D02*
X106225476Y-40192889D01*
X106225476Y-40192889D02*
X106164999Y-40071937D01*
X106164999Y-40071937D02*
X106104523Y-39830032D01*
X106104523Y-39830032D02*
X106104523Y-39648603D01*
X106104523Y-39648603D02*
X106164999Y-39406699D01*
X106164999Y-39406699D02*
X106225476Y-39285746D01*
X106225476Y-39285746D02*
X106346428Y-39164794D01*
X106346428Y-39164794D02*
X106527857Y-39104318D01*
X106527857Y-39104318D02*
X106648809Y-39104318D01*
X106648809Y-39104318D02*
X106830238Y-39164794D01*
X106830238Y-39164794D02*
X106890714Y-39225270D01*
X108100238Y-40374318D02*
X107374523Y-40374318D01*
X107737380Y-40374318D02*
X107737380Y-39104318D01*
X107737380Y-39104318D02*
X107616428Y-39285746D01*
X107616428Y-39285746D02*
X107495476Y-39406699D01*
X107495476Y-39406699D02*
X107374523Y-39467175D01*
D10*
X118273333Y-49129580D02*
X118225714Y-49177200D01*
X118225714Y-49177200D02*
X118082857Y-49224819D01*
X118082857Y-49224819D02*
X117987619Y-49224819D01*
X117987619Y-49224819D02*
X117844762Y-49177200D01*
X117844762Y-49177200D02*
X117749524Y-49081961D01*
X117749524Y-49081961D02*
X117701905Y-48986723D01*
X117701905Y-48986723D02*
X117654286Y-48796247D01*
X117654286Y-48796247D02*
X117654286Y-48653390D01*
X117654286Y-48653390D02*
X117701905Y-48462914D01*
X117701905Y-48462914D02*
X117749524Y-48367676D01*
X117749524Y-48367676D02*
X117844762Y-48272438D01*
X117844762Y-48272438D02*
X117987619Y-48224819D01*
X117987619Y-48224819D02*
X118082857Y-48224819D01*
X118082857Y-48224819D02*
X118225714Y-48272438D01*
X118225714Y-48272438D02*
X118273333Y-48320057D01*
X119225714Y-49224819D02*
X118654286Y-49224819D01*
X118940000Y-49224819D02*
X118940000Y-48224819D01*
X118940000Y-48224819D02*
X118844762Y-48367676D01*
X118844762Y-48367676D02*
X118749524Y-48462914D01*
X118749524Y-48462914D02*
X118654286Y-48510533D01*
X117185714Y-51254819D02*
X117280952Y-51254819D01*
X117280952Y-51254819D02*
X117376190Y-51302438D01*
X117376190Y-51302438D02*
X117423809Y-51350057D01*
X117423809Y-51350057D02*
X117471428Y-51445295D01*
X117471428Y-51445295D02*
X117519047Y-51635771D01*
X117519047Y-51635771D02*
X117519047Y-51873866D01*
X117519047Y-51873866D02*
X117471428Y-52064342D01*
X117471428Y-52064342D02*
X117423809Y-52159580D01*
X117423809Y-52159580D02*
X117376190Y-52207200D01*
X117376190Y-52207200D02*
X117280952Y-52254819D01*
X117280952Y-52254819D02*
X117185714Y-52254819D01*
X117185714Y-52254819D02*
X117090476Y-52207200D01*
X117090476Y-52207200D02*
X117042857Y-52159580D01*
X117042857Y-52159580D02*
X116995238Y-52064342D01*
X116995238Y-52064342D02*
X116947619Y-51873866D01*
X116947619Y-51873866D02*
X116947619Y-51635771D01*
X116947619Y-51635771D02*
X116995238Y-51445295D01*
X116995238Y-51445295D02*
X117042857Y-51350057D01*
X117042857Y-51350057D02*
X117090476Y-51302438D01*
X117090476Y-51302438D02*
X117185714Y-51254819D01*
X117947619Y-52159580D02*
X117995238Y-52207200D01*
X117995238Y-52207200D02*
X117947619Y-52254819D01*
X117947619Y-52254819D02*
X117900000Y-52207200D01*
X117900000Y-52207200D02*
X117947619Y-52159580D01*
X117947619Y-52159580D02*
X117947619Y-52254819D01*
X118947618Y-52254819D02*
X118376190Y-52254819D01*
X118661904Y-52254819D02*
X118661904Y-51254819D01*
X118661904Y-51254819D02*
X118566666Y-51397676D01*
X118566666Y-51397676D02*
X118471428Y-51492914D01*
X118471428Y-51492914D02*
X118376190Y-51540533D01*
X119804761Y-51588152D02*
X119804761Y-52254819D01*
X119376190Y-51588152D02*
X119376190Y-52111961D01*
X119376190Y-52111961D02*
X119423809Y-52207200D01*
X119423809Y-52207200D02*
X119519047Y-52254819D01*
X119519047Y-52254819D02*
X119661904Y-52254819D01*
X119661904Y-52254819D02*
X119757142Y-52207200D01*
X119757142Y-52207200D02*
X119804761Y-52159580D01*
D12*
X115774318Y-72639762D02*
X114504318Y-72639762D01*
X115653365Y-71309285D02*
X115713842Y-71369761D01*
X115713842Y-71369761D02*
X115774318Y-71551190D01*
X115774318Y-71551190D02*
X115774318Y-71672142D01*
X115774318Y-71672142D02*
X115713842Y-71853571D01*
X115713842Y-71853571D02*
X115592889Y-71974523D01*
X115592889Y-71974523D02*
X115471937Y-72035000D01*
X115471937Y-72035000D02*
X115230032Y-72095476D01*
X115230032Y-72095476D02*
X115048603Y-72095476D01*
X115048603Y-72095476D02*
X114806699Y-72035000D01*
X114806699Y-72035000D02*
X114685746Y-71974523D01*
X114685746Y-71974523D02*
X114564794Y-71853571D01*
X114564794Y-71853571D02*
X114504318Y-71672142D01*
X114504318Y-71672142D02*
X114504318Y-71551190D01*
X114504318Y-71551190D02*
X114564794Y-71369761D01*
X114564794Y-71369761D02*
X114625270Y-71309285D01*
X114625270Y-70825476D02*
X114564794Y-70765000D01*
X114564794Y-70765000D02*
X114504318Y-70644047D01*
X114504318Y-70644047D02*
X114504318Y-70341666D01*
X114504318Y-70341666D02*
X114564794Y-70220714D01*
X114564794Y-70220714D02*
X114625270Y-70160238D01*
X114625270Y-70160238D02*
X114746222Y-70099761D01*
X114746222Y-70099761D02*
X114867175Y-70099761D01*
X114867175Y-70099761D02*
X115048603Y-70160238D01*
X115048603Y-70160238D02*
X115774318Y-70885952D01*
X115774318Y-70885952D02*
X115774318Y-70099761D01*
D10*
X102359580Y-47366666D02*
X102407200Y-47414285D01*
X102407200Y-47414285D02*
X102454819Y-47557142D01*
X102454819Y-47557142D02*
X102454819Y-47652380D01*
X102454819Y-47652380D02*
X102407200Y-47795237D01*
X102407200Y-47795237D02*
X102311961Y-47890475D01*
X102311961Y-47890475D02*
X102216723Y-47938094D01*
X102216723Y-47938094D02*
X102026247Y-47985713D01*
X102026247Y-47985713D02*
X101883390Y-47985713D01*
X101883390Y-47985713D02*
X101692914Y-47938094D01*
X101692914Y-47938094D02*
X101597676Y-47890475D01*
X101597676Y-47890475D02*
X101502438Y-47795237D01*
X101502438Y-47795237D02*
X101454819Y-47652380D01*
X101454819Y-47652380D02*
X101454819Y-47557142D01*
X101454819Y-47557142D02*
X101502438Y-47414285D01*
X101502438Y-47414285D02*
X101550057Y-47366666D01*
X101788152Y-46509523D02*
X102454819Y-46509523D01*
X101407200Y-46747618D02*
X102121485Y-46985713D01*
X102121485Y-46985713D02*
X102121485Y-46366666D01*
X101254819Y-51414285D02*
X101254819Y-51319047D01*
X101254819Y-51319047D02*
X101302438Y-51223809D01*
X101302438Y-51223809D02*
X101350057Y-51176190D01*
X101350057Y-51176190D02*
X101445295Y-51128571D01*
X101445295Y-51128571D02*
X101635771Y-51080952D01*
X101635771Y-51080952D02*
X101873866Y-51080952D01*
X101873866Y-51080952D02*
X102064342Y-51128571D01*
X102064342Y-51128571D02*
X102159580Y-51176190D01*
X102159580Y-51176190D02*
X102207200Y-51223809D01*
X102207200Y-51223809D02*
X102254819Y-51319047D01*
X102254819Y-51319047D02*
X102254819Y-51414285D01*
X102254819Y-51414285D02*
X102207200Y-51509523D01*
X102207200Y-51509523D02*
X102159580Y-51557142D01*
X102159580Y-51557142D02*
X102064342Y-51604761D01*
X102064342Y-51604761D02*
X101873866Y-51652380D01*
X101873866Y-51652380D02*
X101635771Y-51652380D01*
X101635771Y-51652380D02*
X101445295Y-51604761D01*
X101445295Y-51604761D02*
X101350057Y-51557142D01*
X101350057Y-51557142D02*
X101302438Y-51509523D01*
X101302438Y-51509523D02*
X101254819Y-51414285D01*
X102159580Y-50652380D02*
X102207200Y-50604761D01*
X102207200Y-50604761D02*
X102254819Y-50652380D01*
X102254819Y-50652380D02*
X102207200Y-50699999D01*
X102207200Y-50699999D02*
X102159580Y-50652380D01*
X102159580Y-50652380D02*
X102254819Y-50652380D01*
X102254819Y-49652381D02*
X102254819Y-50223809D01*
X102254819Y-49938095D02*
X101254819Y-49938095D01*
X101254819Y-49938095D02*
X101397676Y-50033333D01*
X101397676Y-50033333D02*
X101492914Y-50128571D01*
X101492914Y-50128571D02*
X101540533Y-50223809D01*
X101588152Y-48795238D02*
X102254819Y-48795238D01*
X101588152Y-49223809D02*
X102111961Y-49223809D01*
X102111961Y-49223809D02*
X102207200Y-49176190D01*
X102207200Y-49176190D02*
X102254819Y-49080952D01*
X102254819Y-49080952D02*
X102254819Y-48938095D01*
X102254819Y-48938095D02*
X102207200Y-48842857D01*
X102207200Y-48842857D02*
X102159580Y-48795238D01*
X101759580Y-38166666D02*
X101807200Y-38214285D01*
X101807200Y-38214285D02*
X101854819Y-38357142D01*
X101854819Y-38357142D02*
X101854819Y-38452380D01*
X101854819Y-38452380D02*
X101807200Y-38595237D01*
X101807200Y-38595237D02*
X101711961Y-38690475D01*
X101711961Y-38690475D02*
X101616723Y-38738094D01*
X101616723Y-38738094D02*
X101426247Y-38785713D01*
X101426247Y-38785713D02*
X101283390Y-38785713D01*
X101283390Y-38785713D02*
X101092914Y-38738094D01*
X101092914Y-38738094D02*
X100997676Y-38690475D01*
X100997676Y-38690475D02*
X100902438Y-38595237D01*
X100902438Y-38595237D02*
X100854819Y-38452380D01*
X100854819Y-38452380D02*
X100854819Y-38357142D01*
X100854819Y-38357142D02*
X100902438Y-38214285D01*
X100902438Y-38214285D02*
X100950057Y-38166666D01*
X100854819Y-37833332D02*
X100854819Y-37214285D01*
X100854819Y-37214285D02*
X101235771Y-37547618D01*
X101235771Y-37547618D02*
X101235771Y-37404761D01*
X101235771Y-37404761D02*
X101283390Y-37309523D01*
X101283390Y-37309523D02*
X101331009Y-37261904D01*
X101331009Y-37261904D02*
X101426247Y-37214285D01*
X101426247Y-37214285D02*
X101664342Y-37214285D01*
X101664342Y-37214285D02*
X101759580Y-37261904D01*
X101759580Y-37261904D02*
X101807200Y-37309523D01*
X101807200Y-37309523D02*
X101854819Y-37404761D01*
X101854819Y-37404761D02*
X101854819Y-37690475D01*
X101854819Y-37690475D02*
X101807200Y-37785713D01*
X101807200Y-37785713D02*
X101759580Y-37833332D01*
X100854819Y-42014285D02*
X100854819Y-41919047D01*
X100854819Y-41919047D02*
X100902438Y-41823809D01*
X100902438Y-41823809D02*
X100950057Y-41776190D01*
X100950057Y-41776190D02*
X101045295Y-41728571D01*
X101045295Y-41728571D02*
X101235771Y-41680952D01*
X101235771Y-41680952D02*
X101473866Y-41680952D01*
X101473866Y-41680952D02*
X101664342Y-41728571D01*
X101664342Y-41728571D02*
X101759580Y-41776190D01*
X101759580Y-41776190D02*
X101807200Y-41823809D01*
X101807200Y-41823809D02*
X101854819Y-41919047D01*
X101854819Y-41919047D02*
X101854819Y-42014285D01*
X101854819Y-42014285D02*
X101807200Y-42109523D01*
X101807200Y-42109523D02*
X101759580Y-42157142D01*
X101759580Y-42157142D02*
X101664342Y-42204761D01*
X101664342Y-42204761D02*
X101473866Y-42252380D01*
X101473866Y-42252380D02*
X101235771Y-42252380D01*
X101235771Y-42252380D02*
X101045295Y-42204761D01*
X101045295Y-42204761D02*
X100950057Y-42157142D01*
X100950057Y-42157142D02*
X100902438Y-42109523D01*
X100902438Y-42109523D02*
X100854819Y-42014285D01*
X101759580Y-41252380D02*
X101807200Y-41204761D01*
X101807200Y-41204761D02*
X101854819Y-41252380D01*
X101854819Y-41252380D02*
X101807200Y-41299999D01*
X101807200Y-41299999D02*
X101759580Y-41252380D01*
X101759580Y-41252380D02*
X101854819Y-41252380D01*
X101854819Y-40252381D02*
X101854819Y-40823809D01*
X101854819Y-40538095D02*
X100854819Y-40538095D01*
X100854819Y-40538095D02*
X100997676Y-40633333D01*
X100997676Y-40633333D02*
X101092914Y-40728571D01*
X101092914Y-40728571D02*
X101140533Y-40823809D01*
X101188152Y-39395238D02*
X101854819Y-39395238D01*
X101188152Y-39823809D02*
X101711961Y-39823809D01*
X101711961Y-39823809D02*
X101807200Y-39776190D01*
X101807200Y-39776190D02*
X101854819Y-39680952D01*
X101854819Y-39680952D02*
X101854819Y-39538095D01*
X101854819Y-39538095D02*
X101807200Y-39442857D01*
X101807200Y-39442857D02*
X101759580Y-39395238D01*
X128104819Y-78098690D02*
X128104819Y-77908214D01*
X128104819Y-77908214D02*
X128152438Y-77812976D01*
X128152438Y-77812976D02*
X128247676Y-77717738D01*
X128247676Y-77717738D02*
X128438152Y-77670119D01*
X128438152Y-77670119D02*
X128771485Y-77670119D01*
X128771485Y-77670119D02*
X128961961Y-77717738D01*
X128961961Y-77717738D02*
X129057200Y-77812976D01*
X129057200Y-77812976D02*
X129104819Y-77908214D01*
X129104819Y-77908214D02*
X129104819Y-78098690D01*
X129104819Y-78098690D02*
X129057200Y-78193928D01*
X129057200Y-78193928D02*
X128961961Y-78289166D01*
X128961961Y-78289166D02*
X128771485Y-78336785D01*
X128771485Y-78336785D02*
X128438152Y-78336785D01*
X128438152Y-78336785D02*
X128247676Y-78289166D01*
X128247676Y-78289166D02*
X128152438Y-78193928D01*
X128152438Y-78193928D02*
X128104819Y-78098690D01*
X128104819Y-77241547D02*
X128914342Y-77241547D01*
X128914342Y-77241547D02*
X129009580Y-77193928D01*
X129009580Y-77193928D02*
X129057200Y-77146309D01*
X129057200Y-77146309D02*
X129104819Y-77051071D01*
X129104819Y-77051071D02*
X129104819Y-76860595D01*
X129104819Y-76860595D02*
X129057200Y-76765357D01*
X129057200Y-76765357D02*
X129009580Y-76717738D01*
X129009580Y-76717738D02*
X128914342Y-76670119D01*
X128914342Y-76670119D02*
X128104819Y-76670119D01*
X128104819Y-76336785D02*
X128104819Y-75765357D01*
X129104819Y-76051071D02*
X128104819Y-76051071D01*
X129104819Y-74908214D02*
X129104819Y-75479642D01*
X129104819Y-75193928D02*
X128104819Y-75193928D01*
X128104819Y-75193928D02*
X128247676Y-75289166D01*
X128247676Y-75289166D02*
X128342914Y-75384404D01*
X128342914Y-75384404D02*
X128390533Y-75479642D01*
X116604761Y-88254819D02*
X116033333Y-88254819D01*
X116319047Y-88254819D02*
X116319047Y-87254819D01*
X116319047Y-87254819D02*
X116223809Y-87397676D01*
X116223809Y-87397676D02*
X116128571Y-87492914D01*
X116128571Y-87492914D02*
X116033333Y-87540533D01*
X117223809Y-87254819D02*
X117319047Y-87254819D01*
X117319047Y-87254819D02*
X117414285Y-87302438D01*
X117414285Y-87302438D02*
X117461904Y-87350057D01*
X117461904Y-87350057D02*
X117509523Y-87445295D01*
X117509523Y-87445295D02*
X117557142Y-87635771D01*
X117557142Y-87635771D02*
X117557142Y-87873866D01*
X117557142Y-87873866D02*
X117509523Y-88064342D01*
X117509523Y-88064342D02*
X117461904Y-88159580D01*
X117461904Y-88159580D02*
X117414285Y-88207200D01*
X117414285Y-88207200D02*
X117319047Y-88254819D01*
X117319047Y-88254819D02*
X117223809Y-88254819D01*
X117223809Y-88254819D02*
X117128571Y-88207200D01*
X117128571Y-88207200D02*
X117080952Y-88159580D01*
X117080952Y-88159580D02*
X117033333Y-88064342D01*
X117033333Y-88064342D02*
X116985714Y-87873866D01*
X116985714Y-87873866D02*
X116985714Y-87635771D01*
X116985714Y-87635771D02*
X117033333Y-87445295D01*
X117033333Y-87445295D02*
X117080952Y-87350057D01*
X117080952Y-87350057D02*
X117128571Y-87302438D01*
X117128571Y-87302438D02*
X117223809Y-87254819D01*
X117985714Y-88254819D02*
X117985714Y-87254819D01*
X118080952Y-87873866D02*
X118366666Y-88254819D01*
X118366666Y-87588152D02*
X117985714Y-87969104D01*
X115605333Y-55359580D02*
X115557714Y-55407200D01*
X115557714Y-55407200D02*
X115414857Y-55454819D01*
X115414857Y-55454819D02*
X115319619Y-55454819D01*
X115319619Y-55454819D02*
X115176762Y-55407200D01*
X115176762Y-55407200D02*
X115081524Y-55311961D01*
X115081524Y-55311961D02*
X115033905Y-55216723D01*
X115033905Y-55216723D02*
X114986286Y-55026247D01*
X114986286Y-55026247D02*
X114986286Y-54883390D01*
X114986286Y-54883390D02*
X115033905Y-54692914D01*
X115033905Y-54692914D02*
X115081524Y-54597676D01*
X115081524Y-54597676D02*
X115176762Y-54502438D01*
X115176762Y-54502438D02*
X115319619Y-54454819D01*
X115319619Y-54454819D02*
X115414857Y-54454819D01*
X115414857Y-54454819D02*
X115557714Y-54502438D01*
X115557714Y-54502438D02*
X115605333Y-54550057D01*
X116462476Y-54454819D02*
X116272000Y-54454819D01*
X116272000Y-54454819D02*
X116176762Y-54502438D01*
X116176762Y-54502438D02*
X116129143Y-54550057D01*
X116129143Y-54550057D02*
X116033905Y-54692914D01*
X116033905Y-54692914D02*
X115986286Y-54883390D01*
X115986286Y-54883390D02*
X115986286Y-55264342D01*
X115986286Y-55264342D02*
X116033905Y-55359580D01*
X116033905Y-55359580D02*
X116081524Y-55407200D01*
X116081524Y-55407200D02*
X116176762Y-55454819D01*
X116176762Y-55454819D02*
X116367238Y-55454819D01*
X116367238Y-55454819D02*
X116462476Y-55407200D01*
X116462476Y-55407200D02*
X116510095Y-55359580D01*
X116510095Y-55359580D02*
X116557714Y-55264342D01*
X116557714Y-55264342D02*
X116557714Y-55026247D01*
X116557714Y-55026247D02*
X116510095Y-54931009D01*
X116510095Y-54931009D02*
X116462476Y-54883390D01*
X116462476Y-54883390D02*
X116367238Y-54835771D01*
X116367238Y-54835771D02*
X116176762Y-54835771D01*
X116176762Y-54835771D02*
X116081524Y-54883390D01*
X116081524Y-54883390D02*
X116033905Y-54931009D01*
X116033905Y-54931009D02*
X115986286Y-55026247D01*
X120357714Y-54454819D02*
X120452952Y-54454819D01*
X120452952Y-54454819D02*
X120548190Y-54502438D01*
X120548190Y-54502438D02*
X120595809Y-54550057D01*
X120595809Y-54550057D02*
X120643428Y-54645295D01*
X120643428Y-54645295D02*
X120691047Y-54835771D01*
X120691047Y-54835771D02*
X120691047Y-55073866D01*
X120691047Y-55073866D02*
X120643428Y-55264342D01*
X120643428Y-55264342D02*
X120595809Y-55359580D01*
X120595809Y-55359580D02*
X120548190Y-55407200D01*
X120548190Y-55407200D02*
X120452952Y-55454819D01*
X120452952Y-55454819D02*
X120357714Y-55454819D01*
X120357714Y-55454819D02*
X120262476Y-55407200D01*
X120262476Y-55407200D02*
X120214857Y-55359580D01*
X120214857Y-55359580D02*
X120167238Y-55264342D01*
X120167238Y-55264342D02*
X120119619Y-55073866D01*
X120119619Y-55073866D02*
X120119619Y-54835771D01*
X120119619Y-54835771D02*
X120167238Y-54645295D01*
X120167238Y-54645295D02*
X120214857Y-54550057D01*
X120214857Y-54550057D02*
X120262476Y-54502438D01*
X120262476Y-54502438D02*
X120357714Y-54454819D01*
X121119619Y-55359580D02*
X121167238Y-55407200D01*
X121167238Y-55407200D02*
X121119619Y-55454819D01*
X121119619Y-55454819D02*
X121072000Y-55407200D01*
X121072000Y-55407200D02*
X121119619Y-55359580D01*
X121119619Y-55359580D02*
X121119619Y-55454819D01*
X122119618Y-55454819D02*
X121548190Y-55454819D01*
X121833904Y-55454819D02*
X121833904Y-54454819D01*
X121833904Y-54454819D02*
X121738666Y-54597676D01*
X121738666Y-54597676D02*
X121643428Y-54692914D01*
X121643428Y-54692914D02*
X121548190Y-54740533D01*
X122976761Y-54788152D02*
X122976761Y-55454819D01*
X122548190Y-54788152D02*
X122548190Y-55311961D01*
X122548190Y-55311961D02*
X122595809Y-55407200D01*
X122595809Y-55407200D02*
X122691047Y-55454819D01*
X122691047Y-55454819D02*
X122833904Y-55454819D01*
X122833904Y-55454819D02*
X122929142Y-55407200D01*
X122929142Y-55407200D02*
X122976761Y-55359580D01*
X98833333Y-93454819D02*
X98500000Y-92978628D01*
X98261905Y-93454819D02*
X98261905Y-92454819D01*
X98261905Y-92454819D02*
X98642857Y-92454819D01*
X98642857Y-92454819D02*
X98738095Y-92502438D01*
X98738095Y-92502438D02*
X98785714Y-92550057D01*
X98785714Y-92550057D02*
X98833333Y-92645295D01*
X98833333Y-92645295D02*
X98833333Y-92788152D01*
X98833333Y-92788152D02*
X98785714Y-92883390D01*
X98785714Y-92883390D02*
X98738095Y-92931009D01*
X98738095Y-92931009D02*
X98642857Y-92978628D01*
X98642857Y-92978628D02*
X98261905Y-92978628D01*
X99785714Y-93454819D02*
X99214286Y-93454819D01*
X99500000Y-93454819D02*
X99500000Y-92454819D01*
X99500000Y-92454819D02*
X99404762Y-92597676D01*
X99404762Y-92597676D02*
X99309524Y-92692914D01*
X99309524Y-92692914D02*
X99214286Y-92740533D01*
X114159580Y-45966666D02*
X114207200Y-46014285D01*
X114207200Y-46014285D02*
X114254819Y-46157142D01*
X114254819Y-46157142D02*
X114254819Y-46252380D01*
X114254819Y-46252380D02*
X114207200Y-46395237D01*
X114207200Y-46395237D02*
X114111961Y-46490475D01*
X114111961Y-46490475D02*
X114016723Y-46538094D01*
X114016723Y-46538094D02*
X113826247Y-46585713D01*
X113826247Y-46585713D02*
X113683390Y-46585713D01*
X113683390Y-46585713D02*
X113492914Y-46538094D01*
X113492914Y-46538094D02*
X113397676Y-46490475D01*
X113397676Y-46490475D02*
X113302438Y-46395237D01*
X113302438Y-46395237D02*
X113254819Y-46252380D01*
X113254819Y-46252380D02*
X113254819Y-46157142D01*
X113254819Y-46157142D02*
X113302438Y-46014285D01*
X113302438Y-46014285D02*
X113350057Y-45966666D01*
X113350057Y-45585713D02*
X113302438Y-45538094D01*
X113302438Y-45538094D02*
X113254819Y-45442856D01*
X113254819Y-45442856D02*
X113254819Y-45204761D01*
X113254819Y-45204761D02*
X113302438Y-45109523D01*
X113302438Y-45109523D02*
X113350057Y-45061904D01*
X113350057Y-45061904D02*
X113445295Y-45014285D01*
X113445295Y-45014285D02*
X113540533Y-45014285D01*
X113540533Y-45014285D02*
X113683390Y-45061904D01*
X113683390Y-45061904D02*
X114254819Y-45633332D01*
X114254819Y-45633332D02*
X114254819Y-45014285D01*
X112654819Y-47766666D02*
X112654819Y-48338094D01*
X112654819Y-48052380D02*
X111654819Y-48052380D01*
X111654819Y-48052380D02*
X111797676Y-48147618D01*
X111797676Y-48147618D02*
X111892914Y-48242856D01*
X111892914Y-48242856D02*
X111940533Y-48338094D01*
X111988152Y-46909523D02*
X112654819Y-46909523D01*
X111988152Y-47338094D02*
X112511961Y-47338094D01*
X112511961Y-47338094D02*
X112607200Y-47290475D01*
X112607200Y-47290475D02*
X112654819Y-47195237D01*
X112654819Y-47195237D02*
X112654819Y-47052380D01*
X112654819Y-47052380D02*
X112607200Y-46957142D01*
X112607200Y-46957142D02*
X112559580Y-46909523D01*
X84038095Y-64454819D02*
X84038095Y-65264342D01*
X84038095Y-65264342D02*
X84085714Y-65359580D01*
X84085714Y-65359580D02*
X84133333Y-65407200D01*
X84133333Y-65407200D02*
X84228571Y-65454819D01*
X84228571Y-65454819D02*
X84419047Y-65454819D01*
X84419047Y-65454819D02*
X84514285Y-65407200D01*
X84514285Y-65407200D02*
X84561904Y-65359580D01*
X84561904Y-65359580D02*
X84609523Y-65264342D01*
X84609523Y-65264342D02*
X84609523Y-64454819D01*
X85609523Y-65454819D02*
X85038095Y-65454819D01*
X85323809Y-65454819D02*
X85323809Y-64454819D01*
X85323809Y-64454819D02*
X85228571Y-64597676D01*
X85228571Y-64597676D02*
X85133333Y-64692914D01*
X85133333Y-64692914D02*
X85038095Y-64740533D01*
X70789998Y-81900868D02*
X70709185Y-81927805D01*
X70709185Y-81927805D02*
X70628373Y-82008618D01*
X70628373Y-82008618D02*
X70574498Y-82116367D01*
X70574498Y-82116367D02*
X70574498Y-82224117D01*
X70574498Y-82224117D02*
X70601436Y-82304929D01*
X70601436Y-82304929D02*
X70682248Y-82439616D01*
X70682248Y-82439616D02*
X70763060Y-82520428D01*
X70763060Y-82520428D02*
X70897747Y-82601241D01*
X70897747Y-82601241D02*
X70978560Y-82628178D01*
X70978560Y-82628178D02*
X71086309Y-82628178D01*
X71086309Y-82628178D02*
X71194059Y-82574303D01*
X71194059Y-82574303D02*
X71247934Y-82520428D01*
X71247934Y-82520428D02*
X71301808Y-82412679D01*
X71301808Y-82412679D02*
X71301808Y-82358804D01*
X71301808Y-82358804D02*
X71113247Y-82170242D01*
X71113247Y-82170242D02*
X71005497Y-82277992D01*
X71598120Y-82170242D02*
X71032434Y-81604557D01*
X71032434Y-81604557D02*
X71247934Y-81389057D01*
X71247934Y-81389057D02*
X71328746Y-81362120D01*
X71328746Y-81362120D02*
X71382621Y-81362120D01*
X71382621Y-81362120D02*
X71463433Y-81389057D01*
X71463433Y-81389057D02*
X71544245Y-81469870D01*
X71544245Y-81469870D02*
X71571182Y-81550682D01*
X71571182Y-81550682D02*
X71571182Y-81604557D01*
X71571182Y-81604557D02*
X71544245Y-81685369D01*
X71544245Y-81685369D02*
X71328746Y-81900868D01*
X72460117Y-81308245D02*
X72136868Y-81631494D01*
X72298492Y-81469870D02*
X71732807Y-80904184D01*
X71732807Y-80904184D02*
X71759744Y-81038871D01*
X71759744Y-81038871D02*
X71759744Y-81146621D01*
X71759744Y-81146621D02*
X71732807Y-81227433D01*
X72082993Y-80553998D02*
X72433179Y-80203812D01*
X72433179Y-80203812D02*
X72460117Y-80607873D01*
X72460117Y-80607873D02*
X72540929Y-80527060D01*
X72540929Y-80527060D02*
X72621741Y-80500123D01*
X72621741Y-80500123D02*
X72675616Y-80500123D01*
X72675616Y-80500123D02*
X72756428Y-80527060D01*
X72756428Y-80527060D02*
X72891115Y-80661747D01*
X72891115Y-80661747D02*
X72918053Y-80742560D01*
X72918053Y-80742560D02*
X72918053Y-80796434D01*
X72918053Y-80796434D02*
X72891115Y-80877247D01*
X72891115Y-80877247D02*
X72729491Y-81038871D01*
X72729491Y-81038871D02*
X72648679Y-81065808D01*
X72648679Y-81065808D02*
X72594804Y-81065808D01*
X96897998Y-86980868D02*
X96817185Y-87007805D01*
X96817185Y-87007805D02*
X96736373Y-87088618D01*
X96736373Y-87088618D02*
X96682498Y-87196367D01*
X96682498Y-87196367D02*
X96682498Y-87304117D01*
X96682498Y-87304117D02*
X96709436Y-87384929D01*
X96709436Y-87384929D02*
X96790248Y-87519616D01*
X96790248Y-87519616D02*
X96871060Y-87600428D01*
X96871060Y-87600428D02*
X97005747Y-87681241D01*
X97005747Y-87681241D02*
X97086560Y-87708178D01*
X97086560Y-87708178D02*
X97194309Y-87708178D01*
X97194309Y-87708178D02*
X97302059Y-87654303D01*
X97302059Y-87654303D02*
X97355934Y-87600428D01*
X97355934Y-87600428D02*
X97409808Y-87492679D01*
X97409808Y-87492679D02*
X97409808Y-87438804D01*
X97409808Y-87438804D02*
X97221247Y-87250242D01*
X97221247Y-87250242D02*
X97113497Y-87357992D01*
X97706120Y-87250242D02*
X97140434Y-86684557D01*
X97140434Y-86684557D02*
X97355934Y-86469057D01*
X97355934Y-86469057D02*
X97436746Y-86442120D01*
X97436746Y-86442120D02*
X97490621Y-86442120D01*
X97490621Y-86442120D02*
X97571433Y-86469057D01*
X97571433Y-86469057D02*
X97652245Y-86549870D01*
X97652245Y-86549870D02*
X97679182Y-86630682D01*
X97679182Y-86630682D02*
X97679182Y-86684557D01*
X97679182Y-86684557D02*
X97652245Y-86765369D01*
X97652245Y-86765369D02*
X97436746Y-86980868D01*
X98568117Y-86388245D02*
X98244868Y-86711494D01*
X98406492Y-86549870D02*
X97840807Y-85984184D01*
X97840807Y-85984184D02*
X97867744Y-86118871D01*
X97867744Y-86118871D02*
X97867744Y-86226621D01*
X97867744Y-86226621D02*
X97840807Y-86307433D01*
X98190993Y-85633998D02*
X98568117Y-85256874D01*
X98568117Y-85256874D02*
X98891366Y-86064996D01*
X71313372Y-61311494D02*
X71232560Y-61338431D01*
X71232560Y-61338431D02*
X71151748Y-61419243D01*
X71151748Y-61419243D02*
X71097873Y-61526993D01*
X71097873Y-61526993D02*
X71097873Y-61634742D01*
X71097873Y-61634742D02*
X71124810Y-61715555D01*
X71124810Y-61715555D02*
X71205623Y-61850242D01*
X71205623Y-61850242D02*
X71286435Y-61931054D01*
X71286435Y-61931054D02*
X71421122Y-62011866D01*
X71421122Y-62011866D02*
X71501934Y-62038803D01*
X71501934Y-62038803D02*
X71609684Y-62038803D01*
X71609684Y-62038803D02*
X71717433Y-61984929D01*
X71717433Y-61984929D02*
X71771308Y-61931054D01*
X71771308Y-61931054D02*
X71825183Y-61823304D01*
X71825183Y-61823304D02*
X71825183Y-61769429D01*
X71825183Y-61769429D02*
X71636621Y-61580868D01*
X71636621Y-61580868D02*
X71528871Y-61688617D01*
X72121494Y-61580868D02*
X71555809Y-61015182D01*
X71555809Y-61015182D02*
X71771308Y-60799683D01*
X71771308Y-60799683D02*
X71852120Y-60772746D01*
X71852120Y-60772746D02*
X71905995Y-60772746D01*
X71905995Y-60772746D02*
X71986807Y-60799683D01*
X71986807Y-60799683D02*
X72067619Y-60880495D01*
X72067619Y-60880495D02*
X72094557Y-60961307D01*
X72094557Y-60961307D02*
X72094557Y-61015182D01*
X72094557Y-61015182D02*
X72067619Y-61095994D01*
X72067619Y-61095994D02*
X71852120Y-61311494D01*
X72363931Y-60207060D02*
X72256181Y-60314810D01*
X72256181Y-60314810D02*
X72229244Y-60395622D01*
X72229244Y-60395622D02*
X72229244Y-60449497D01*
X72229244Y-60449497D02*
X72256181Y-60584184D01*
X72256181Y-60584184D02*
X72336993Y-60718871D01*
X72336993Y-60718871D02*
X72552493Y-60934370D01*
X72552493Y-60934370D02*
X72633305Y-60961307D01*
X72633305Y-60961307D02*
X72687180Y-60961307D01*
X72687180Y-60961307D02*
X72767992Y-60934370D01*
X72767992Y-60934370D02*
X72875741Y-60826620D01*
X72875741Y-60826620D02*
X72902679Y-60745808D01*
X72902679Y-60745808D02*
X72902679Y-60691933D01*
X72902679Y-60691933D02*
X72875741Y-60611121D01*
X72875741Y-60611121D02*
X72741054Y-60476434D01*
X72741054Y-60476434D02*
X72660242Y-60449497D01*
X72660242Y-60449497D02*
X72606367Y-60449497D01*
X72606367Y-60449497D02*
X72525555Y-60476434D01*
X72525555Y-60476434D02*
X72417806Y-60584184D01*
X72417806Y-60584184D02*
X72390868Y-60664996D01*
X72390868Y-60664996D02*
X72390868Y-60718871D01*
X72390868Y-60718871D02*
X72417806Y-60799683D01*
X97638651Y-66943710D02*
X97180716Y-66862898D01*
X97315403Y-67266959D02*
X96749717Y-66701274D01*
X96749717Y-66701274D02*
X96965216Y-66485775D01*
X96965216Y-66485775D02*
X97046029Y-66458837D01*
X97046029Y-66458837D02*
X97099903Y-66458837D01*
X97099903Y-66458837D02*
X97180716Y-66485775D01*
X97180716Y-66485775D02*
X97261528Y-66566587D01*
X97261528Y-66566587D02*
X97288465Y-66647399D01*
X97288465Y-66647399D02*
X97288465Y-66701274D01*
X97288465Y-66701274D02*
X97261528Y-66782086D01*
X97261528Y-66782086D02*
X97046029Y-66997585D01*
X97315403Y-66135588D02*
X97773338Y-66593524D01*
X97773338Y-66593524D02*
X97854151Y-66620462D01*
X97854151Y-66620462D02*
X97908025Y-66620462D01*
X97908025Y-66620462D02*
X97988838Y-66593524D01*
X97988838Y-66593524D02*
X98096587Y-66485775D01*
X98096587Y-66485775D02*
X98123525Y-66404962D01*
X98123525Y-66404962D02*
X98123525Y-66351088D01*
X98123525Y-66351088D02*
X98096587Y-66270275D01*
X98096587Y-66270275D02*
X97638651Y-65812340D01*
X98473711Y-66108651D02*
X97908025Y-65542966D01*
X97908025Y-65542966D02*
X98796959Y-65785402D01*
X98796959Y-65785402D02*
X98231274Y-65219717D01*
X96897998Y-69200868D02*
X96817185Y-69227805D01*
X96817185Y-69227805D02*
X96736373Y-69308618D01*
X96736373Y-69308618D02*
X96682498Y-69416367D01*
X96682498Y-69416367D02*
X96682498Y-69524117D01*
X96682498Y-69524117D02*
X96709436Y-69604929D01*
X96709436Y-69604929D02*
X96790248Y-69739616D01*
X96790248Y-69739616D02*
X96871060Y-69820428D01*
X96871060Y-69820428D02*
X97005747Y-69901241D01*
X97005747Y-69901241D02*
X97086560Y-69928178D01*
X97086560Y-69928178D02*
X97194309Y-69928178D01*
X97194309Y-69928178D02*
X97302059Y-69874303D01*
X97302059Y-69874303D02*
X97355934Y-69820428D01*
X97355934Y-69820428D02*
X97409808Y-69712679D01*
X97409808Y-69712679D02*
X97409808Y-69658804D01*
X97409808Y-69658804D02*
X97221247Y-69470242D01*
X97221247Y-69470242D02*
X97113497Y-69577992D01*
X97706120Y-69470242D02*
X97140434Y-68904557D01*
X97140434Y-68904557D02*
X97355934Y-68689057D01*
X97355934Y-68689057D02*
X97436746Y-68662120D01*
X97436746Y-68662120D02*
X97490621Y-68662120D01*
X97490621Y-68662120D02*
X97571433Y-68689057D01*
X97571433Y-68689057D02*
X97652245Y-68769870D01*
X97652245Y-68769870D02*
X97679182Y-68850682D01*
X97679182Y-68850682D02*
X97679182Y-68904557D01*
X97679182Y-68904557D02*
X97652245Y-68985369D01*
X97652245Y-68985369D02*
X97436746Y-69200868D01*
X97733057Y-68419683D02*
X97733057Y-68365809D01*
X97733057Y-68365809D02*
X97759995Y-68284996D01*
X97759995Y-68284996D02*
X97894682Y-68150309D01*
X97894682Y-68150309D02*
X97975494Y-68123372D01*
X97975494Y-68123372D02*
X98029369Y-68123372D01*
X98029369Y-68123372D02*
X98110181Y-68150309D01*
X98110181Y-68150309D02*
X98164056Y-68204184D01*
X98164056Y-68204184D02*
X98217930Y-68311934D01*
X98217930Y-68311934D02*
X98217930Y-68958431D01*
X98217930Y-68958431D02*
X98568117Y-68608245D01*
X98271805Y-67880935D02*
X98271805Y-67827060D01*
X98271805Y-67827060D02*
X98298743Y-67746248D01*
X98298743Y-67746248D02*
X98433430Y-67611561D01*
X98433430Y-67611561D02*
X98514242Y-67584624D01*
X98514242Y-67584624D02*
X98568117Y-67584624D01*
X98568117Y-67584624D02*
X98648929Y-67611561D01*
X98648929Y-67611561D02*
X98702804Y-67665436D01*
X98702804Y-67665436D02*
X98756679Y-67773186D01*
X98756679Y-67773186D02*
X98756679Y-68419683D01*
X98756679Y-68419683D02*
X99106865Y-68069497D01*
X71286435Y-84198431D02*
X71205623Y-84225368D01*
X71205623Y-84225368D02*
X71124811Y-84306180D01*
X71124811Y-84306180D02*
X71070936Y-84413930D01*
X71070936Y-84413930D02*
X71070936Y-84521680D01*
X71070936Y-84521680D02*
X71097873Y-84602492D01*
X71097873Y-84602492D02*
X71178685Y-84737179D01*
X71178685Y-84737179D02*
X71259498Y-84817991D01*
X71259498Y-84817991D02*
X71394185Y-84898803D01*
X71394185Y-84898803D02*
X71474997Y-84925741D01*
X71474997Y-84925741D02*
X71582746Y-84925741D01*
X71582746Y-84925741D02*
X71690496Y-84871866D01*
X71690496Y-84871866D02*
X71744371Y-84817991D01*
X71744371Y-84817991D02*
X71798246Y-84710241D01*
X71798246Y-84710241D02*
X71798246Y-84656367D01*
X71798246Y-84656367D02*
X71609684Y-84467805D01*
X71609684Y-84467805D02*
X71501934Y-84575554D01*
X72094557Y-84467805D02*
X71528872Y-83902119D01*
X71528872Y-83902119D02*
X72417806Y-84144556D01*
X72417806Y-84144556D02*
X71852120Y-83578871D01*
X72687180Y-83875182D02*
X72121494Y-83309497D01*
X72121494Y-83309497D02*
X72256181Y-83174810D01*
X72256181Y-83174810D02*
X72363931Y-83120935D01*
X72363931Y-83120935D02*
X72471680Y-83120935D01*
X72471680Y-83120935D02*
X72552493Y-83147872D01*
X72552493Y-83147872D02*
X72687180Y-83228685D01*
X72687180Y-83228685D02*
X72767992Y-83309497D01*
X72767992Y-83309497D02*
X72848804Y-83444184D01*
X72848804Y-83444184D02*
X72875741Y-83524996D01*
X72875741Y-83524996D02*
X72875741Y-83632746D01*
X72875741Y-83632746D02*
X72821867Y-83740495D01*
X72821867Y-83740495D02*
X72687180Y-83875182D01*
X71286435Y-71498431D02*
X71205623Y-71525368D01*
X71205623Y-71525368D02*
X71124811Y-71606180D01*
X71124811Y-71606180D02*
X71070936Y-71713930D01*
X71070936Y-71713930D02*
X71070936Y-71821680D01*
X71070936Y-71821680D02*
X71097873Y-71902492D01*
X71097873Y-71902492D02*
X71178685Y-72037179D01*
X71178685Y-72037179D02*
X71259498Y-72117991D01*
X71259498Y-72117991D02*
X71394185Y-72198803D01*
X71394185Y-72198803D02*
X71474997Y-72225741D01*
X71474997Y-72225741D02*
X71582746Y-72225741D01*
X71582746Y-72225741D02*
X71690496Y-72171866D01*
X71690496Y-72171866D02*
X71744371Y-72117991D01*
X71744371Y-72117991D02*
X71798246Y-72010241D01*
X71798246Y-72010241D02*
X71798246Y-71956367D01*
X71798246Y-71956367D02*
X71609684Y-71767805D01*
X71609684Y-71767805D02*
X71501934Y-71875554D01*
X72094557Y-71767805D02*
X71528872Y-71202119D01*
X71528872Y-71202119D02*
X72417806Y-71444556D01*
X72417806Y-71444556D02*
X71852120Y-70878871D01*
X72687180Y-71175182D02*
X72121494Y-70609497D01*
X72121494Y-70609497D02*
X72256181Y-70474810D01*
X72256181Y-70474810D02*
X72363931Y-70420935D01*
X72363931Y-70420935D02*
X72471680Y-70420935D01*
X72471680Y-70420935D02*
X72552493Y-70447872D01*
X72552493Y-70447872D02*
X72687180Y-70528685D01*
X72687180Y-70528685D02*
X72767992Y-70609497D01*
X72767992Y-70609497D02*
X72848804Y-70744184D01*
X72848804Y-70744184D02*
X72875741Y-70824996D01*
X72875741Y-70824996D02*
X72875741Y-70932746D01*
X72875741Y-70932746D02*
X72821867Y-71040495D01*
X72821867Y-71040495D02*
X72687180Y-71175182D01*
X70643998Y-76820868D02*
X70563185Y-76847805D01*
X70563185Y-76847805D02*
X70482373Y-76928618D01*
X70482373Y-76928618D02*
X70428498Y-77036367D01*
X70428498Y-77036367D02*
X70428498Y-77144117D01*
X70428498Y-77144117D02*
X70455436Y-77224929D01*
X70455436Y-77224929D02*
X70536248Y-77359616D01*
X70536248Y-77359616D02*
X70617060Y-77440428D01*
X70617060Y-77440428D02*
X70751747Y-77521241D01*
X70751747Y-77521241D02*
X70832560Y-77548178D01*
X70832560Y-77548178D02*
X70940309Y-77548178D01*
X70940309Y-77548178D02*
X71048059Y-77494303D01*
X71048059Y-77494303D02*
X71101934Y-77440428D01*
X71101934Y-77440428D02*
X71155808Y-77332679D01*
X71155808Y-77332679D02*
X71155808Y-77278804D01*
X71155808Y-77278804D02*
X70967247Y-77090242D01*
X70967247Y-77090242D02*
X70859497Y-77197992D01*
X71452120Y-77090242D02*
X70886434Y-76524557D01*
X70886434Y-76524557D02*
X71101934Y-76309057D01*
X71101934Y-76309057D02*
X71182746Y-76282120D01*
X71182746Y-76282120D02*
X71236621Y-76282120D01*
X71236621Y-76282120D02*
X71317433Y-76309057D01*
X71317433Y-76309057D02*
X71398245Y-76389870D01*
X71398245Y-76389870D02*
X71425182Y-76470682D01*
X71425182Y-76470682D02*
X71425182Y-76524557D01*
X71425182Y-76524557D02*
X71398245Y-76605369D01*
X71398245Y-76605369D02*
X71182746Y-76820868D01*
X72314117Y-76228245D02*
X71990868Y-76551494D01*
X72152492Y-76389870D02*
X71586807Y-75824184D01*
X71586807Y-75824184D02*
X71613744Y-75958871D01*
X71613744Y-75958871D02*
X71613744Y-76066621D01*
X71613744Y-76066621D02*
X71586807Y-76147433D01*
X72852865Y-75689497D02*
X72529616Y-76012746D01*
X72691240Y-75851121D02*
X72125555Y-75285436D01*
X72125555Y-75285436D02*
X72152492Y-75420123D01*
X72152492Y-75420123D02*
X72152492Y-75527873D01*
X72152492Y-75527873D02*
X72125555Y-75608685D01*
X96951873Y-59741240D02*
X97221247Y-59471866D01*
X97059623Y-59956739D02*
X96682499Y-59202492D01*
X96682499Y-59202492D02*
X97436746Y-59579615D01*
X97382871Y-58555994D02*
X97302059Y-58582932D01*
X97302059Y-58582932D02*
X97221247Y-58663744D01*
X97221247Y-58663744D02*
X97167372Y-58771494D01*
X97167372Y-58771494D02*
X97167372Y-58879243D01*
X97167372Y-58879243D02*
X97194310Y-58960055D01*
X97194310Y-58960055D02*
X97275122Y-59094742D01*
X97275122Y-59094742D02*
X97355934Y-59175555D01*
X97355934Y-59175555D02*
X97490621Y-59256367D01*
X97490621Y-59256367D02*
X97571433Y-59283304D01*
X97571433Y-59283304D02*
X97679183Y-59283304D01*
X97679183Y-59283304D02*
X97786932Y-59229429D01*
X97786932Y-59229429D02*
X97840807Y-59175555D01*
X97840807Y-59175555D02*
X97894682Y-59067805D01*
X97894682Y-59067805D02*
X97894682Y-59013930D01*
X97894682Y-59013930D02*
X97706120Y-58825368D01*
X97706120Y-58825368D02*
X97598371Y-58933118D01*
X98190993Y-58825368D02*
X97625308Y-58259683D01*
X97625308Y-58259683D02*
X98514242Y-58502120D01*
X98514242Y-58502120D02*
X97948557Y-57936434D01*
X98783616Y-58232746D02*
X98217931Y-57667060D01*
X98217931Y-57667060D02*
X98352618Y-57532373D01*
X98352618Y-57532373D02*
X98460367Y-57478498D01*
X98460367Y-57478498D02*
X98568117Y-57478498D01*
X98568117Y-57478498D02*
X98648929Y-57505436D01*
X98648929Y-57505436D02*
X98783616Y-57586248D01*
X98783616Y-57586248D02*
X98864428Y-57667060D01*
X98864428Y-57667060D02*
X98945241Y-57801747D01*
X98945241Y-57801747D02*
X98972178Y-57882560D01*
X98972178Y-57882560D02*
X98972178Y-57990309D01*
X98972178Y-57990309D02*
X98918303Y-58098059D01*
X98918303Y-58098059D02*
X98783616Y-58232746D01*
X96897998Y-81900868D02*
X96817185Y-81927805D01*
X96817185Y-81927805D02*
X96736373Y-82008618D01*
X96736373Y-82008618D02*
X96682498Y-82116367D01*
X96682498Y-82116367D02*
X96682498Y-82224117D01*
X96682498Y-82224117D02*
X96709436Y-82304929D01*
X96709436Y-82304929D02*
X96790248Y-82439616D01*
X96790248Y-82439616D02*
X96871060Y-82520428D01*
X96871060Y-82520428D02*
X97005747Y-82601241D01*
X97005747Y-82601241D02*
X97086560Y-82628178D01*
X97086560Y-82628178D02*
X97194309Y-82628178D01*
X97194309Y-82628178D02*
X97302059Y-82574303D01*
X97302059Y-82574303D02*
X97355934Y-82520428D01*
X97355934Y-82520428D02*
X97409808Y-82412679D01*
X97409808Y-82412679D02*
X97409808Y-82358804D01*
X97409808Y-82358804D02*
X97221247Y-82170242D01*
X97221247Y-82170242D02*
X97113497Y-82277992D01*
X97706120Y-82170242D02*
X97140434Y-81604557D01*
X97140434Y-81604557D02*
X97355934Y-81389057D01*
X97355934Y-81389057D02*
X97436746Y-81362120D01*
X97436746Y-81362120D02*
X97490621Y-81362120D01*
X97490621Y-81362120D02*
X97571433Y-81389057D01*
X97571433Y-81389057D02*
X97652245Y-81469870D01*
X97652245Y-81469870D02*
X97679182Y-81550682D01*
X97679182Y-81550682D02*
X97679182Y-81604557D01*
X97679182Y-81604557D02*
X97652245Y-81685369D01*
X97652245Y-81685369D02*
X97436746Y-81900868D01*
X98568117Y-81308245D02*
X98244868Y-81631494D01*
X98406492Y-81469870D02*
X97840807Y-80904184D01*
X97840807Y-80904184D02*
X97867744Y-81038871D01*
X97867744Y-81038871D02*
X97867744Y-81146621D01*
X97867744Y-81146621D02*
X97840807Y-81227433D01*
X98568117Y-80661747D02*
X98487305Y-80688685D01*
X98487305Y-80688685D02*
X98433430Y-80688685D01*
X98433430Y-80688685D02*
X98352618Y-80661747D01*
X98352618Y-80661747D02*
X98325680Y-80634810D01*
X98325680Y-80634810D02*
X98298743Y-80553998D01*
X98298743Y-80553998D02*
X98298743Y-80500123D01*
X98298743Y-80500123D02*
X98325680Y-80419311D01*
X98325680Y-80419311D02*
X98433430Y-80311561D01*
X98433430Y-80311561D02*
X98514242Y-80284624D01*
X98514242Y-80284624D02*
X98568117Y-80284624D01*
X98568117Y-80284624D02*
X98648929Y-80311561D01*
X98648929Y-80311561D02*
X98675866Y-80338499D01*
X98675866Y-80338499D02*
X98702804Y-80419311D01*
X98702804Y-80419311D02*
X98702804Y-80473186D01*
X98702804Y-80473186D02*
X98675866Y-80553998D01*
X98675866Y-80553998D02*
X98568117Y-80661747D01*
X98568117Y-80661747D02*
X98541179Y-80742560D01*
X98541179Y-80742560D02*
X98541179Y-80796434D01*
X98541179Y-80796434D02*
X98568117Y-80877247D01*
X98568117Y-80877247D02*
X98675866Y-80984996D01*
X98675866Y-80984996D02*
X98756679Y-81011934D01*
X98756679Y-81011934D02*
X98810553Y-81011934D01*
X98810553Y-81011934D02*
X98891366Y-80984996D01*
X98891366Y-80984996D02*
X98999115Y-80877247D01*
X98999115Y-80877247D02*
X99026053Y-80796434D01*
X99026053Y-80796434D02*
X99026053Y-80742560D01*
X99026053Y-80742560D02*
X98999115Y-80661747D01*
X98999115Y-80661747D02*
X98891366Y-80553998D01*
X98891366Y-80553998D02*
X98810553Y-80527060D01*
X98810553Y-80527060D02*
X98756679Y-80527060D01*
X98756679Y-80527060D02*
X98675866Y-80553998D01*
X71313372Y-66391494D02*
X71232560Y-66418431D01*
X71232560Y-66418431D02*
X71151748Y-66499243D01*
X71151748Y-66499243D02*
X71097873Y-66606993D01*
X71097873Y-66606993D02*
X71097873Y-66714742D01*
X71097873Y-66714742D02*
X71124810Y-66795555D01*
X71124810Y-66795555D02*
X71205623Y-66930242D01*
X71205623Y-66930242D02*
X71286435Y-67011054D01*
X71286435Y-67011054D02*
X71421122Y-67091866D01*
X71421122Y-67091866D02*
X71501934Y-67118803D01*
X71501934Y-67118803D02*
X71609684Y-67118803D01*
X71609684Y-67118803D02*
X71717433Y-67064929D01*
X71717433Y-67064929D02*
X71771308Y-67011054D01*
X71771308Y-67011054D02*
X71825183Y-66903304D01*
X71825183Y-66903304D02*
X71825183Y-66849429D01*
X71825183Y-66849429D02*
X71636621Y-66660868D01*
X71636621Y-66660868D02*
X71528871Y-66768617D01*
X72121494Y-66660868D02*
X71555809Y-66095182D01*
X71555809Y-66095182D02*
X71771308Y-65879683D01*
X71771308Y-65879683D02*
X71852120Y-65852746D01*
X71852120Y-65852746D02*
X71905995Y-65852746D01*
X71905995Y-65852746D02*
X71986807Y-65879683D01*
X71986807Y-65879683D02*
X72067619Y-65960495D01*
X72067619Y-65960495D02*
X72094557Y-66041307D01*
X72094557Y-66041307D02*
X72094557Y-66095182D01*
X72094557Y-66095182D02*
X72067619Y-66175994D01*
X72067619Y-66175994D02*
X71852120Y-66391494D01*
X72444743Y-65691121D02*
X72363931Y-65718059D01*
X72363931Y-65718059D02*
X72310056Y-65718059D01*
X72310056Y-65718059D02*
X72229244Y-65691121D01*
X72229244Y-65691121D02*
X72202306Y-65664184D01*
X72202306Y-65664184D02*
X72175369Y-65583372D01*
X72175369Y-65583372D02*
X72175369Y-65529497D01*
X72175369Y-65529497D02*
X72202306Y-65448685D01*
X72202306Y-65448685D02*
X72310056Y-65340935D01*
X72310056Y-65340935D02*
X72390868Y-65313998D01*
X72390868Y-65313998D02*
X72444743Y-65313998D01*
X72444743Y-65313998D02*
X72525555Y-65340935D01*
X72525555Y-65340935D02*
X72552493Y-65367872D01*
X72552493Y-65367872D02*
X72579430Y-65448685D01*
X72579430Y-65448685D02*
X72579430Y-65502559D01*
X72579430Y-65502559D02*
X72552493Y-65583372D01*
X72552493Y-65583372D02*
X72444743Y-65691121D01*
X72444743Y-65691121D02*
X72417806Y-65771933D01*
X72417806Y-65771933D02*
X72417806Y-65825808D01*
X72417806Y-65825808D02*
X72444743Y-65906620D01*
X72444743Y-65906620D02*
X72552493Y-66014370D01*
X72552493Y-66014370D02*
X72633305Y-66041307D01*
X72633305Y-66041307D02*
X72687180Y-66041307D01*
X72687180Y-66041307D02*
X72767992Y-66014370D01*
X72767992Y-66014370D02*
X72875741Y-65906620D01*
X72875741Y-65906620D02*
X72902679Y-65825808D01*
X72902679Y-65825808D02*
X72902679Y-65771933D01*
X72902679Y-65771933D02*
X72875741Y-65691121D01*
X72875741Y-65691121D02*
X72767992Y-65583372D01*
X72767992Y-65583372D02*
X72687180Y-65556434D01*
X72687180Y-65556434D02*
X72633305Y-65556434D01*
X72633305Y-65556434D02*
X72552493Y-65583372D01*
X71313372Y-56231494D02*
X71232560Y-56258431D01*
X71232560Y-56258431D02*
X71151748Y-56339243D01*
X71151748Y-56339243D02*
X71097873Y-56446993D01*
X71097873Y-56446993D02*
X71097873Y-56554742D01*
X71097873Y-56554742D02*
X71124810Y-56635555D01*
X71124810Y-56635555D02*
X71205623Y-56770242D01*
X71205623Y-56770242D02*
X71286435Y-56851054D01*
X71286435Y-56851054D02*
X71421122Y-56931866D01*
X71421122Y-56931866D02*
X71501934Y-56958803D01*
X71501934Y-56958803D02*
X71609684Y-56958803D01*
X71609684Y-56958803D02*
X71717433Y-56904929D01*
X71717433Y-56904929D02*
X71771308Y-56851054D01*
X71771308Y-56851054D02*
X71825183Y-56743304D01*
X71825183Y-56743304D02*
X71825183Y-56689429D01*
X71825183Y-56689429D02*
X71636621Y-56500868D01*
X71636621Y-56500868D02*
X71528871Y-56608617D01*
X72121494Y-56500868D02*
X71555809Y-55935182D01*
X71555809Y-55935182D02*
X71771308Y-55719683D01*
X71771308Y-55719683D02*
X71852120Y-55692746D01*
X71852120Y-55692746D02*
X71905995Y-55692746D01*
X71905995Y-55692746D02*
X71986807Y-55719683D01*
X71986807Y-55719683D02*
X72067619Y-55800495D01*
X72067619Y-55800495D02*
X72094557Y-55881307D01*
X72094557Y-55881307D02*
X72094557Y-55935182D01*
X72094557Y-55935182D02*
X72067619Y-56015994D01*
X72067619Y-56015994D02*
X71852120Y-56231494D01*
X72390868Y-55100123D02*
X72121494Y-55369497D01*
X72121494Y-55369497D02*
X72363931Y-55665808D01*
X72363931Y-55665808D02*
X72363931Y-55611933D01*
X72363931Y-55611933D02*
X72390868Y-55531121D01*
X72390868Y-55531121D02*
X72525555Y-55396434D01*
X72525555Y-55396434D02*
X72606367Y-55369497D01*
X72606367Y-55369497D02*
X72660242Y-55369497D01*
X72660242Y-55369497D02*
X72741054Y-55396434D01*
X72741054Y-55396434D02*
X72875741Y-55531121D01*
X72875741Y-55531121D02*
X72902679Y-55611933D01*
X72902679Y-55611933D02*
X72902679Y-55665808D01*
X72902679Y-55665808D02*
X72875741Y-55746620D01*
X72875741Y-55746620D02*
X72741054Y-55881307D01*
X72741054Y-55881307D02*
X72660242Y-55908245D01*
X72660242Y-55908245D02*
X72606367Y-55908245D01*
X96897998Y-79360868D02*
X96817185Y-79387805D01*
X96817185Y-79387805D02*
X96736373Y-79468618D01*
X96736373Y-79468618D02*
X96682498Y-79576367D01*
X96682498Y-79576367D02*
X96682498Y-79684117D01*
X96682498Y-79684117D02*
X96709436Y-79764929D01*
X96709436Y-79764929D02*
X96790248Y-79899616D01*
X96790248Y-79899616D02*
X96871060Y-79980428D01*
X96871060Y-79980428D02*
X97005747Y-80061241D01*
X97005747Y-80061241D02*
X97086560Y-80088178D01*
X97086560Y-80088178D02*
X97194309Y-80088178D01*
X97194309Y-80088178D02*
X97302059Y-80034303D01*
X97302059Y-80034303D02*
X97355934Y-79980428D01*
X97355934Y-79980428D02*
X97409808Y-79872679D01*
X97409808Y-79872679D02*
X97409808Y-79818804D01*
X97409808Y-79818804D02*
X97221247Y-79630242D01*
X97221247Y-79630242D02*
X97113497Y-79737992D01*
X97706120Y-79630242D02*
X97140434Y-79064557D01*
X97140434Y-79064557D02*
X97355934Y-78849057D01*
X97355934Y-78849057D02*
X97436746Y-78822120D01*
X97436746Y-78822120D02*
X97490621Y-78822120D01*
X97490621Y-78822120D02*
X97571433Y-78849057D01*
X97571433Y-78849057D02*
X97652245Y-78929870D01*
X97652245Y-78929870D02*
X97679182Y-79010682D01*
X97679182Y-79010682D02*
X97679182Y-79064557D01*
X97679182Y-79064557D02*
X97652245Y-79145369D01*
X97652245Y-79145369D02*
X97436746Y-79360868D01*
X98568117Y-78768245D02*
X98244868Y-79091494D01*
X98406492Y-78929870D02*
X97840807Y-78364184D01*
X97840807Y-78364184D02*
X97867744Y-78498871D01*
X97867744Y-78498871D02*
X97867744Y-78606621D01*
X97867744Y-78606621D02*
X97840807Y-78687433D01*
X98837491Y-78498871D02*
X98945240Y-78391121D01*
X98945240Y-78391121D02*
X98972178Y-78310309D01*
X98972178Y-78310309D02*
X98972178Y-78256434D01*
X98972178Y-78256434D02*
X98945240Y-78121747D01*
X98945240Y-78121747D02*
X98864428Y-77987060D01*
X98864428Y-77987060D02*
X98648929Y-77771561D01*
X98648929Y-77771561D02*
X98568117Y-77744624D01*
X98568117Y-77744624D02*
X98514242Y-77744624D01*
X98514242Y-77744624D02*
X98433430Y-77771561D01*
X98433430Y-77771561D02*
X98325680Y-77879311D01*
X98325680Y-77879311D02*
X98298743Y-77960123D01*
X98298743Y-77960123D02*
X98298743Y-78013998D01*
X98298743Y-78013998D02*
X98325680Y-78094810D01*
X98325680Y-78094810D02*
X98460367Y-78229497D01*
X98460367Y-78229497D02*
X98541179Y-78256434D01*
X98541179Y-78256434D02*
X98595054Y-78256434D01*
X98595054Y-78256434D02*
X98675866Y-78229497D01*
X98675866Y-78229497D02*
X98783616Y-78121747D01*
X98783616Y-78121747D02*
X98810553Y-78040935D01*
X98810553Y-78040935D02*
X98810553Y-77987060D01*
X98810553Y-77987060D02*
X98783616Y-77906248D01*
X70789998Y-89520868D02*
X70709185Y-89547805D01*
X70709185Y-89547805D02*
X70628373Y-89628618D01*
X70628373Y-89628618D02*
X70574498Y-89736367D01*
X70574498Y-89736367D02*
X70574498Y-89844117D01*
X70574498Y-89844117D02*
X70601436Y-89924929D01*
X70601436Y-89924929D02*
X70682248Y-90059616D01*
X70682248Y-90059616D02*
X70763060Y-90140428D01*
X70763060Y-90140428D02*
X70897747Y-90221241D01*
X70897747Y-90221241D02*
X70978560Y-90248178D01*
X70978560Y-90248178D02*
X71086309Y-90248178D01*
X71086309Y-90248178D02*
X71194059Y-90194303D01*
X71194059Y-90194303D02*
X71247934Y-90140428D01*
X71247934Y-90140428D02*
X71301808Y-90032679D01*
X71301808Y-90032679D02*
X71301808Y-89978804D01*
X71301808Y-89978804D02*
X71113247Y-89790242D01*
X71113247Y-89790242D02*
X71005497Y-89897992D01*
X71598120Y-89790242D02*
X71032434Y-89224557D01*
X71032434Y-89224557D02*
X71247934Y-89009057D01*
X71247934Y-89009057D02*
X71328746Y-88982120D01*
X71328746Y-88982120D02*
X71382621Y-88982120D01*
X71382621Y-88982120D02*
X71463433Y-89009057D01*
X71463433Y-89009057D02*
X71544245Y-89089870D01*
X71544245Y-89089870D02*
X71571182Y-89170682D01*
X71571182Y-89170682D02*
X71571182Y-89224557D01*
X71571182Y-89224557D02*
X71544245Y-89305369D01*
X71544245Y-89305369D02*
X71328746Y-89520868D01*
X72460117Y-88928245D02*
X72136868Y-89251494D01*
X72298492Y-89089870D02*
X71732807Y-88524184D01*
X71732807Y-88524184D02*
X71759744Y-88658871D01*
X71759744Y-88658871D02*
X71759744Y-88766621D01*
X71759744Y-88766621D02*
X71732807Y-88847433D01*
X72406242Y-87850749D02*
X72136868Y-88120123D01*
X72136868Y-88120123D02*
X72379305Y-88416434D01*
X72379305Y-88416434D02*
X72379305Y-88362560D01*
X72379305Y-88362560D02*
X72406242Y-88281747D01*
X72406242Y-88281747D02*
X72540929Y-88147060D01*
X72540929Y-88147060D02*
X72621741Y-88120123D01*
X72621741Y-88120123D02*
X72675616Y-88120123D01*
X72675616Y-88120123D02*
X72756428Y-88147060D01*
X72756428Y-88147060D02*
X72891115Y-88281747D01*
X72891115Y-88281747D02*
X72918053Y-88362560D01*
X72918053Y-88362560D02*
X72918053Y-88416434D01*
X72918053Y-88416434D02*
X72891115Y-88497247D01*
X72891115Y-88497247D02*
X72756428Y-88631934D01*
X72756428Y-88631934D02*
X72675616Y-88658871D01*
X72675616Y-88658871D02*
X72621741Y-88658871D01*
X96897998Y-89520868D02*
X96817185Y-89547805D01*
X96817185Y-89547805D02*
X96736373Y-89628618D01*
X96736373Y-89628618D02*
X96682498Y-89736367D01*
X96682498Y-89736367D02*
X96682498Y-89844117D01*
X96682498Y-89844117D02*
X96709436Y-89924929D01*
X96709436Y-89924929D02*
X96790248Y-90059616D01*
X96790248Y-90059616D02*
X96871060Y-90140428D01*
X96871060Y-90140428D02*
X97005747Y-90221241D01*
X97005747Y-90221241D02*
X97086560Y-90248178D01*
X97086560Y-90248178D02*
X97194309Y-90248178D01*
X97194309Y-90248178D02*
X97302059Y-90194303D01*
X97302059Y-90194303D02*
X97355934Y-90140428D01*
X97355934Y-90140428D02*
X97409808Y-90032679D01*
X97409808Y-90032679D02*
X97409808Y-89978804D01*
X97409808Y-89978804D02*
X97221247Y-89790242D01*
X97221247Y-89790242D02*
X97113497Y-89897992D01*
X97706120Y-89790242D02*
X97140434Y-89224557D01*
X97140434Y-89224557D02*
X97355934Y-89009057D01*
X97355934Y-89009057D02*
X97436746Y-88982120D01*
X97436746Y-88982120D02*
X97490621Y-88982120D01*
X97490621Y-88982120D02*
X97571433Y-89009057D01*
X97571433Y-89009057D02*
X97652245Y-89089870D01*
X97652245Y-89089870D02*
X97679182Y-89170682D01*
X97679182Y-89170682D02*
X97679182Y-89224557D01*
X97679182Y-89224557D02*
X97652245Y-89305369D01*
X97652245Y-89305369D02*
X97436746Y-89520868D01*
X98568117Y-88928245D02*
X98244868Y-89251494D01*
X98406492Y-89089870D02*
X97840807Y-88524184D01*
X97840807Y-88524184D02*
X97867744Y-88658871D01*
X97867744Y-88658871D02*
X97867744Y-88766621D01*
X97867744Y-88766621D02*
X97840807Y-88847433D01*
X98487305Y-87877686D02*
X98379555Y-87985436D01*
X98379555Y-87985436D02*
X98352618Y-88066248D01*
X98352618Y-88066248D02*
X98352618Y-88120123D01*
X98352618Y-88120123D02*
X98379555Y-88254810D01*
X98379555Y-88254810D02*
X98460367Y-88389497D01*
X98460367Y-88389497D02*
X98675866Y-88604996D01*
X98675866Y-88604996D02*
X98756679Y-88631934D01*
X98756679Y-88631934D02*
X98810553Y-88631934D01*
X98810553Y-88631934D02*
X98891366Y-88604996D01*
X98891366Y-88604996D02*
X98999115Y-88497247D01*
X98999115Y-88497247D02*
X99026053Y-88416434D01*
X99026053Y-88416434D02*
X99026053Y-88362560D01*
X99026053Y-88362560D02*
X98999115Y-88281747D01*
X98999115Y-88281747D02*
X98864428Y-88147060D01*
X98864428Y-88147060D02*
X98783616Y-88120123D01*
X98783616Y-88120123D02*
X98729741Y-88120123D01*
X98729741Y-88120123D02*
X98648929Y-88147060D01*
X98648929Y-88147060D02*
X98541179Y-88254810D01*
X98541179Y-88254810D02*
X98514242Y-88335622D01*
X98514242Y-88335622D02*
X98514242Y-88389497D01*
X98514242Y-88389497D02*
X98541179Y-88470309D01*
X71413372Y-63821494D02*
X71332560Y-63848431D01*
X71332560Y-63848431D02*
X71251748Y-63929243D01*
X71251748Y-63929243D02*
X71197873Y-64036993D01*
X71197873Y-64036993D02*
X71197873Y-64144742D01*
X71197873Y-64144742D02*
X71224810Y-64225555D01*
X71224810Y-64225555D02*
X71305623Y-64360242D01*
X71305623Y-64360242D02*
X71386435Y-64441054D01*
X71386435Y-64441054D02*
X71521122Y-64521866D01*
X71521122Y-64521866D02*
X71601934Y-64548803D01*
X71601934Y-64548803D02*
X71709684Y-64548803D01*
X71709684Y-64548803D02*
X71817433Y-64494929D01*
X71817433Y-64494929D02*
X71871308Y-64441054D01*
X71871308Y-64441054D02*
X71925183Y-64333304D01*
X71925183Y-64333304D02*
X71925183Y-64279429D01*
X71925183Y-64279429D02*
X71736621Y-64090868D01*
X71736621Y-64090868D02*
X71628871Y-64198617D01*
X72221494Y-64090868D02*
X71655809Y-63525182D01*
X71655809Y-63525182D02*
X71871308Y-63309683D01*
X71871308Y-63309683D02*
X71952120Y-63282746D01*
X71952120Y-63282746D02*
X72005995Y-63282746D01*
X72005995Y-63282746D02*
X72086807Y-63309683D01*
X72086807Y-63309683D02*
X72167619Y-63390495D01*
X72167619Y-63390495D02*
X72194557Y-63471307D01*
X72194557Y-63471307D02*
X72194557Y-63525182D01*
X72194557Y-63525182D02*
X72167619Y-63605994D01*
X72167619Y-63605994D02*
X71952120Y-63821494D01*
X72167619Y-63013372D02*
X72544743Y-62636248D01*
X72544743Y-62636248D02*
X72867992Y-63444370D01*
X71286435Y-46098431D02*
X71205623Y-46125368D01*
X71205623Y-46125368D02*
X71124811Y-46206180D01*
X71124811Y-46206180D02*
X71070936Y-46313930D01*
X71070936Y-46313930D02*
X71070936Y-46421680D01*
X71070936Y-46421680D02*
X71097873Y-46502492D01*
X71097873Y-46502492D02*
X71178685Y-46637179D01*
X71178685Y-46637179D02*
X71259498Y-46717991D01*
X71259498Y-46717991D02*
X71394185Y-46798803D01*
X71394185Y-46798803D02*
X71474997Y-46825741D01*
X71474997Y-46825741D02*
X71582746Y-46825741D01*
X71582746Y-46825741D02*
X71690496Y-46771866D01*
X71690496Y-46771866D02*
X71744371Y-46717991D01*
X71744371Y-46717991D02*
X71798246Y-46610241D01*
X71798246Y-46610241D02*
X71798246Y-46556367D01*
X71798246Y-46556367D02*
X71609684Y-46367805D01*
X71609684Y-46367805D02*
X71501934Y-46475554D01*
X72094557Y-46367805D02*
X71528872Y-45802119D01*
X71528872Y-45802119D02*
X72417806Y-46044556D01*
X72417806Y-46044556D02*
X71852120Y-45478871D01*
X72687180Y-45775182D02*
X72121494Y-45209497D01*
X72121494Y-45209497D02*
X72256181Y-45074810D01*
X72256181Y-45074810D02*
X72363931Y-45020935D01*
X72363931Y-45020935D02*
X72471680Y-45020935D01*
X72471680Y-45020935D02*
X72552493Y-45047872D01*
X72552493Y-45047872D02*
X72687180Y-45128685D01*
X72687180Y-45128685D02*
X72767992Y-45209497D01*
X72767992Y-45209497D02*
X72848804Y-45344184D01*
X72848804Y-45344184D02*
X72875741Y-45424996D01*
X72875741Y-45424996D02*
X72875741Y-45532746D01*
X72875741Y-45532746D02*
X72821867Y-45640495D01*
X72821867Y-45640495D02*
X72687180Y-45775182D01*
X71313372Y-40991494D02*
X71232560Y-41018431D01*
X71232560Y-41018431D02*
X71151748Y-41099243D01*
X71151748Y-41099243D02*
X71097873Y-41206993D01*
X71097873Y-41206993D02*
X71097873Y-41314742D01*
X71097873Y-41314742D02*
X71124810Y-41395555D01*
X71124810Y-41395555D02*
X71205623Y-41530242D01*
X71205623Y-41530242D02*
X71286435Y-41611054D01*
X71286435Y-41611054D02*
X71421122Y-41691866D01*
X71421122Y-41691866D02*
X71501934Y-41718803D01*
X71501934Y-41718803D02*
X71609684Y-41718803D01*
X71609684Y-41718803D02*
X71717433Y-41664929D01*
X71717433Y-41664929D02*
X71771308Y-41611054D01*
X71771308Y-41611054D02*
X71825183Y-41503304D01*
X71825183Y-41503304D02*
X71825183Y-41449429D01*
X71825183Y-41449429D02*
X71636621Y-41260868D01*
X71636621Y-41260868D02*
X71528871Y-41368617D01*
X72121494Y-41260868D02*
X71555809Y-40695182D01*
X71555809Y-40695182D02*
X71771308Y-40479683D01*
X71771308Y-40479683D02*
X71852120Y-40452746D01*
X71852120Y-40452746D02*
X71905995Y-40452746D01*
X71905995Y-40452746D02*
X71986807Y-40479683D01*
X71986807Y-40479683D02*
X72067619Y-40560495D01*
X72067619Y-40560495D02*
X72094557Y-40641307D01*
X72094557Y-40641307D02*
X72094557Y-40695182D01*
X72094557Y-40695182D02*
X72067619Y-40775994D01*
X72067619Y-40775994D02*
X71852120Y-40991494D01*
X72229244Y-40021747D02*
X72283119Y-39967872D01*
X72283119Y-39967872D02*
X72363931Y-39940935D01*
X72363931Y-39940935D02*
X72417806Y-39940935D01*
X72417806Y-39940935D02*
X72498618Y-39967872D01*
X72498618Y-39967872D02*
X72633305Y-40048685D01*
X72633305Y-40048685D02*
X72767992Y-40183372D01*
X72767992Y-40183372D02*
X72848804Y-40318059D01*
X72848804Y-40318059D02*
X72875741Y-40398871D01*
X72875741Y-40398871D02*
X72875741Y-40452746D01*
X72875741Y-40452746D02*
X72848804Y-40533558D01*
X72848804Y-40533558D02*
X72794929Y-40587433D01*
X72794929Y-40587433D02*
X72714117Y-40614370D01*
X72714117Y-40614370D02*
X72660242Y-40614370D01*
X72660242Y-40614370D02*
X72579430Y-40587433D01*
X72579430Y-40587433D02*
X72444743Y-40506620D01*
X72444743Y-40506620D02*
X72310056Y-40371933D01*
X72310056Y-40371933D02*
X72229244Y-40237246D01*
X72229244Y-40237246D02*
X72202306Y-40156434D01*
X72202306Y-40156434D02*
X72202306Y-40102559D01*
X72202306Y-40102559D02*
X72229244Y-40021747D01*
X70789998Y-74280868D02*
X70709185Y-74307805D01*
X70709185Y-74307805D02*
X70628373Y-74388618D01*
X70628373Y-74388618D02*
X70574498Y-74496367D01*
X70574498Y-74496367D02*
X70574498Y-74604117D01*
X70574498Y-74604117D02*
X70601436Y-74684929D01*
X70601436Y-74684929D02*
X70682248Y-74819616D01*
X70682248Y-74819616D02*
X70763060Y-74900428D01*
X70763060Y-74900428D02*
X70897747Y-74981241D01*
X70897747Y-74981241D02*
X70978560Y-75008178D01*
X70978560Y-75008178D02*
X71086309Y-75008178D01*
X71086309Y-75008178D02*
X71194059Y-74954303D01*
X71194059Y-74954303D02*
X71247934Y-74900428D01*
X71247934Y-74900428D02*
X71301808Y-74792679D01*
X71301808Y-74792679D02*
X71301808Y-74738804D01*
X71301808Y-74738804D02*
X71113247Y-74550242D01*
X71113247Y-74550242D02*
X71005497Y-74657992D01*
X71598120Y-74550242D02*
X71032434Y-73984557D01*
X71032434Y-73984557D02*
X71247934Y-73769057D01*
X71247934Y-73769057D02*
X71328746Y-73742120D01*
X71328746Y-73742120D02*
X71382621Y-73742120D01*
X71382621Y-73742120D02*
X71463433Y-73769057D01*
X71463433Y-73769057D02*
X71544245Y-73849870D01*
X71544245Y-73849870D02*
X71571182Y-73930682D01*
X71571182Y-73930682D02*
X71571182Y-73984557D01*
X71571182Y-73984557D02*
X71544245Y-74065369D01*
X71544245Y-74065369D02*
X71328746Y-74280868D01*
X72460117Y-73688245D02*
X72136868Y-74011494D01*
X72298492Y-73849870D02*
X71732807Y-73284184D01*
X71732807Y-73284184D02*
X71759744Y-73418871D01*
X71759744Y-73418871D02*
X71759744Y-73526621D01*
X71759744Y-73526621D02*
X71732807Y-73607433D01*
X72244618Y-72772373D02*
X72298492Y-72718499D01*
X72298492Y-72718499D02*
X72379305Y-72691561D01*
X72379305Y-72691561D02*
X72433179Y-72691561D01*
X72433179Y-72691561D02*
X72513992Y-72718499D01*
X72513992Y-72718499D02*
X72648679Y-72799311D01*
X72648679Y-72799311D02*
X72783366Y-72933998D01*
X72783366Y-72933998D02*
X72864178Y-73068685D01*
X72864178Y-73068685D02*
X72891115Y-73149497D01*
X72891115Y-73149497D02*
X72891115Y-73203372D01*
X72891115Y-73203372D02*
X72864178Y-73284184D01*
X72864178Y-73284184D02*
X72810303Y-73338059D01*
X72810303Y-73338059D02*
X72729491Y-73364996D01*
X72729491Y-73364996D02*
X72675616Y-73364996D01*
X72675616Y-73364996D02*
X72594804Y-73338059D01*
X72594804Y-73338059D02*
X72460117Y-73257247D01*
X72460117Y-73257247D02*
X72325430Y-73122560D01*
X72325430Y-73122560D02*
X72244618Y-72987873D01*
X72244618Y-72987873D02*
X72217680Y-72907060D01*
X72217680Y-72907060D02*
X72217680Y-72853186D01*
X72217680Y-72853186D02*
X72244618Y-72772373D01*
X96897998Y-74290868D02*
X96817185Y-74317805D01*
X96817185Y-74317805D02*
X96736373Y-74398618D01*
X96736373Y-74398618D02*
X96682498Y-74506367D01*
X96682498Y-74506367D02*
X96682498Y-74614117D01*
X96682498Y-74614117D02*
X96709436Y-74694929D01*
X96709436Y-74694929D02*
X96790248Y-74829616D01*
X96790248Y-74829616D02*
X96871060Y-74910428D01*
X96871060Y-74910428D02*
X97005747Y-74991241D01*
X97005747Y-74991241D02*
X97086560Y-75018178D01*
X97086560Y-75018178D02*
X97194309Y-75018178D01*
X97194309Y-75018178D02*
X97302059Y-74964303D01*
X97302059Y-74964303D02*
X97355934Y-74910428D01*
X97355934Y-74910428D02*
X97409808Y-74802679D01*
X97409808Y-74802679D02*
X97409808Y-74748804D01*
X97409808Y-74748804D02*
X97221247Y-74560242D01*
X97221247Y-74560242D02*
X97113497Y-74667992D01*
X97706120Y-74560242D02*
X97140434Y-73994557D01*
X97140434Y-73994557D02*
X97355934Y-73779057D01*
X97355934Y-73779057D02*
X97436746Y-73752120D01*
X97436746Y-73752120D02*
X97490621Y-73752120D01*
X97490621Y-73752120D02*
X97571433Y-73779057D01*
X97571433Y-73779057D02*
X97652245Y-73859870D01*
X97652245Y-73859870D02*
X97679182Y-73940682D01*
X97679182Y-73940682D02*
X97679182Y-73994557D01*
X97679182Y-73994557D02*
X97652245Y-74075369D01*
X97652245Y-74075369D02*
X97436746Y-74290868D01*
X97733057Y-73509683D02*
X97733057Y-73455809D01*
X97733057Y-73455809D02*
X97759995Y-73374996D01*
X97759995Y-73374996D02*
X97894682Y-73240309D01*
X97894682Y-73240309D02*
X97975494Y-73213372D01*
X97975494Y-73213372D02*
X98029369Y-73213372D01*
X98029369Y-73213372D02*
X98110181Y-73240309D01*
X98110181Y-73240309D02*
X98164056Y-73294184D01*
X98164056Y-73294184D02*
X98217930Y-73401934D01*
X98217930Y-73401934D02*
X98217930Y-74048431D01*
X98217930Y-74048431D02*
X98568117Y-73698245D01*
X99106865Y-73159497D02*
X98783616Y-73482746D01*
X98945240Y-73321121D02*
X98379555Y-72755436D01*
X98379555Y-72755436D02*
X98406492Y-72890123D01*
X98406492Y-72890123D02*
X98406492Y-72997873D01*
X98406492Y-72997873D02*
X98379555Y-73078685D01*
X96886435Y-71498431D02*
X96805623Y-71525368D01*
X96805623Y-71525368D02*
X96724811Y-71606180D01*
X96724811Y-71606180D02*
X96670936Y-71713930D01*
X96670936Y-71713930D02*
X96670936Y-71821680D01*
X96670936Y-71821680D02*
X96697873Y-71902492D01*
X96697873Y-71902492D02*
X96778685Y-72037179D01*
X96778685Y-72037179D02*
X96859498Y-72117991D01*
X96859498Y-72117991D02*
X96994185Y-72198803D01*
X96994185Y-72198803D02*
X97074997Y-72225741D01*
X97074997Y-72225741D02*
X97182746Y-72225741D01*
X97182746Y-72225741D02*
X97290496Y-72171866D01*
X97290496Y-72171866D02*
X97344371Y-72117991D01*
X97344371Y-72117991D02*
X97398246Y-72010241D01*
X97398246Y-72010241D02*
X97398246Y-71956367D01*
X97398246Y-71956367D02*
X97209684Y-71767805D01*
X97209684Y-71767805D02*
X97101934Y-71875554D01*
X97694557Y-71767805D02*
X97128872Y-71202119D01*
X97128872Y-71202119D02*
X98017806Y-71444556D01*
X98017806Y-71444556D02*
X97452120Y-70878871D01*
X98287180Y-71175182D02*
X97721494Y-70609497D01*
X97721494Y-70609497D02*
X97856181Y-70474810D01*
X97856181Y-70474810D02*
X97963931Y-70420935D01*
X97963931Y-70420935D02*
X98071680Y-70420935D01*
X98071680Y-70420935D02*
X98152493Y-70447872D01*
X98152493Y-70447872D02*
X98287180Y-70528685D01*
X98287180Y-70528685D02*
X98367992Y-70609497D01*
X98367992Y-70609497D02*
X98448804Y-70744184D01*
X98448804Y-70744184D02*
X98475741Y-70824996D01*
X98475741Y-70824996D02*
X98475741Y-70932746D01*
X98475741Y-70932746D02*
X98421867Y-71040495D01*
X98421867Y-71040495D02*
X98287180Y-71175182D01*
X96753406Y-41527585D02*
X97507653Y-41904709D01*
X97507653Y-41904709D02*
X97130529Y-41150462D01*
X97777027Y-41042712D02*
X97884776Y-40988838D01*
X97884776Y-40988838D02*
X97938651Y-40988838D01*
X97938651Y-40988838D02*
X98019463Y-41015775D01*
X98019463Y-41015775D02*
X98100276Y-41096587D01*
X98100276Y-41096587D02*
X98127213Y-41177399D01*
X98127213Y-41177399D02*
X98127213Y-41231274D01*
X98127213Y-41231274D02*
X98100276Y-41312086D01*
X98100276Y-41312086D02*
X97884776Y-41527586D01*
X97884776Y-41527586D02*
X97319091Y-40961900D01*
X97319091Y-40961900D02*
X97507653Y-40773338D01*
X97507653Y-40773338D02*
X97588465Y-40746401D01*
X97588465Y-40746401D02*
X97642340Y-40746401D01*
X97642340Y-40746401D02*
X97723152Y-40773338D01*
X97723152Y-40773338D02*
X97777027Y-40827213D01*
X97777027Y-40827213D02*
X97803964Y-40908025D01*
X97803964Y-40908025D02*
X97803964Y-40961900D01*
X97803964Y-40961900D02*
X97777027Y-41042712D01*
X97777027Y-41042712D02*
X97588465Y-41231274D01*
X97884776Y-40396215D02*
X98342712Y-40854151D01*
X98342712Y-40854151D02*
X98423524Y-40881088D01*
X98423524Y-40881088D02*
X98477399Y-40881088D01*
X98477399Y-40881088D02*
X98558211Y-40854151D01*
X98558211Y-40854151D02*
X98665961Y-40746401D01*
X98665961Y-40746401D02*
X98692898Y-40665589D01*
X98692898Y-40665589D02*
X98692898Y-40611714D01*
X98692898Y-40611714D02*
X98665961Y-40530902D01*
X98665961Y-40530902D02*
X98208025Y-40072966D01*
X98989210Y-40369277D02*
X99096959Y-40315403D01*
X99096959Y-40315403D02*
X99231646Y-40180716D01*
X99231646Y-40180716D02*
X99258584Y-40099903D01*
X99258584Y-40099903D02*
X99258584Y-40046029D01*
X99258584Y-40046029D02*
X99231646Y-39965216D01*
X99231646Y-39965216D02*
X99177771Y-39911342D01*
X99177771Y-39911342D02*
X99096959Y-39884404D01*
X99096959Y-39884404D02*
X99043084Y-39884404D01*
X99043084Y-39884404D02*
X98962272Y-39911342D01*
X98962272Y-39911342D02*
X98827585Y-39992154D01*
X98827585Y-39992154D02*
X98746773Y-40019091D01*
X98746773Y-40019091D02*
X98692898Y-40019091D01*
X98692898Y-40019091D02*
X98612086Y-39992154D01*
X98612086Y-39992154D02*
X98558211Y-39938279D01*
X98558211Y-39938279D02*
X98531274Y-39857467D01*
X98531274Y-39857467D02*
X98531274Y-39803592D01*
X98531274Y-39803592D02*
X98558211Y-39722780D01*
X98558211Y-39722780D02*
X98692898Y-39588093D01*
X98692898Y-39588093D02*
X98800648Y-39534218D01*
X96897998Y-56246868D02*
X96817185Y-56273805D01*
X96817185Y-56273805D02*
X96736373Y-56354618D01*
X96736373Y-56354618D02*
X96682498Y-56462367D01*
X96682498Y-56462367D02*
X96682498Y-56570117D01*
X96682498Y-56570117D02*
X96709436Y-56650929D01*
X96709436Y-56650929D02*
X96790248Y-56785616D01*
X96790248Y-56785616D02*
X96871060Y-56866428D01*
X96871060Y-56866428D02*
X97005747Y-56947241D01*
X97005747Y-56947241D02*
X97086560Y-56974178D01*
X97086560Y-56974178D02*
X97194309Y-56974178D01*
X97194309Y-56974178D02*
X97302059Y-56920303D01*
X97302059Y-56920303D02*
X97355934Y-56866428D01*
X97355934Y-56866428D02*
X97409808Y-56758679D01*
X97409808Y-56758679D02*
X97409808Y-56704804D01*
X97409808Y-56704804D02*
X97221247Y-56516242D01*
X97221247Y-56516242D02*
X97113497Y-56623992D01*
X97706120Y-56516242D02*
X97140434Y-55950557D01*
X97140434Y-55950557D02*
X97355934Y-55735057D01*
X97355934Y-55735057D02*
X97436746Y-55708120D01*
X97436746Y-55708120D02*
X97490621Y-55708120D01*
X97490621Y-55708120D02*
X97571433Y-55735057D01*
X97571433Y-55735057D02*
X97652245Y-55815870D01*
X97652245Y-55815870D02*
X97679182Y-55896682D01*
X97679182Y-55896682D02*
X97679182Y-55950557D01*
X97679182Y-55950557D02*
X97652245Y-56031369D01*
X97652245Y-56031369D02*
X97436746Y-56246868D01*
X97733057Y-55465683D02*
X97733057Y-55411809D01*
X97733057Y-55411809D02*
X97759995Y-55330996D01*
X97759995Y-55330996D02*
X97894682Y-55196309D01*
X97894682Y-55196309D02*
X97975494Y-55169372D01*
X97975494Y-55169372D02*
X98029369Y-55169372D01*
X98029369Y-55169372D02*
X98110181Y-55196309D01*
X98110181Y-55196309D02*
X98164056Y-55250184D01*
X98164056Y-55250184D02*
X98217930Y-55357934D01*
X98217930Y-55357934D02*
X98217930Y-56004431D01*
X98217930Y-56004431D02*
X98568117Y-55654245D01*
X98568117Y-55007747D02*
X98487305Y-55034685D01*
X98487305Y-55034685D02*
X98433430Y-55034685D01*
X98433430Y-55034685D02*
X98352618Y-55007747D01*
X98352618Y-55007747D02*
X98325680Y-54980810D01*
X98325680Y-54980810D02*
X98298743Y-54899998D01*
X98298743Y-54899998D02*
X98298743Y-54846123D01*
X98298743Y-54846123D02*
X98325680Y-54765311D01*
X98325680Y-54765311D02*
X98433430Y-54657561D01*
X98433430Y-54657561D02*
X98514242Y-54630624D01*
X98514242Y-54630624D02*
X98568117Y-54630624D01*
X98568117Y-54630624D02*
X98648929Y-54657561D01*
X98648929Y-54657561D02*
X98675866Y-54684499D01*
X98675866Y-54684499D02*
X98702804Y-54765311D01*
X98702804Y-54765311D02*
X98702804Y-54819186D01*
X98702804Y-54819186D02*
X98675866Y-54899998D01*
X98675866Y-54899998D02*
X98568117Y-55007747D01*
X98568117Y-55007747D02*
X98541179Y-55088560D01*
X98541179Y-55088560D02*
X98541179Y-55142434D01*
X98541179Y-55142434D02*
X98568117Y-55223247D01*
X98568117Y-55223247D02*
X98675866Y-55330996D01*
X98675866Y-55330996D02*
X98756679Y-55357934D01*
X98756679Y-55357934D02*
X98810553Y-55357934D01*
X98810553Y-55357934D02*
X98891366Y-55330996D01*
X98891366Y-55330996D02*
X98999115Y-55223247D01*
X98999115Y-55223247D02*
X99026053Y-55142434D01*
X99026053Y-55142434D02*
X99026053Y-55088560D01*
X99026053Y-55088560D02*
X98999115Y-55007747D01*
X98999115Y-55007747D02*
X98891366Y-54899998D01*
X98891366Y-54899998D02*
X98810553Y-54873060D01*
X98810553Y-54873060D02*
X98756679Y-54873060D01*
X98756679Y-54873060D02*
X98675866Y-54899998D01*
X96720749Y-44070242D02*
X97474996Y-44447366D01*
X97474996Y-44447366D02*
X97097873Y-43693118D01*
X97798245Y-44070242D02*
X97905995Y-44016367D01*
X97905995Y-44016367D02*
X98040682Y-43881680D01*
X98040682Y-43881680D02*
X98067619Y-43800868D01*
X98067619Y-43800868D02*
X98067619Y-43746993D01*
X98067619Y-43746993D02*
X98040682Y-43666181D01*
X98040682Y-43666181D02*
X97986807Y-43612306D01*
X97986807Y-43612306D02*
X97905995Y-43585369D01*
X97905995Y-43585369D02*
X97852120Y-43585369D01*
X97852120Y-43585369D02*
X97771308Y-43612306D01*
X97771308Y-43612306D02*
X97636621Y-43693118D01*
X97636621Y-43693118D02*
X97555808Y-43720056D01*
X97555808Y-43720056D02*
X97501934Y-43720056D01*
X97501934Y-43720056D02*
X97421121Y-43693118D01*
X97421121Y-43693118D02*
X97367247Y-43639244D01*
X97367247Y-43639244D02*
X97340309Y-43558431D01*
X97340309Y-43558431D02*
X97340309Y-43504557D01*
X97340309Y-43504557D02*
X97367247Y-43423744D01*
X97367247Y-43423744D02*
X97501934Y-43289057D01*
X97501934Y-43289057D02*
X97609683Y-43235183D01*
X98229244Y-43154370D02*
X98498618Y-43423744D01*
X97744370Y-43046621D02*
X98229244Y-43154370D01*
X98229244Y-43154370D02*
X98121494Y-42669497D01*
X98821866Y-43046621D02*
X98929616Y-42992746D01*
X98929616Y-42992746D02*
X99064303Y-42858059D01*
X99064303Y-42858059D02*
X99091240Y-42777247D01*
X99091240Y-42777247D02*
X99091240Y-42723372D01*
X99091240Y-42723372D02*
X99064303Y-42642560D01*
X99064303Y-42642560D02*
X99010428Y-42588685D01*
X99010428Y-42588685D02*
X98929616Y-42561748D01*
X98929616Y-42561748D02*
X98875741Y-42561748D01*
X98875741Y-42561748D02*
X98794929Y-42588685D01*
X98794929Y-42588685D02*
X98660242Y-42669497D01*
X98660242Y-42669497D02*
X98579430Y-42696435D01*
X98579430Y-42696435D02*
X98525555Y-42696435D01*
X98525555Y-42696435D02*
X98444743Y-42669497D01*
X98444743Y-42669497D02*
X98390868Y-42615622D01*
X98390868Y-42615622D02*
X98363930Y-42534810D01*
X98363930Y-42534810D02*
X98363930Y-42480935D01*
X98363930Y-42480935D02*
X98390868Y-42400123D01*
X98390868Y-42400123D02*
X98525555Y-42265436D01*
X98525555Y-42265436D02*
X98633304Y-42211561D01*
X71213372Y-48611494D02*
X71132560Y-48638431D01*
X71132560Y-48638431D02*
X71051748Y-48719243D01*
X71051748Y-48719243D02*
X70997873Y-48826993D01*
X70997873Y-48826993D02*
X70997873Y-48934742D01*
X70997873Y-48934742D02*
X71024810Y-49015555D01*
X71024810Y-49015555D02*
X71105623Y-49150242D01*
X71105623Y-49150242D02*
X71186435Y-49231054D01*
X71186435Y-49231054D02*
X71321122Y-49311866D01*
X71321122Y-49311866D02*
X71401934Y-49338803D01*
X71401934Y-49338803D02*
X71509684Y-49338803D01*
X71509684Y-49338803D02*
X71617433Y-49284929D01*
X71617433Y-49284929D02*
X71671308Y-49231054D01*
X71671308Y-49231054D02*
X71725183Y-49123304D01*
X71725183Y-49123304D02*
X71725183Y-49069429D01*
X71725183Y-49069429D02*
X71536621Y-48880868D01*
X71536621Y-48880868D02*
X71428871Y-48988617D01*
X72021494Y-48880868D02*
X71455809Y-48315182D01*
X71455809Y-48315182D02*
X71671308Y-48099683D01*
X71671308Y-48099683D02*
X71752120Y-48072746D01*
X71752120Y-48072746D02*
X71805995Y-48072746D01*
X71805995Y-48072746D02*
X71886807Y-48099683D01*
X71886807Y-48099683D02*
X71967619Y-48180495D01*
X71967619Y-48180495D02*
X71994557Y-48261307D01*
X71994557Y-48261307D02*
X71994557Y-48315182D01*
X71994557Y-48315182D02*
X71967619Y-48395994D01*
X71967619Y-48395994D02*
X71752120Y-48611494D01*
X72048432Y-47830309D02*
X72048432Y-47776434D01*
X72048432Y-47776434D02*
X72075369Y-47695622D01*
X72075369Y-47695622D02*
X72210056Y-47560935D01*
X72210056Y-47560935D02*
X72290868Y-47533998D01*
X72290868Y-47533998D02*
X72344743Y-47533998D01*
X72344743Y-47533998D02*
X72425555Y-47560935D01*
X72425555Y-47560935D02*
X72479430Y-47614810D01*
X72479430Y-47614810D02*
X72533305Y-47722559D01*
X72533305Y-47722559D02*
X72533305Y-48369057D01*
X72533305Y-48369057D02*
X72883491Y-48018871D01*
X70743998Y-86980868D02*
X70663185Y-87007805D01*
X70663185Y-87007805D02*
X70582373Y-87088618D01*
X70582373Y-87088618D02*
X70528498Y-87196367D01*
X70528498Y-87196367D02*
X70528498Y-87304117D01*
X70528498Y-87304117D02*
X70555436Y-87384929D01*
X70555436Y-87384929D02*
X70636248Y-87519616D01*
X70636248Y-87519616D02*
X70717060Y-87600428D01*
X70717060Y-87600428D02*
X70851747Y-87681241D01*
X70851747Y-87681241D02*
X70932560Y-87708178D01*
X70932560Y-87708178D02*
X71040309Y-87708178D01*
X71040309Y-87708178D02*
X71148059Y-87654303D01*
X71148059Y-87654303D02*
X71201934Y-87600428D01*
X71201934Y-87600428D02*
X71255808Y-87492679D01*
X71255808Y-87492679D02*
X71255808Y-87438804D01*
X71255808Y-87438804D02*
X71067247Y-87250242D01*
X71067247Y-87250242D02*
X70959497Y-87357992D01*
X71552120Y-87250242D02*
X70986434Y-86684557D01*
X70986434Y-86684557D02*
X71201934Y-86469057D01*
X71201934Y-86469057D02*
X71282746Y-86442120D01*
X71282746Y-86442120D02*
X71336621Y-86442120D01*
X71336621Y-86442120D02*
X71417433Y-86469057D01*
X71417433Y-86469057D02*
X71498245Y-86549870D01*
X71498245Y-86549870D02*
X71525182Y-86630682D01*
X71525182Y-86630682D02*
X71525182Y-86684557D01*
X71525182Y-86684557D02*
X71498245Y-86765369D01*
X71498245Y-86765369D02*
X71282746Y-86980868D01*
X72414117Y-86388245D02*
X72090868Y-86711494D01*
X72252492Y-86549870D02*
X71686807Y-85984184D01*
X71686807Y-85984184D02*
X71713744Y-86118871D01*
X71713744Y-86118871D02*
X71713744Y-86226621D01*
X71713744Y-86226621D02*
X71686807Y-86307433D01*
X72521866Y-85526248D02*
X72898990Y-85903372D01*
X72171680Y-85445436D02*
X72441054Y-85984184D01*
X72441054Y-85984184D02*
X72791240Y-85633998D01*
X71313372Y-68931494D02*
X71232560Y-68958431D01*
X71232560Y-68958431D02*
X71151748Y-69039243D01*
X71151748Y-69039243D02*
X71097873Y-69146993D01*
X71097873Y-69146993D02*
X71097873Y-69254742D01*
X71097873Y-69254742D02*
X71124810Y-69335555D01*
X71124810Y-69335555D02*
X71205623Y-69470242D01*
X71205623Y-69470242D02*
X71286435Y-69551054D01*
X71286435Y-69551054D02*
X71421122Y-69631866D01*
X71421122Y-69631866D02*
X71501934Y-69658803D01*
X71501934Y-69658803D02*
X71609684Y-69658803D01*
X71609684Y-69658803D02*
X71717433Y-69604929D01*
X71717433Y-69604929D02*
X71771308Y-69551054D01*
X71771308Y-69551054D02*
X71825183Y-69443304D01*
X71825183Y-69443304D02*
X71825183Y-69389429D01*
X71825183Y-69389429D02*
X71636621Y-69200868D01*
X71636621Y-69200868D02*
X71528871Y-69308617D01*
X72121494Y-69200868D02*
X71555809Y-68635182D01*
X71555809Y-68635182D02*
X71771308Y-68419683D01*
X71771308Y-68419683D02*
X71852120Y-68392746D01*
X71852120Y-68392746D02*
X71905995Y-68392746D01*
X71905995Y-68392746D02*
X71986807Y-68419683D01*
X71986807Y-68419683D02*
X72067619Y-68500495D01*
X72067619Y-68500495D02*
X72094557Y-68581307D01*
X72094557Y-68581307D02*
X72094557Y-68635182D01*
X72094557Y-68635182D02*
X72067619Y-68715994D01*
X72067619Y-68715994D02*
X71852120Y-68931494D01*
X72714117Y-68608245D02*
X72821867Y-68500495D01*
X72821867Y-68500495D02*
X72848804Y-68419683D01*
X72848804Y-68419683D02*
X72848804Y-68365808D01*
X72848804Y-68365808D02*
X72821867Y-68231121D01*
X72821867Y-68231121D02*
X72741054Y-68096434D01*
X72741054Y-68096434D02*
X72525555Y-67880935D01*
X72525555Y-67880935D02*
X72444743Y-67853998D01*
X72444743Y-67853998D02*
X72390868Y-67853998D01*
X72390868Y-67853998D02*
X72310056Y-67880935D01*
X72310056Y-67880935D02*
X72202306Y-67988685D01*
X72202306Y-67988685D02*
X72175369Y-68069497D01*
X72175369Y-68069497D02*
X72175369Y-68123372D01*
X72175369Y-68123372D02*
X72202306Y-68204184D01*
X72202306Y-68204184D02*
X72336993Y-68338871D01*
X72336993Y-68338871D02*
X72417806Y-68365808D01*
X72417806Y-68365808D02*
X72471680Y-68365808D01*
X72471680Y-68365808D02*
X72552493Y-68338871D01*
X72552493Y-68338871D02*
X72660242Y-68231121D01*
X72660242Y-68231121D02*
X72687180Y-68150309D01*
X72687180Y-68150309D02*
X72687180Y-68096434D01*
X72687180Y-68096434D02*
X72660242Y-68015622D01*
X96897998Y-76820868D02*
X96817185Y-76847805D01*
X96817185Y-76847805D02*
X96736373Y-76928618D01*
X96736373Y-76928618D02*
X96682498Y-77036367D01*
X96682498Y-77036367D02*
X96682498Y-77144117D01*
X96682498Y-77144117D02*
X96709436Y-77224929D01*
X96709436Y-77224929D02*
X96790248Y-77359616D01*
X96790248Y-77359616D02*
X96871060Y-77440428D01*
X96871060Y-77440428D02*
X97005747Y-77521241D01*
X97005747Y-77521241D02*
X97086560Y-77548178D01*
X97086560Y-77548178D02*
X97194309Y-77548178D01*
X97194309Y-77548178D02*
X97302059Y-77494303D01*
X97302059Y-77494303D02*
X97355934Y-77440428D01*
X97355934Y-77440428D02*
X97409808Y-77332679D01*
X97409808Y-77332679D02*
X97409808Y-77278804D01*
X97409808Y-77278804D02*
X97221247Y-77090242D01*
X97221247Y-77090242D02*
X97113497Y-77197992D01*
X97706120Y-77090242D02*
X97140434Y-76524557D01*
X97140434Y-76524557D02*
X97355934Y-76309057D01*
X97355934Y-76309057D02*
X97436746Y-76282120D01*
X97436746Y-76282120D02*
X97490621Y-76282120D01*
X97490621Y-76282120D02*
X97571433Y-76309057D01*
X97571433Y-76309057D02*
X97652245Y-76389870D01*
X97652245Y-76389870D02*
X97679182Y-76470682D01*
X97679182Y-76470682D02*
X97679182Y-76524557D01*
X97679182Y-76524557D02*
X97652245Y-76605369D01*
X97652245Y-76605369D02*
X97436746Y-76820868D01*
X97733057Y-76039683D02*
X97733057Y-75985809D01*
X97733057Y-75985809D02*
X97759995Y-75904996D01*
X97759995Y-75904996D02*
X97894682Y-75770309D01*
X97894682Y-75770309D02*
X97975494Y-75743372D01*
X97975494Y-75743372D02*
X98029369Y-75743372D01*
X98029369Y-75743372D02*
X98110181Y-75770309D01*
X98110181Y-75770309D02*
X98164056Y-75824184D01*
X98164056Y-75824184D02*
X98217930Y-75931934D01*
X98217930Y-75931934D02*
X98217930Y-76578431D01*
X98217930Y-76578431D02*
X98568117Y-76228245D01*
X98352618Y-75312373D02*
X98406492Y-75258499D01*
X98406492Y-75258499D02*
X98487305Y-75231561D01*
X98487305Y-75231561D02*
X98541179Y-75231561D01*
X98541179Y-75231561D02*
X98621992Y-75258499D01*
X98621992Y-75258499D02*
X98756679Y-75339311D01*
X98756679Y-75339311D02*
X98891366Y-75473998D01*
X98891366Y-75473998D02*
X98972178Y-75608685D01*
X98972178Y-75608685D02*
X98999115Y-75689497D01*
X98999115Y-75689497D02*
X98999115Y-75743372D01*
X98999115Y-75743372D02*
X98972178Y-75824184D01*
X98972178Y-75824184D02*
X98918303Y-75878059D01*
X98918303Y-75878059D02*
X98837491Y-75904996D01*
X98837491Y-75904996D02*
X98783616Y-75904996D01*
X98783616Y-75904996D02*
X98702804Y-75878059D01*
X98702804Y-75878059D02*
X98568117Y-75797247D01*
X98568117Y-75797247D02*
X98433430Y-75662560D01*
X98433430Y-75662560D02*
X98352618Y-75527873D01*
X98352618Y-75527873D02*
X98325680Y-75447060D01*
X98325680Y-75447060D02*
X98325680Y-75393186D01*
X98325680Y-75393186D02*
X98352618Y-75312373D01*
X96955064Y-54534049D02*
X97224438Y-54264675D01*
X97062813Y-54749549D02*
X96685690Y-53995301D01*
X96685690Y-53995301D02*
X97439937Y-54372425D01*
X97628499Y-54183863D02*
X97062813Y-53618178D01*
X97062813Y-53618178D02*
X97197500Y-53483491D01*
X97197500Y-53483491D02*
X97305250Y-53429616D01*
X97305250Y-53429616D02*
X97412999Y-53429616D01*
X97412999Y-53429616D02*
X97493812Y-53456553D01*
X97493812Y-53456553D02*
X97628499Y-53537366D01*
X97628499Y-53537366D02*
X97709311Y-53618178D01*
X97709311Y-53618178D02*
X97790123Y-53752865D01*
X97790123Y-53752865D02*
X97817060Y-53833677D01*
X97817060Y-53833677D02*
X97817060Y-53941427D01*
X97817060Y-53941427D02*
X97763186Y-54049176D01*
X97763186Y-54049176D02*
X97628499Y-54183863D01*
X98463558Y-53241054D02*
X98463558Y-53294929D01*
X98463558Y-53294929D02*
X98409683Y-53402679D01*
X98409683Y-53402679D02*
X98355808Y-53456553D01*
X98355808Y-53456553D02*
X98248059Y-53510428D01*
X98248059Y-53510428D02*
X98140309Y-53510428D01*
X98140309Y-53510428D02*
X98059497Y-53483491D01*
X98059497Y-53483491D02*
X97924810Y-53402679D01*
X97924810Y-53402679D02*
X97843998Y-53321866D01*
X97843998Y-53321866D02*
X97763186Y-53187179D01*
X97763186Y-53187179D02*
X97736248Y-53106367D01*
X97736248Y-53106367D02*
X97736248Y-52998618D01*
X97736248Y-52998618D02*
X97790123Y-52890868D01*
X97790123Y-52890868D02*
X97843998Y-52836993D01*
X97843998Y-52836993D02*
X97951747Y-52783118D01*
X97951747Y-52783118D02*
X98005622Y-52783118D01*
X98679057Y-53241054D02*
X99110056Y-52810056D01*
X98544370Y-52136621D02*
X99298618Y-52513744D01*
X99298618Y-52513744D02*
X98921494Y-51759497D01*
X99998990Y-51813372D02*
X99541054Y-51732560D01*
X99675741Y-52136621D02*
X99110056Y-51570935D01*
X99110056Y-51570935D02*
X99325555Y-51355436D01*
X99325555Y-51355436D02*
X99406367Y-51328499D01*
X99406367Y-51328499D02*
X99460242Y-51328499D01*
X99460242Y-51328499D02*
X99541054Y-51355436D01*
X99541054Y-51355436D02*
X99621866Y-51436248D01*
X99621866Y-51436248D02*
X99648804Y-51517061D01*
X99648804Y-51517061D02*
X99648804Y-51570935D01*
X99648804Y-51570935D02*
X99621866Y-51651748D01*
X99621866Y-51651748D02*
X99406367Y-51867247D01*
X99945115Y-51274624D02*
X100133677Y-51086062D01*
X100510800Y-51301561D02*
X100241426Y-51570935D01*
X100241426Y-51570935D02*
X99675741Y-51005250D01*
X99675741Y-51005250D02*
X99945115Y-50735876D01*
X100645488Y-50574251D02*
X100456926Y-50762813D01*
X100753237Y-51059125D02*
X100187552Y-50493439D01*
X100187552Y-50493439D02*
X100456926Y-50224065D01*
X71313372Y-53691494D02*
X71232560Y-53718431D01*
X71232560Y-53718431D02*
X71151748Y-53799243D01*
X71151748Y-53799243D02*
X71097873Y-53906993D01*
X71097873Y-53906993D02*
X71097873Y-54014742D01*
X71097873Y-54014742D02*
X71124810Y-54095555D01*
X71124810Y-54095555D02*
X71205623Y-54230242D01*
X71205623Y-54230242D02*
X71286435Y-54311054D01*
X71286435Y-54311054D02*
X71421122Y-54391866D01*
X71421122Y-54391866D02*
X71501934Y-54418803D01*
X71501934Y-54418803D02*
X71609684Y-54418803D01*
X71609684Y-54418803D02*
X71717433Y-54364929D01*
X71717433Y-54364929D02*
X71771308Y-54311054D01*
X71771308Y-54311054D02*
X71825183Y-54203304D01*
X71825183Y-54203304D02*
X71825183Y-54149429D01*
X71825183Y-54149429D02*
X71636621Y-53960868D01*
X71636621Y-53960868D02*
X71528871Y-54068617D01*
X72121494Y-53960868D02*
X71555809Y-53395182D01*
X71555809Y-53395182D02*
X71771308Y-53179683D01*
X71771308Y-53179683D02*
X71852120Y-53152746D01*
X71852120Y-53152746D02*
X71905995Y-53152746D01*
X71905995Y-53152746D02*
X71986807Y-53179683D01*
X71986807Y-53179683D02*
X72067619Y-53260495D01*
X72067619Y-53260495D02*
X72094557Y-53341307D01*
X72094557Y-53341307D02*
X72094557Y-53395182D01*
X72094557Y-53395182D02*
X72067619Y-53475994D01*
X72067619Y-53475994D02*
X71852120Y-53691494D01*
X72552493Y-52775622D02*
X72929616Y-53152746D01*
X72202306Y-52694810D02*
X72471680Y-53233558D01*
X72471680Y-53233558D02*
X72821867Y-52883372D01*
X96722407Y-48958584D02*
X97072593Y-48608398D01*
X97072593Y-48608398D02*
X97099531Y-49012459D01*
X97099531Y-49012459D02*
X97180343Y-48931646D01*
X97180343Y-48931646D02*
X97261155Y-48904709D01*
X97261155Y-48904709D02*
X97315030Y-48904709D01*
X97315030Y-48904709D02*
X97395842Y-48931646D01*
X97395842Y-48931646D02*
X97530529Y-49066333D01*
X97530529Y-49066333D02*
X97557467Y-49147146D01*
X97557467Y-49147146D02*
X97557467Y-49201020D01*
X97557467Y-49201020D02*
X97530529Y-49281833D01*
X97530529Y-49281833D02*
X97368905Y-49443457D01*
X97368905Y-49443457D02*
X97288093Y-49470394D01*
X97288093Y-49470394D02*
X97234218Y-49470394D01*
X97234218Y-48446773D02*
X97988465Y-48823897D01*
X97988465Y-48823897D02*
X97611342Y-48069649D01*
X97746028Y-47934963D02*
X98096215Y-47584776D01*
X98096215Y-47584776D02*
X98123152Y-47988837D01*
X98123152Y-47988837D02*
X98203964Y-47908025D01*
X98203964Y-47908025D02*
X98284776Y-47881088D01*
X98284776Y-47881088D02*
X98338651Y-47881088D01*
X98338651Y-47881088D02*
X98419464Y-47908025D01*
X98419464Y-47908025D02*
X98554151Y-48042712D01*
X98554151Y-48042712D02*
X98581088Y-48123524D01*
X98581088Y-48123524D02*
X98581088Y-48177399D01*
X98581088Y-48177399D02*
X98554151Y-48258211D01*
X98554151Y-48258211D02*
X98392526Y-48419836D01*
X98392526Y-48419836D02*
X98311714Y-48446773D01*
X98311714Y-48446773D02*
X98257839Y-48446773D01*
X98823525Y-48096587D02*
X99254523Y-47665588D01*
X99039024Y-47180715D02*
X99227586Y-46992153D01*
X99604709Y-47207652D02*
X99335335Y-47477026D01*
X99335335Y-47477026D02*
X98769650Y-46911341D01*
X98769650Y-46911341D02*
X99039024Y-46641967D01*
X99847146Y-46965215D02*
X99281461Y-46399530D01*
X99281461Y-46399530D02*
X100170395Y-46641967D01*
X100170395Y-46641967D02*
X99604710Y-46076281D01*
X96897998Y-61590868D02*
X96817185Y-61617805D01*
X96817185Y-61617805D02*
X96736373Y-61698618D01*
X96736373Y-61698618D02*
X96682498Y-61806367D01*
X96682498Y-61806367D02*
X96682498Y-61914117D01*
X96682498Y-61914117D02*
X96709436Y-61994929D01*
X96709436Y-61994929D02*
X96790248Y-62129616D01*
X96790248Y-62129616D02*
X96871060Y-62210428D01*
X96871060Y-62210428D02*
X97005747Y-62291241D01*
X97005747Y-62291241D02*
X97086560Y-62318178D01*
X97086560Y-62318178D02*
X97194309Y-62318178D01*
X97194309Y-62318178D02*
X97302059Y-62264303D01*
X97302059Y-62264303D02*
X97355934Y-62210428D01*
X97355934Y-62210428D02*
X97409808Y-62102679D01*
X97409808Y-62102679D02*
X97409808Y-62048804D01*
X97409808Y-62048804D02*
X97221247Y-61860242D01*
X97221247Y-61860242D02*
X97113497Y-61967992D01*
X97706120Y-61860242D02*
X97140434Y-61294557D01*
X97140434Y-61294557D02*
X97355934Y-61079057D01*
X97355934Y-61079057D02*
X97436746Y-61052120D01*
X97436746Y-61052120D02*
X97490621Y-61052120D01*
X97490621Y-61052120D02*
X97571433Y-61079057D01*
X97571433Y-61079057D02*
X97652245Y-61159870D01*
X97652245Y-61159870D02*
X97679182Y-61240682D01*
X97679182Y-61240682D02*
X97679182Y-61294557D01*
X97679182Y-61294557D02*
X97652245Y-61375369D01*
X97652245Y-61375369D02*
X97436746Y-61590868D01*
X97733057Y-60809683D02*
X97733057Y-60755809D01*
X97733057Y-60755809D02*
X97759995Y-60674996D01*
X97759995Y-60674996D02*
X97894682Y-60540309D01*
X97894682Y-60540309D02*
X97975494Y-60513372D01*
X97975494Y-60513372D02*
X98029369Y-60513372D01*
X98029369Y-60513372D02*
X98110181Y-60540309D01*
X98110181Y-60540309D02*
X98164056Y-60594184D01*
X98164056Y-60594184D02*
X98217930Y-60701934D01*
X98217930Y-60701934D02*
X98217930Y-61348431D01*
X98217930Y-61348431D02*
X98568117Y-60998245D01*
X98190993Y-60243998D02*
X98568117Y-59866874D01*
X98568117Y-59866874D02*
X98891366Y-60674996D01*
X96690123Y-51490868D02*
X97040309Y-51140682D01*
X97040309Y-51140682D02*
X97067247Y-51544743D01*
X97067247Y-51544743D02*
X97148059Y-51463931D01*
X97148059Y-51463931D02*
X97228871Y-51436993D01*
X97228871Y-51436993D02*
X97282746Y-51436993D01*
X97282746Y-51436993D02*
X97363558Y-51463931D01*
X97363558Y-51463931D02*
X97498245Y-51598618D01*
X97498245Y-51598618D02*
X97525182Y-51679430D01*
X97525182Y-51679430D02*
X97525182Y-51733305D01*
X97525182Y-51733305D02*
X97498245Y-51814117D01*
X97498245Y-51814117D02*
X97336621Y-51975741D01*
X97336621Y-51975741D02*
X97255808Y-52002679D01*
X97255808Y-52002679D02*
X97201934Y-52002679D01*
X97201934Y-50979057D02*
X97956181Y-51356181D01*
X97956181Y-51356181D02*
X97579057Y-50601934D01*
X97713744Y-50467247D02*
X98063930Y-50117061D01*
X98063930Y-50117061D02*
X98090868Y-50521122D01*
X98090868Y-50521122D02*
X98171680Y-50440309D01*
X98171680Y-50440309D02*
X98252492Y-50413372D01*
X98252492Y-50413372D02*
X98306367Y-50413372D01*
X98306367Y-50413372D02*
X98387179Y-50440309D01*
X98387179Y-50440309D02*
X98521866Y-50574996D01*
X98521866Y-50574996D02*
X98548804Y-50655809D01*
X98548804Y-50655809D02*
X98548804Y-50709683D01*
X98548804Y-50709683D02*
X98521866Y-50790496D01*
X98521866Y-50790496D02*
X98360242Y-50952120D01*
X98360242Y-50952120D02*
X98279430Y-50979057D01*
X98279430Y-50979057D02*
X98225555Y-50979057D01*
X88704761Y-91524200D02*
X88819047Y-91562295D01*
X88819047Y-91562295D02*
X89009523Y-91562295D01*
X89009523Y-91562295D02*
X89085714Y-91524200D01*
X89085714Y-91524200D02*
X89123809Y-91486104D01*
X89123809Y-91486104D02*
X89161904Y-91409914D01*
X89161904Y-91409914D02*
X89161904Y-91333723D01*
X89161904Y-91333723D02*
X89123809Y-91257533D01*
X89123809Y-91257533D02*
X89085714Y-91219438D01*
X89085714Y-91219438D02*
X89009523Y-91181342D01*
X89009523Y-91181342D02*
X88857142Y-91143247D01*
X88857142Y-91143247D02*
X88780952Y-91105152D01*
X88780952Y-91105152D02*
X88742857Y-91067057D01*
X88742857Y-91067057D02*
X88704761Y-90990866D01*
X88704761Y-90990866D02*
X88704761Y-90914676D01*
X88704761Y-90914676D02*
X88742857Y-90838485D01*
X88742857Y-90838485D02*
X88780952Y-90800390D01*
X88780952Y-90800390D02*
X88857142Y-90762295D01*
X88857142Y-90762295D02*
X89047619Y-90762295D01*
X89047619Y-90762295D02*
X89161904Y-90800390D01*
X89428571Y-90762295D02*
X89619047Y-91562295D01*
X89619047Y-91562295D02*
X89771428Y-90990866D01*
X89771428Y-90990866D02*
X89923809Y-91562295D01*
X89923809Y-91562295D02*
X90114286Y-90762295D01*
X90419048Y-91562295D02*
X90419048Y-90762295D01*
X90419048Y-90762295D02*
X90609524Y-90762295D01*
X90609524Y-90762295D02*
X90723810Y-90800390D01*
X90723810Y-90800390D02*
X90800000Y-90876580D01*
X90800000Y-90876580D02*
X90838095Y-90952771D01*
X90838095Y-90952771D02*
X90876191Y-91105152D01*
X90876191Y-91105152D02*
X90876191Y-91219438D01*
X90876191Y-91219438D02*
X90838095Y-91371819D01*
X90838095Y-91371819D02*
X90800000Y-91448009D01*
X90800000Y-91448009D02*
X90723810Y-91524200D01*
X90723810Y-91524200D02*
X90609524Y-91562295D01*
X90609524Y-91562295D02*
X90419048Y-91562295D01*
X91219048Y-91562295D02*
X91219048Y-90762295D01*
X91752381Y-90762295D02*
X91904762Y-90762295D01*
X91904762Y-90762295D02*
X91980952Y-90800390D01*
X91980952Y-90800390D02*
X92057143Y-90876580D01*
X92057143Y-90876580D02*
X92095238Y-91028961D01*
X92095238Y-91028961D02*
X92095238Y-91295628D01*
X92095238Y-91295628D02*
X92057143Y-91448009D01*
X92057143Y-91448009D02*
X91980952Y-91524200D01*
X91980952Y-91524200D02*
X91904762Y-91562295D01*
X91904762Y-91562295D02*
X91752381Y-91562295D01*
X91752381Y-91562295D02*
X91676190Y-91524200D01*
X91676190Y-91524200D02*
X91600000Y-91448009D01*
X91600000Y-91448009D02*
X91561904Y-91295628D01*
X91561904Y-91295628D02*
X91561904Y-91028961D01*
X91561904Y-91028961D02*
X91600000Y-90876580D01*
X91600000Y-90876580D02*
X91676190Y-90800390D01*
X91676190Y-90800390D02*
X91752381Y-90762295D01*
X71313372Y-51151494D02*
X71232560Y-51178431D01*
X71232560Y-51178431D02*
X71151748Y-51259243D01*
X71151748Y-51259243D02*
X71097873Y-51366993D01*
X71097873Y-51366993D02*
X71097873Y-51474742D01*
X71097873Y-51474742D02*
X71124810Y-51555555D01*
X71124810Y-51555555D02*
X71205623Y-51690242D01*
X71205623Y-51690242D02*
X71286435Y-51771054D01*
X71286435Y-51771054D02*
X71421122Y-51851866D01*
X71421122Y-51851866D02*
X71501934Y-51878803D01*
X71501934Y-51878803D02*
X71609684Y-51878803D01*
X71609684Y-51878803D02*
X71717433Y-51824929D01*
X71717433Y-51824929D02*
X71771308Y-51771054D01*
X71771308Y-51771054D02*
X71825183Y-51663304D01*
X71825183Y-51663304D02*
X71825183Y-51609429D01*
X71825183Y-51609429D02*
X71636621Y-51420868D01*
X71636621Y-51420868D02*
X71528871Y-51528617D01*
X72121494Y-51420868D02*
X71555809Y-50855182D01*
X71555809Y-50855182D02*
X71771308Y-50639683D01*
X71771308Y-50639683D02*
X71852120Y-50612746D01*
X71852120Y-50612746D02*
X71905995Y-50612746D01*
X71905995Y-50612746D02*
X71986807Y-50639683D01*
X71986807Y-50639683D02*
X72067619Y-50720495D01*
X72067619Y-50720495D02*
X72094557Y-50801307D01*
X72094557Y-50801307D02*
X72094557Y-50855182D01*
X72094557Y-50855182D02*
X72067619Y-50935994D01*
X72067619Y-50935994D02*
X71852120Y-51151494D01*
X72067619Y-50343372D02*
X72417806Y-49993185D01*
X72417806Y-49993185D02*
X72444743Y-50397246D01*
X72444743Y-50397246D02*
X72525555Y-50316434D01*
X72525555Y-50316434D02*
X72606367Y-50289497D01*
X72606367Y-50289497D02*
X72660242Y-50289497D01*
X72660242Y-50289497D02*
X72741054Y-50316434D01*
X72741054Y-50316434D02*
X72875741Y-50451121D01*
X72875741Y-50451121D02*
X72902679Y-50531933D01*
X72902679Y-50531933D02*
X72902679Y-50585808D01*
X72902679Y-50585808D02*
X72875741Y-50666620D01*
X72875741Y-50666620D02*
X72714117Y-50828245D01*
X72714117Y-50828245D02*
X72633305Y-50855182D01*
X72633305Y-50855182D02*
X72579430Y-50855182D01*
X71213372Y-43521494D02*
X71132560Y-43548431D01*
X71132560Y-43548431D02*
X71051748Y-43629243D01*
X71051748Y-43629243D02*
X70997873Y-43736993D01*
X70997873Y-43736993D02*
X70997873Y-43844742D01*
X70997873Y-43844742D02*
X71024810Y-43925555D01*
X71024810Y-43925555D02*
X71105623Y-44060242D01*
X71105623Y-44060242D02*
X71186435Y-44141054D01*
X71186435Y-44141054D02*
X71321122Y-44221866D01*
X71321122Y-44221866D02*
X71401934Y-44248803D01*
X71401934Y-44248803D02*
X71509684Y-44248803D01*
X71509684Y-44248803D02*
X71617433Y-44194929D01*
X71617433Y-44194929D02*
X71671308Y-44141054D01*
X71671308Y-44141054D02*
X71725183Y-44033304D01*
X71725183Y-44033304D02*
X71725183Y-43979429D01*
X71725183Y-43979429D02*
X71536621Y-43790868D01*
X71536621Y-43790868D02*
X71428871Y-43898617D01*
X72021494Y-43790868D02*
X71455809Y-43225182D01*
X71455809Y-43225182D02*
X71671308Y-43009683D01*
X71671308Y-43009683D02*
X71752120Y-42982746D01*
X71752120Y-42982746D02*
X71805995Y-42982746D01*
X71805995Y-42982746D02*
X71886807Y-43009683D01*
X71886807Y-43009683D02*
X71967619Y-43090495D01*
X71967619Y-43090495D02*
X71994557Y-43171307D01*
X71994557Y-43171307D02*
X71994557Y-43225182D01*
X71994557Y-43225182D02*
X71967619Y-43305994D01*
X71967619Y-43305994D02*
X71752120Y-43521494D01*
X72883491Y-42928871D02*
X72560242Y-43252120D01*
X72721867Y-43090495D02*
X72156181Y-42524810D01*
X72156181Y-42524810D02*
X72183119Y-42659497D01*
X72183119Y-42659497D02*
X72183119Y-42767246D01*
X72183119Y-42767246D02*
X72156181Y-42848059D01*
X96886435Y-46098431D02*
X96805623Y-46125368D01*
X96805623Y-46125368D02*
X96724811Y-46206180D01*
X96724811Y-46206180D02*
X96670936Y-46313930D01*
X96670936Y-46313930D02*
X96670936Y-46421680D01*
X96670936Y-46421680D02*
X96697873Y-46502492D01*
X96697873Y-46502492D02*
X96778685Y-46637179D01*
X96778685Y-46637179D02*
X96859498Y-46717991D01*
X96859498Y-46717991D02*
X96994185Y-46798803D01*
X96994185Y-46798803D02*
X97074997Y-46825741D01*
X97074997Y-46825741D02*
X97182746Y-46825741D01*
X97182746Y-46825741D02*
X97290496Y-46771866D01*
X97290496Y-46771866D02*
X97344371Y-46717991D01*
X97344371Y-46717991D02*
X97398246Y-46610241D01*
X97398246Y-46610241D02*
X97398246Y-46556367D01*
X97398246Y-46556367D02*
X97209684Y-46367805D01*
X97209684Y-46367805D02*
X97101934Y-46475554D01*
X97694557Y-46367805D02*
X97128872Y-45802119D01*
X97128872Y-45802119D02*
X98017806Y-46044556D01*
X98017806Y-46044556D02*
X97452120Y-45478871D01*
X98287180Y-45775182D02*
X97721494Y-45209497D01*
X97721494Y-45209497D02*
X97856181Y-45074810D01*
X97856181Y-45074810D02*
X97963931Y-45020935D01*
X97963931Y-45020935D02*
X98071680Y-45020935D01*
X98071680Y-45020935D02*
X98152493Y-45047872D01*
X98152493Y-45047872D02*
X98287180Y-45128685D01*
X98287180Y-45128685D02*
X98367992Y-45209497D01*
X98367992Y-45209497D02*
X98448804Y-45344184D01*
X98448804Y-45344184D02*
X98475741Y-45424996D01*
X98475741Y-45424996D02*
X98475741Y-45532746D01*
X98475741Y-45532746D02*
X98421867Y-45640495D01*
X98421867Y-45640495D02*
X98287180Y-45775182D01*
X96897998Y-64120868D02*
X96817185Y-64147805D01*
X96817185Y-64147805D02*
X96736373Y-64228618D01*
X96736373Y-64228618D02*
X96682498Y-64336367D01*
X96682498Y-64336367D02*
X96682498Y-64444117D01*
X96682498Y-64444117D02*
X96709436Y-64524929D01*
X96709436Y-64524929D02*
X96790248Y-64659616D01*
X96790248Y-64659616D02*
X96871060Y-64740428D01*
X96871060Y-64740428D02*
X97005747Y-64821241D01*
X97005747Y-64821241D02*
X97086560Y-64848178D01*
X97086560Y-64848178D02*
X97194309Y-64848178D01*
X97194309Y-64848178D02*
X97302059Y-64794303D01*
X97302059Y-64794303D02*
X97355934Y-64740428D01*
X97355934Y-64740428D02*
X97409808Y-64632679D01*
X97409808Y-64632679D02*
X97409808Y-64578804D01*
X97409808Y-64578804D02*
X97221247Y-64390242D01*
X97221247Y-64390242D02*
X97113497Y-64497992D01*
X97706120Y-64390242D02*
X97140434Y-63824557D01*
X97140434Y-63824557D02*
X97355934Y-63609057D01*
X97355934Y-63609057D02*
X97436746Y-63582120D01*
X97436746Y-63582120D02*
X97490621Y-63582120D01*
X97490621Y-63582120D02*
X97571433Y-63609057D01*
X97571433Y-63609057D02*
X97652245Y-63689870D01*
X97652245Y-63689870D02*
X97679182Y-63770682D01*
X97679182Y-63770682D02*
X97679182Y-63824557D01*
X97679182Y-63824557D02*
X97652245Y-63905369D01*
X97652245Y-63905369D02*
X97436746Y-64120868D01*
X97733057Y-63339683D02*
X97733057Y-63285809D01*
X97733057Y-63285809D02*
X97759995Y-63204996D01*
X97759995Y-63204996D02*
X97894682Y-63070309D01*
X97894682Y-63070309D02*
X97975494Y-63043372D01*
X97975494Y-63043372D02*
X98029369Y-63043372D01*
X98029369Y-63043372D02*
X98110181Y-63070309D01*
X98110181Y-63070309D02*
X98164056Y-63124184D01*
X98164056Y-63124184D02*
X98217930Y-63231934D01*
X98217930Y-63231934D02*
X98217930Y-63878431D01*
X98217930Y-63878431D02*
X98568117Y-63528245D01*
X98487305Y-62477686D02*
X98379555Y-62585436D01*
X98379555Y-62585436D02*
X98352618Y-62666248D01*
X98352618Y-62666248D02*
X98352618Y-62720123D01*
X98352618Y-62720123D02*
X98379555Y-62854810D01*
X98379555Y-62854810D02*
X98460367Y-62989497D01*
X98460367Y-62989497D02*
X98675866Y-63204996D01*
X98675866Y-63204996D02*
X98756679Y-63231934D01*
X98756679Y-63231934D02*
X98810553Y-63231934D01*
X98810553Y-63231934D02*
X98891366Y-63204996D01*
X98891366Y-63204996D02*
X98999115Y-63097247D01*
X98999115Y-63097247D02*
X99026053Y-63016434D01*
X99026053Y-63016434D02*
X99026053Y-62962560D01*
X99026053Y-62962560D02*
X98999115Y-62881747D01*
X98999115Y-62881747D02*
X98864428Y-62747060D01*
X98864428Y-62747060D02*
X98783616Y-62720123D01*
X98783616Y-62720123D02*
X98729741Y-62720123D01*
X98729741Y-62720123D02*
X98648929Y-62747060D01*
X98648929Y-62747060D02*
X98541179Y-62854810D01*
X98541179Y-62854810D02*
X98514242Y-62935622D01*
X98514242Y-62935622D02*
X98514242Y-62989497D01*
X98514242Y-62989497D02*
X98541179Y-63070309D01*
X70643998Y-79360868D02*
X70563185Y-79387805D01*
X70563185Y-79387805D02*
X70482373Y-79468618D01*
X70482373Y-79468618D02*
X70428498Y-79576367D01*
X70428498Y-79576367D02*
X70428498Y-79684117D01*
X70428498Y-79684117D02*
X70455436Y-79764929D01*
X70455436Y-79764929D02*
X70536248Y-79899616D01*
X70536248Y-79899616D02*
X70617060Y-79980428D01*
X70617060Y-79980428D02*
X70751747Y-80061241D01*
X70751747Y-80061241D02*
X70832560Y-80088178D01*
X70832560Y-80088178D02*
X70940309Y-80088178D01*
X70940309Y-80088178D02*
X71048059Y-80034303D01*
X71048059Y-80034303D02*
X71101934Y-79980428D01*
X71101934Y-79980428D02*
X71155808Y-79872679D01*
X71155808Y-79872679D02*
X71155808Y-79818804D01*
X71155808Y-79818804D02*
X70967247Y-79630242D01*
X70967247Y-79630242D02*
X70859497Y-79737992D01*
X71452120Y-79630242D02*
X70886434Y-79064557D01*
X70886434Y-79064557D02*
X71101934Y-78849057D01*
X71101934Y-78849057D02*
X71182746Y-78822120D01*
X71182746Y-78822120D02*
X71236621Y-78822120D01*
X71236621Y-78822120D02*
X71317433Y-78849057D01*
X71317433Y-78849057D02*
X71398245Y-78929870D01*
X71398245Y-78929870D02*
X71425182Y-79010682D01*
X71425182Y-79010682D02*
X71425182Y-79064557D01*
X71425182Y-79064557D02*
X71398245Y-79145369D01*
X71398245Y-79145369D02*
X71182746Y-79360868D01*
X72314117Y-78768245D02*
X71990868Y-79091494D01*
X72152492Y-78929870D02*
X71586807Y-78364184D01*
X71586807Y-78364184D02*
X71613744Y-78498871D01*
X71613744Y-78498871D02*
X71613744Y-78606621D01*
X71613744Y-78606621D02*
X71586807Y-78687433D01*
X72017805Y-78040935D02*
X72017805Y-77987060D01*
X72017805Y-77987060D02*
X72044743Y-77906248D01*
X72044743Y-77906248D02*
X72179430Y-77771561D01*
X72179430Y-77771561D02*
X72260242Y-77744624D01*
X72260242Y-77744624D02*
X72314117Y-77744624D01*
X72314117Y-77744624D02*
X72394929Y-77771561D01*
X72394929Y-77771561D02*
X72448804Y-77825436D01*
X72448804Y-77825436D02*
X72502679Y-77933186D01*
X72502679Y-77933186D02*
X72502679Y-78579683D01*
X72502679Y-78579683D02*
X72852865Y-78229497D01*
X96886435Y-84198431D02*
X96805623Y-84225368D01*
X96805623Y-84225368D02*
X96724811Y-84306180D01*
X96724811Y-84306180D02*
X96670936Y-84413930D01*
X96670936Y-84413930D02*
X96670936Y-84521680D01*
X96670936Y-84521680D02*
X96697873Y-84602492D01*
X96697873Y-84602492D02*
X96778685Y-84737179D01*
X96778685Y-84737179D02*
X96859498Y-84817991D01*
X96859498Y-84817991D02*
X96994185Y-84898803D01*
X96994185Y-84898803D02*
X97074997Y-84925741D01*
X97074997Y-84925741D02*
X97182746Y-84925741D01*
X97182746Y-84925741D02*
X97290496Y-84871866D01*
X97290496Y-84871866D02*
X97344371Y-84817991D01*
X97344371Y-84817991D02*
X97398246Y-84710241D01*
X97398246Y-84710241D02*
X97398246Y-84656367D01*
X97398246Y-84656367D02*
X97209684Y-84467805D01*
X97209684Y-84467805D02*
X97101934Y-84575554D01*
X97694557Y-84467805D02*
X97128872Y-83902119D01*
X97128872Y-83902119D02*
X98017806Y-84144556D01*
X98017806Y-84144556D02*
X97452120Y-83578871D01*
X98287180Y-83875182D02*
X97721494Y-83309497D01*
X97721494Y-83309497D02*
X97856181Y-83174810D01*
X97856181Y-83174810D02*
X97963931Y-83120935D01*
X97963931Y-83120935D02*
X98071680Y-83120935D01*
X98071680Y-83120935D02*
X98152493Y-83147872D01*
X98152493Y-83147872D02*
X98287180Y-83228685D01*
X98287180Y-83228685D02*
X98367992Y-83309497D01*
X98367992Y-83309497D02*
X98448804Y-83444184D01*
X98448804Y-83444184D02*
X98475741Y-83524996D01*
X98475741Y-83524996D02*
X98475741Y-83632746D01*
X98475741Y-83632746D02*
X98421867Y-83740495D01*
X98421867Y-83740495D02*
X98287180Y-83875182D01*
X77290475Y-91524200D02*
X77404761Y-91562295D01*
X77404761Y-91562295D02*
X77595237Y-91562295D01*
X77595237Y-91562295D02*
X77671428Y-91524200D01*
X77671428Y-91524200D02*
X77709523Y-91486104D01*
X77709523Y-91486104D02*
X77747618Y-91409914D01*
X77747618Y-91409914D02*
X77747618Y-91333723D01*
X77747618Y-91333723D02*
X77709523Y-91257533D01*
X77709523Y-91257533D02*
X77671428Y-91219438D01*
X77671428Y-91219438D02*
X77595237Y-91181342D01*
X77595237Y-91181342D02*
X77442856Y-91143247D01*
X77442856Y-91143247D02*
X77366666Y-91105152D01*
X77366666Y-91105152D02*
X77328571Y-91067057D01*
X77328571Y-91067057D02*
X77290475Y-90990866D01*
X77290475Y-90990866D02*
X77290475Y-90914676D01*
X77290475Y-90914676D02*
X77328571Y-90838485D01*
X77328571Y-90838485D02*
X77366666Y-90800390D01*
X77366666Y-90800390D02*
X77442856Y-90762295D01*
X77442856Y-90762295D02*
X77633333Y-90762295D01*
X77633333Y-90762295D02*
X77747618Y-90800390D01*
X78014285Y-90762295D02*
X78204761Y-91562295D01*
X78204761Y-91562295D02*
X78357142Y-90990866D01*
X78357142Y-90990866D02*
X78509523Y-91562295D01*
X78509523Y-91562295D02*
X78700000Y-90762295D01*
X79461905Y-91486104D02*
X79423809Y-91524200D01*
X79423809Y-91524200D02*
X79309524Y-91562295D01*
X79309524Y-91562295D02*
X79233333Y-91562295D01*
X79233333Y-91562295D02*
X79119047Y-91524200D01*
X79119047Y-91524200D02*
X79042857Y-91448009D01*
X79042857Y-91448009D02*
X79004762Y-91371819D01*
X79004762Y-91371819D02*
X78966666Y-91219438D01*
X78966666Y-91219438D02*
X78966666Y-91105152D01*
X78966666Y-91105152D02*
X79004762Y-90952771D01*
X79004762Y-90952771D02*
X79042857Y-90876580D01*
X79042857Y-90876580D02*
X79119047Y-90800390D01*
X79119047Y-90800390D02*
X79233333Y-90762295D01*
X79233333Y-90762295D02*
X79309524Y-90762295D01*
X79309524Y-90762295D02*
X79423809Y-90800390D01*
X79423809Y-90800390D02*
X79461905Y-90838485D01*
X80185714Y-91562295D02*
X79804762Y-91562295D01*
X79804762Y-91562295D02*
X79804762Y-90762295D01*
X80452381Y-91562295D02*
X80452381Y-90762295D01*
X80909524Y-91562295D02*
X80566666Y-91105152D01*
X80909524Y-90762295D02*
X80452381Y-91219438D01*
X71286435Y-58798431D02*
X71205623Y-58825368D01*
X71205623Y-58825368D02*
X71124811Y-58906180D01*
X71124811Y-58906180D02*
X71070936Y-59013930D01*
X71070936Y-59013930D02*
X71070936Y-59121680D01*
X71070936Y-59121680D02*
X71097873Y-59202492D01*
X71097873Y-59202492D02*
X71178685Y-59337179D01*
X71178685Y-59337179D02*
X71259498Y-59417991D01*
X71259498Y-59417991D02*
X71394185Y-59498803D01*
X71394185Y-59498803D02*
X71474997Y-59525741D01*
X71474997Y-59525741D02*
X71582746Y-59525741D01*
X71582746Y-59525741D02*
X71690496Y-59471866D01*
X71690496Y-59471866D02*
X71744371Y-59417991D01*
X71744371Y-59417991D02*
X71798246Y-59310241D01*
X71798246Y-59310241D02*
X71798246Y-59256367D01*
X71798246Y-59256367D02*
X71609684Y-59067805D01*
X71609684Y-59067805D02*
X71501934Y-59175554D01*
X72094557Y-59067805D02*
X71528872Y-58502119D01*
X71528872Y-58502119D02*
X72417806Y-58744556D01*
X72417806Y-58744556D02*
X71852120Y-58178871D01*
X72687180Y-58475182D02*
X72121494Y-57909497D01*
X72121494Y-57909497D02*
X72256181Y-57774810D01*
X72256181Y-57774810D02*
X72363931Y-57720935D01*
X72363931Y-57720935D02*
X72471680Y-57720935D01*
X72471680Y-57720935D02*
X72552493Y-57747872D01*
X72552493Y-57747872D02*
X72687180Y-57828685D01*
X72687180Y-57828685D02*
X72767992Y-57909497D01*
X72767992Y-57909497D02*
X72848804Y-58044184D01*
X72848804Y-58044184D02*
X72875741Y-58124996D01*
X72875741Y-58124996D02*
X72875741Y-58232746D01*
X72875741Y-58232746D02*
X72821867Y-58340495D01*
X72821867Y-58340495D02*
X72687180Y-58475182D01*
X115605333Y-57159580D02*
X115557714Y-57207200D01*
X115557714Y-57207200D02*
X115414857Y-57254819D01*
X115414857Y-57254819D02*
X115319619Y-57254819D01*
X115319619Y-57254819D02*
X115176762Y-57207200D01*
X115176762Y-57207200D02*
X115081524Y-57111961D01*
X115081524Y-57111961D02*
X115033905Y-57016723D01*
X115033905Y-57016723D02*
X114986286Y-56826247D01*
X114986286Y-56826247D02*
X114986286Y-56683390D01*
X114986286Y-56683390D02*
X115033905Y-56492914D01*
X115033905Y-56492914D02*
X115081524Y-56397676D01*
X115081524Y-56397676D02*
X115176762Y-56302438D01*
X115176762Y-56302438D02*
X115319619Y-56254819D01*
X115319619Y-56254819D02*
X115414857Y-56254819D01*
X115414857Y-56254819D02*
X115557714Y-56302438D01*
X115557714Y-56302438D02*
X115605333Y-56350057D01*
X116510095Y-56254819D02*
X116033905Y-56254819D01*
X116033905Y-56254819D02*
X115986286Y-56731009D01*
X115986286Y-56731009D02*
X116033905Y-56683390D01*
X116033905Y-56683390D02*
X116129143Y-56635771D01*
X116129143Y-56635771D02*
X116367238Y-56635771D01*
X116367238Y-56635771D02*
X116462476Y-56683390D01*
X116462476Y-56683390D02*
X116510095Y-56731009D01*
X116510095Y-56731009D02*
X116557714Y-56826247D01*
X116557714Y-56826247D02*
X116557714Y-57064342D01*
X116557714Y-57064342D02*
X116510095Y-57159580D01*
X116510095Y-57159580D02*
X116462476Y-57207200D01*
X116462476Y-57207200D02*
X116367238Y-57254819D01*
X116367238Y-57254819D02*
X116129143Y-57254819D01*
X116129143Y-57254819D02*
X116033905Y-57207200D01*
X116033905Y-57207200D02*
X115986286Y-57159580D01*
X120729142Y-57054819D02*
X120157714Y-57054819D01*
X120443428Y-57054819D02*
X120443428Y-56054819D01*
X120443428Y-56054819D02*
X120348190Y-56197676D01*
X120348190Y-56197676D02*
X120252952Y-56292914D01*
X120252952Y-56292914D02*
X120157714Y-56340533D01*
X121348190Y-56054819D02*
X121443428Y-56054819D01*
X121443428Y-56054819D02*
X121538666Y-56102438D01*
X121538666Y-56102438D02*
X121586285Y-56150057D01*
X121586285Y-56150057D02*
X121633904Y-56245295D01*
X121633904Y-56245295D02*
X121681523Y-56435771D01*
X121681523Y-56435771D02*
X121681523Y-56673866D01*
X121681523Y-56673866D02*
X121633904Y-56864342D01*
X121633904Y-56864342D02*
X121586285Y-56959580D01*
X121586285Y-56959580D02*
X121538666Y-57007200D01*
X121538666Y-57007200D02*
X121443428Y-57054819D01*
X121443428Y-57054819D02*
X121348190Y-57054819D01*
X121348190Y-57054819D02*
X121252952Y-57007200D01*
X121252952Y-57007200D02*
X121205333Y-56959580D01*
X121205333Y-56959580D02*
X121157714Y-56864342D01*
X121157714Y-56864342D02*
X121110095Y-56673866D01*
X121110095Y-56673866D02*
X121110095Y-56435771D01*
X121110095Y-56435771D02*
X121157714Y-56245295D01*
X121157714Y-56245295D02*
X121205333Y-56150057D01*
X121205333Y-56150057D02*
X121252952Y-56102438D01*
X121252952Y-56102438D02*
X121348190Y-56054819D01*
X122538666Y-56388152D02*
X122538666Y-57054819D01*
X122110095Y-56388152D02*
X122110095Y-56911961D01*
X122110095Y-56911961D02*
X122157714Y-57007200D01*
X122157714Y-57007200D02*
X122252952Y-57054819D01*
X122252952Y-57054819D02*
X122395809Y-57054819D01*
X122395809Y-57054819D02*
X122491047Y-57007200D01*
X122491047Y-57007200D02*
X122538666Y-56959580D01*
D13*
%TO.C,R2*%
X99820000Y-55246359D02*
X99820000Y-55553641D01*
X100580000Y-55246359D02*
X100580000Y-55553641D01*
%TO.C,IN1*%
X111212500Y-37150000D02*
X111812500Y-37450000D01*
X111212500Y-37750000D02*
X111212500Y-37150000D01*
X111812500Y-37450000D02*
X111212500Y-37750000D01*
X112012500Y-32840000D02*
X115132500Y-32840000D01*
X112012500Y-42760000D02*
X112012500Y-32840000D01*
X115132500Y-32840000D02*
X115132500Y-34040000D01*
X115132500Y-34040000D02*
X118912500Y-34040000D01*
X118912500Y-32840000D02*
X122032500Y-32840000D01*
X118912500Y-34040000D02*
X118912500Y-32840000D01*
X122032500Y-32840000D02*
X122032500Y-42760000D01*
X122032500Y-42760000D02*
X112012500Y-42760000D01*
D14*
%TO.C,IC1*%
X103630000Y-45070000D02*
X103630000Y-45855000D01*
D11*
X109200000Y-41355000D02*
X109200000Y-41355000D01*
X109200000Y-41455000D02*
X109200000Y-41455000D01*
D14*
X110170000Y-45070000D02*
X103630000Y-45070000D01*
X110170000Y-45855000D02*
X110170000Y-45070000D01*
D11*
X109200000Y-41355000D02*
G75*
G02*
X109200000Y-41455000I0J-50000D01*
G01*
X109200000Y-41455000D02*
G75*
G02*
X109200000Y-41355000I0J50000D01*
G01*
D13*
%TO.C,C1*%
X118299420Y-49690000D02*
X118580580Y-49690000D01*
X118299420Y-50710000D02*
X118580580Y-50710000D01*
D14*
%TO.C,IC2*%
X115700000Y-59200000D02*
X115700000Y-59200000D01*
X115700000Y-59300000D02*
X115700000Y-59300000D01*
D11*
X117753000Y-59102000D02*
X117753000Y-68498000D01*
D14*
X115700000Y-59200000D02*
G75*
G02*
X115700000Y-59300000I0J-50000D01*
G01*
X115700000Y-59300000D02*
G75*
G02*
X115700000Y-59200000I0J50000D01*
G01*
D13*
%TO.C,C4*%
X99890000Y-48459420D02*
X99890000Y-48740580D01*
X100910000Y-48459420D02*
X100910000Y-48740580D01*
%TO.C,C3*%
X100890000Y-43859420D02*
X100890000Y-44140580D01*
X101910000Y-43859420D02*
X101910000Y-44140580D01*
%TO.C,OUT1*%
X117640000Y-71612500D02*
X127560000Y-71612500D01*
X117640000Y-81632500D02*
X117640000Y-71612500D01*
X122650000Y-70812500D02*
X123250000Y-70812500D01*
X122950000Y-71412500D02*
X122650000Y-70812500D01*
X123250000Y-70812500D02*
X122950000Y-71412500D01*
X126360000Y-74732500D02*
X126360000Y-78512500D01*
X126360000Y-78512500D02*
X127560000Y-78512500D01*
X127560000Y-71612500D02*
X127560000Y-74732500D01*
X127560000Y-74732500D02*
X126360000Y-74732500D01*
X127560000Y-78512500D02*
X127560000Y-81632500D01*
X127560000Y-81632500D02*
X117640000Y-81632500D01*
%TO.C,RV1*%
X100810000Y-82890000D02*
X114790000Y-82890000D01*
X100810000Y-92810000D02*
X100810000Y-82890000D01*
X103930000Y-91610000D02*
X103930000Y-92810000D01*
X103930000Y-92810000D02*
X100810000Y-92810000D01*
X111670000Y-91610000D02*
X103930000Y-91610000D01*
X111670000Y-92810000D02*
X111670000Y-91610000D01*
X114790000Y-82890000D02*
X114790000Y-92810000D01*
X114790000Y-92810000D02*
X111670000Y-92810000D01*
X114990000Y-88200000D02*
X115590000Y-87900000D01*
X115590000Y-87900000D02*
X115590000Y-88500000D01*
X115590000Y-88500000D02*
X114990000Y-88200000D01*
%TO.C,C6*%
X118231420Y-54490000D02*
X118512580Y-54490000D01*
X118231420Y-55510000D02*
X118512580Y-55510000D01*
%TO.C,R1*%
X98956359Y-90220000D02*
X99263641Y-90220000D01*
X98956359Y-90980000D02*
X99263641Y-90980000D01*
%TO.C,C2*%
X111690000Y-44834420D02*
X111690000Y-45115580D01*
X112710000Y-44834420D02*
X112710000Y-45115580D01*
%TO.C,U1*%
X74300000Y-39500000D02*
X74300000Y-39800000D01*
X74300000Y-39500000D02*
X95300000Y-39500000D01*
X74300000Y-41900000D02*
X74300000Y-42300000D01*
X74300000Y-42167000D02*
X77307000Y-42167000D01*
X74300000Y-44500000D02*
X74300000Y-44900000D01*
X74300000Y-47000000D02*
X74300000Y-47400000D01*
X74300000Y-49600000D02*
X74300000Y-50000000D01*
X74300000Y-52100000D02*
X74300000Y-52500000D01*
X74300000Y-54600000D02*
X74300000Y-55000000D01*
X74300000Y-57200000D02*
X74300000Y-57600000D01*
X74300000Y-59700000D02*
X74300000Y-60100000D01*
X74300000Y-62300000D02*
X74300000Y-62700000D01*
X74300000Y-64800000D02*
X74300000Y-65200000D01*
X74300000Y-67300000D02*
X74300000Y-67700000D01*
X74300000Y-69900000D02*
X74300000Y-70300000D01*
X74300000Y-72400000D02*
X74300000Y-72800000D01*
X74300000Y-75000000D02*
X74300000Y-75400000D01*
X74300000Y-77500000D02*
X74300000Y-77900000D01*
X74300000Y-80100000D02*
X74300000Y-80500000D01*
X74300000Y-82600000D02*
X74300000Y-83000000D01*
X74300000Y-85100000D02*
X74300000Y-85500000D01*
X74300000Y-87700000D02*
X74300000Y-88100000D01*
X77307000Y-42167000D02*
X77307000Y-39500000D01*
X81100000Y-90500000D02*
X74300000Y-90500000D01*
X83300000Y-90500000D02*
X83700000Y-90500000D01*
X85900000Y-90500000D02*
X86300000Y-90500000D01*
X95300000Y-39500000D02*
X95300000Y-39800000D01*
X95300000Y-41900000D02*
X95300000Y-42300000D01*
X95300000Y-44500000D02*
X95300000Y-44900000D01*
X95300000Y-47000000D02*
X95300000Y-47400000D01*
X95300000Y-49600000D02*
X95300000Y-50000000D01*
X95300000Y-52100000D02*
X95300000Y-52500000D01*
X95300000Y-54600000D02*
X95300000Y-55000000D01*
X95300000Y-57200000D02*
X95300000Y-57600000D01*
X95300000Y-59700000D02*
X95300000Y-60100000D01*
X95300000Y-62300000D02*
X95300000Y-62700000D01*
X95300000Y-64800000D02*
X95300000Y-65200000D01*
X95300000Y-67300000D02*
X95300000Y-67700000D01*
X95300000Y-69900000D02*
X95300000Y-70300000D01*
X95300000Y-72400000D02*
X95300000Y-72800000D01*
X95300000Y-75000000D02*
X95300000Y-75400000D01*
X95300000Y-77500000D02*
X95300000Y-77900000D01*
X95300000Y-80100000D02*
X95300000Y-80500000D01*
X95300000Y-82600000D02*
X95300000Y-83000000D01*
X95300000Y-85100000D02*
X95300000Y-85500000D01*
X95300000Y-87700000D02*
X95300000Y-88100000D01*
X95300000Y-90500000D02*
X88500000Y-90500000D01*
%TO.C,C5*%
X118231420Y-56090000D02*
X118512580Y-56090000D01*
X118231420Y-57110000D02*
X118512580Y-57110000D01*
%TD*%
M02*
